<?xml version="1.0" encoding="utf-8" ?>
<svg xmlns="http://www.w3.org/2000/svg" xmlns:xlink="http://www.w3.org/1999/xlink" width="796" height="796">
	<path fill="#00356A" transform="matrix(1.2736 0 0 1.2736 0 -0.000244141)" d="M305.98 23.8497Q312.953 23.7979 319.92 24.088Q326.886 24.3781 333.831 25.0095Q340.775 25.6409 347.68 26.612Q354.585 27.5831 361.434 28.8916Q368.283 30.2002 375.059 31.8429Q381.836 33.4857 388.524 35.4588Q395.212 37.4319 401.795 39.7306Q408.378 42.0292 414.84 44.6479Q421.303 47.2666 427.629 50.199Q433.955 53.1314 440.13 56.3705Q446.305 59.6096 452.314 63.1476Q458.322 66.6855 464.15 70.5139Q469.978 74.3422 475.611 78.4517Q481.245 82.5612 486.669 86.942Q492.094 91.3228 497.298 95.9643Q502.501 100.606 507.471 105.497Q512.441 110.388 517.165 115.517Q521.889 120.646 526.356 126Q530.822 131.354 535.021 136.921Q539.22 142.488 543.141 148.254Q547.062 154.02 550.695 159.972Q554.328 165.923 557.666 172.046Q561.003 178.168 564.036 184.447Q567.069 190.726 569.79 197.145Q572.511 203.565 574.915 210.111Q577.318 216.657 579.398 223.312Q581.477 229.968 583.228 236.717Q584.979 243.467 586.396 250.294Q587.814 257.121 588.895 264.01Q589.976 270.898 590.718 277.832Q591.46 284.765 591.861 291.726Q592.263 298.687 592.322 305.66Q592.381 312.633 592.099 319.6Q591.816 326.567 591.192 333.512Q590.569 340.457 589.605 347.363Q588.641 354.268 587.34 361.119Q586.039 367.969 584.404 374.748Q582.768 381.526 580.802 388.216Q578.836 394.906 576.545 401.492Q574.253 408.077 571.642 414.542Q569.03 421.008 566.105 427.337Q563.179 433.667 559.947 439.845Q556.714 446.023 553.183 452.036Q549.651 458.048 545.829 463.88Q542.007 469.712 537.904 475.35Q533.801 480.988 529.426 486.417Q525.051 491.847 520.415 497.056Q515.779 502.264 510.893 507.239Q506.008 512.214 500.884 516.944Q495.76 521.673 490.411 526.146Q485.061 530.618 479.499 534.823Q473.937 539.028 468.175 542.955Q462.413 546.882 456.466 550.522Q450.518 554.162 444.399 557.506Q438.28 560.849 432.005 563.889Q425.73 566.929 419.313 569.657Q412.896 572.386 406.353 574.796Q399.81 577.207 393.157 579.293Q386.503 581.38 379.756 583.138Q373.008 584.896 366.182 586.321Q359.357 587.746 352.469 588.835Q345.582 589.923 338.65 590.673Q331.717 591.423 324.756 591.831Q317.796 592.24 310.823 592.307Q303.841 592.374 296.864 592.098Q289.887 591.822 282.932 591.204Q275.977 590.586 269.06 589.627Q262.144 588.668 255.283 587.371Q248.422 586.074 241.633 584.441Q234.844 582.809 228.143 580.845Q221.443 578.88 214.847 576.59Q208.251 574.299 201.775 571.687Q195.299 569.076 188.96 566.149Q182.62 563.222 176.432 559.988Q170.244 556.754 164.222 553.22Q158.2 549.685 152.359 545.859Q146.517 542.034 140.871 537.926Q135.225 533.818 129.787 529.438Q124.349 525.057 119.133 520.416Q113.917 515.774 108.935 510.881Q103.953 505.989 99.2176 500.858Q94.4819 495.727 90.0039 490.369Q85.5259 485.012 81.3163 479.441Q77.1068 473.87 73.1758 468.099Q69.2449 462.328 65.6021 456.371Q61.9593 450.414 58.6133 444.285Q55.2674 438.157 52.2264 431.871Q49.1854 425.586 46.4567 419.158Q43.728 412.731 41.3182 406.178Q38.9084 399.624 36.8233 392.96Q34.7382 386.296 32.9828 379.538Q31.2274 372.78 29.806 365.944Q28.3846 359.107 27.3006 352.209Q26.2165 345.312 25.4725 338.369Q24.7284 331.426 24.3262 324.455Q23.924 317.484 23.8645 310.502Q23.805 303.52 24.0885 296.543Q24.3719 289.566 24.9975 282.612Q25.6232 275.657 26.5896 268.742Q27.5559 261.827 28.8607 254.967Q30.1655 248.108 31.8055 241.321Q33.4455 234.534 35.4167 227.835Q37.388 221.137 39.6858 214.543Q41.9836 207.95 44.6024 201.477Q47.2212 195.004 50.1547 188.668Q53.0881 182.331 56.3292 176.146Q59.5702 169.962 63.111 163.944Q66.6518 157.925 70.4839 152.088Q74.3159 146.251 78.4299 140.61Q82.544 134.968 86.9301 129.535Q91.3161 124.102 95.9637 118.891Q100.611 113.68 105.509 108.703Q110.407 103.726 115.543 98.9964Q120.679 94.2663 126.042 89.7941Q131.404 85.3219 136.98 81.1184Q142.555 76.9149 148.33 72.9902Q154.105 69.0656 160.066 65.4292Q166.027 61.7928 172.159 58.4535Q178.292 55.1142 184.58 52.0801Q190.869 49.0459 197.299 46.3242Q203.73 43.6025 210.286 41.1998Q216.842 38.7971 223.508 36.7192Q230.174 34.6413 236.934 32.8933Q243.694 31.1452 250.532 29.7312Q257.37 28.3172 264.269 27.2406Q271.168 26.164 278.111 25.4275Q285.055 24.691 292.026 24.2963Q298.998 23.9016 305.98 23.8497Z"/>
	<path fill="#FEFEFE" transform="matrix(1.2736 0 0 1.2736 0 -0.000244141)" d="M299.79 29.0986Q306.64 28.8944 313.491 29.0267Q320.343 29.1589 327.18 29.6272Q334.017 30.0955 340.823 30.8988Q347.628 31.702 354.386 32.8383Q361.144 33.9746 367.838 35.4411Q374.533 36.9076 381.147 38.7009Q387.761 40.4942 394.279 42.6099Q400.797 44.7256 407.203 47.1586Q413.61 49.5916 419.889 52.336Q426.169 55.0805 432.306 58.1298Q438.443 61.1791 444.423 64.5259Q450.403 67.8727 456.212 71.5089Q462.02 75.1451 467.643 79.062Q473.267 82.9789 478.691 87.167Q484.115 91.3552 489.327 95.8044Q494.539 100.254 499.527 104.953Q504.514 109.653 509.265 114.592Q514.016 119.531 518.519 124.697Q523.022 129.862 527.266 135.243Q531.509 140.624 535.484 146.206Q539.459 151.789 543.155 157.56Q546.851 163.33 550.259 169.276Q553.667 175.221 556.78 181.326Q559.892 187.432 562.701 193.682Q565.51 199.933 568.009 206.314Q570.508 212.695 572.691 219.191Q574.874 225.687 576.735 232.282Q578.597 238.877 580.132 245.556Q581.668 252.235 582.874 258.981Q584.08 265.727 584.953 272.524Q585.826 279.321 586.365 286.152Q586.904 292.984 587.107 299.834Q587.31 306.684 587.176 313.536Q587.043 320.387 586.573 327.224Q586.104 334.061 585.299 340.866Q584.495 347.672 583.357 354.43Q582.22 361.188 580.752 367.881Q579.284 374.575 577.49 381.189Q575.695 387.803 573.579 394.321Q571.462 400.838 569.028 407.244Q566.593 413.65 563.848 419.929Q561.102 426.208 558.052 432.345Q555.001 438.481 551.653 444.461Q548.306 450.44 544.668 456.248Q541.031 462.056 537.113 467.679Q533.195 473.301 529.006 478.724Q524.817 484.148 520.367 489.359Q515.917 494.571 511.216 499.557Q506.515 504.544 501.576 509.294Q496.636 514.044 491.469 518.546Q486.302 523.048 480.921 527.291Q475.539 531.533 469.956 535.507Q464.373 539.481 458.602 543.176Q452.83 546.871 446.884 550.278Q440.938 553.685 434.832 556.796Q428.727 559.908 422.475 562.716Q416.224 565.524 409.843 568.021Q403.461 570.519 396.965 572.701Q390.468 574.882 383.873 576.743Q377.277 578.603 370.598 580.137Q363.919 581.672 357.173 582.876Q350.427 584.081 343.63 584.953Q336.833 585.825 330.001 586.363Q323.169 586.9 316.319 587.102Q309.471 587.304 302.621 587.169Q295.771 587.034 288.936 586.564Q282.1 586.093 275.297 585.288Q268.493 584.482 261.737 583.344Q254.981 582.206 248.288 580.738Q241.596 579.27 234.984 577.475Q228.372 575.68 221.856 573.563Q215.34 571.446 208.936 569.012Q202.532 566.577 196.254 563.832Q189.977 561.086 183.842 558.036Q177.707 554.986 171.73 551.639Q165.752 548.291 159.945 544.655Q154.139 541.018 148.518 537.101Q142.897 533.183 137.475 528.995Q132.053 524.807 126.843 520.358Q121.633 515.908 116.647 511.209Q111.662 506.509 106.913 501.571Q102.164 496.632 97.6628 491.467Q93.1619 486.302 88.9198 480.921Q84.6777 475.541 80.7047 469.96Q76.7318 464.378 73.0374 458.608Q69.343 452.838 65.9362 446.894Q62.5294 440.95 59.4183 434.845Q56.3072 428.741 53.4993 422.492Q50.6915 416.242 48.1936 409.862Q45.6958 403.483 43.5139 396.988Q41.3321 390.493 39.4715 383.9Q37.6109 377.306 36.0761 370.628Q34.5412 363.951 33.3358 357.207Q32.1304 350.462 31.2574 343.667Q30.3843 336.872 29.8457 330.041Q29.3071 323.211 29.1043 316.363Q28.9014 309.515 29.0348 302.665Q29.1682 295.815 29.6375 288.979Q30.1068 282.144 30.9109 275.34Q31.7149 268.536 32.8519 261.78Q33.9888 255.024 35.4558 248.331Q36.9229 241.639 38.7165 235.027Q40.5101 228.414 42.6259 221.898Q44.7418 215.381 47.1748 208.977Q49.6078 202.572 52.3521 196.294Q55.0965 190.017 58.1455 183.881Q61.1945 177.746 64.5408 171.767Q67.8872 165.789 71.5228 159.982Q75.1585 154.175 79.0747 148.553Q82.9908 142.931 87.1781 137.508Q91.3654 132.085 95.8136 126.875Q100.262 121.664 104.96 116.677Q109.659 111.691 114.597 106.941Q119.534 102.191 124.699 97.6894Q129.863 93.1876 135.243 88.9445Q140.622 84.7015 146.203 80.7275Q151.784 76.7534 157.553 73.058Q163.323 69.3626 169.266 65.9547Q175.21 62.5467 181.313 59.4345Q187.417 56.3223 193.666 53.5133Q199.915 50.7043 206.294 48.2052Q212.674 45.7062 219.168 43.5232Q225.662 41.3401 232.255 39.4783Q238.849 37.6165 245.526 36.0804Q252.203 34.5443 258.947 33.3377Q265.691 32.1311 272.486 31.2568Q279.282 30.3825 286.112 29.8426Q292.942 29.3027 299.79 29.0986Z"/>
	<path fill="#00356A" transform="matrix(1.2736 0 0 1.2736 0 -0.000244141)" d="M460.126 129.892L460.367 129.983C460.242 130.6 460.063 130.5 459.512 130.794C442.18 140.033 426.558 156.189 420.718 175.129C414.99 193.709 417.162 213.007 422.035 231.463C423.42 236.709 424.639 241.805 427.177 246.641C418.683 244.221 413.415 241.402 404.075 242.09C398.475 242.502 393.235 244.688 389.573 249.047C380.393 259.975 382.354 278.936 383.437 292.176C364.561 276.168 346.323 274.341 324.027 284.361C315.771 288.071 307.35 292.517 298.147 293.068C293.89 293.323 289.789 292.205 285.673 291.27L286.144 291.498C292.482 294.634 299.298 296.513 305.59 299.85C326.078 310.717 343.456 329.611 353.687 350.318C361.981 367.105 365.658 387.809 360.083 405.986C359.221 408.797 358.153 411.637 356.784 414.243C355.862 415.997 354.734 417.608 354.094 419.495C355.128 418.804 356.02 416.93 356.613 415.849C365.86 398.994 365.24 380.445 359.936 362.356C351.764 334.486 329.872 309.503 304.552 295.76C308.835 294.723 313.206 293.199 317.214 291.392C319.648 293.061 321.974 294.533 324.823 295.396C327.087 296.082 329.652 296.127 332 296.414C336.535 296.968 341.377 298.563 345.377 300.752C340.137 299.92 334.873 300.24 329.606 300.572C332.965 303.987 336.821 308.122 341.465 309.727C344.075 310.629 346.748 311.23 349.282 312.362C353.208 314.116 356.785 316.567 360.365 318.924C355.029 317.535 349.649 316.326 344.301 314.984C347.219 318.26 349.518 322.466 352.832 325.313C354.929 327.116 357.535 328.335 359.917 329.706C363.114 331.546 365.644 333.772 368.078 336.524C364.422 334.934 360.6 333.666 356.903 332.158C358.558 335.835 360.215 339.624 362.755 342.792C364.69 345.205 367.356 346.963 369.585 349.094C371.855 351.267 373.754 353.865 375.687 356.337Q370.932 353.655 365.96 351.401C367.564 355.206 367.871 359.657 369.882 363.269C370.829 364.97 372.246 366.45 373.47 367.953C375.694 370.684 377.451 373.323 378.953 376.51C376.462 374.546 373.839 372.728 371.273 370.861C371.533 374.795 371.442 378.823 372.014 382.725C375.557 386.647 376.887 392.33 378.355 397.271Q375.359 393.256 372.254 389.326C371.542 392.95 371.132 396.629 370.626 400.287C372.657 404.845 373.077 409.847 373.325 414.769C371.738 411.812 370.25 408.791 368.723 405.802C367.529 408.937 365.695 411.98 364.924 415.243C363.763 420.161 365.072 423.149 362.646 428.284C362.481 425.546 362.127 422.879 361.713 420.172C358.528 425.099 356.146 430.53 352.771 435.32C353.062 433.481 353.538 431.677 353.975 429.868C348.393 436.008 340.709 440.807 333.059 443.916C299.157 457.689 266.866 440.562 240.819 419.694C229.54 410.659 218.623 400.056 205.086 394.463C195.578 390.535 185.917 390.098 176.337 394.095C170.672 396.459 165.903 400.384 163.55 406.154C161.1 412.164 161.332 419.238 163.927 425.17C167.986 434.448 176.499 438.144 185.375 441.576Q184.68 441.499 183.99 441.388C174.522 439.903 165.77 435.965 160.091 427.935C155.898 422.007 154.621 414.529 155.884 407.441C157.319 399.391 162.686 392.536 169.334 387.999Q169.995 387.557 170.674 387.143Q171.353 386.729 172.049 386.344Q172.745 385.96 173.457 385.605Q174.169 385.25 174.895 384.927Q175.622 384.603 176.361 384.31Q177.1 384.017 177.852 383.756Q178.603 383.495 179.365 383.267Q180.126 383.038 180.897 382.842Q181.668 382.646 182.446 382.483Q183.225 382.32 184.009 382.19Q184.794 382.06 185.583 381.964Q186.373 381.868 187.166 381.805Q187.958 381.743 188.753 381.714Q189.548 381.685 190.343 381.691Q191.138 381.696 191.933 381.735Q192.727 381.774 193.519 381.847C221.134 384.191 240.909 407.082 263.124 420.956C271.809 426.38 281.15 430.484 291.246 432.415C304.701 434.987 319.989 434.064 331.589 426.075Q332.323 425.57 333.031 425.029Q333.739 424.489 334.42 423.914Q335.101 423.339 335.752 422.731Q336.404 422.123 337.024 421.484Q337.645 420.845 338.233 420.176Q338.822 419.507 339.377 418.81Q339.931 418.113 340.451 417.389Q340.971 416.665 341.454 415.917Q341.937 415.168 342.383 414.397Q342.829 413.625 343.236 412.833Q343.643 412.041 344.011 411.229Q344.379 410.417 344.706 409.589Q345.033 408.76 345.319 407.916Q345.605 407.072 345.849 406.215Q346.093 405.359 346.294 404.491Q346.496 403.623 346.654 402.746C349.805 384.968 337.869 371.038 328.358 357.53C329.511 353.141 332.014 349.66 334.261 345.791C332.957 346.936 331.742 348.122 330.621 349.449C326.506 354.316 323.501 361.516 324.183 367.983C324.697 372.855 327.905 375.717 331.509 378.563C321.142 381.947 312.574 387.861 304.916 395.601C301.787 399.185 301.186 401.913 301.143 406.515C299.27 404.666 297.048 403.005 294.526 402.17C292.07 401.357 289.371 401.451 287.088 402.728C283.726 404.61 282.821 407.945 281.907 411.405C280.739 408.676 279.383 405.538 280.011 402.514C280.646 399.459 283.117 397.784 285.518 396.141C284.075 396.286 282.439 396.339 281.088 396.895C277.39 398.417 276.25 402.332 274.779 405.701C274.496 403.344 274.135 400.943 274.343 398.565C274.546 396.251 275.33 393.88 277.246 392.427C281.053 389.537 287.801 391.346 292.155 392.011C293.25 391.583 294.358 391.156 295.407 390.625C300.118 388.245 305.227 384.304 306.784 379.046C307.391 376.998 307.516 374.863 306.942 372.793C305.233 366.635 296.98 359.128 293.651 352.843C288.035 342.242 288.627 335.92 292.012 324.836C287.779 330.272 287.49 335.721 287.473 342.339C278.155 340.396 270.112 336.958 261.707 332.625C264.522 331.112 267.192 329.323 269.522 327.127C271.263 325.487 272.434 323.885 272.429 321.397C272.427 320.393 272.232 319.388 271.971 318.423C271.202 315.58 269.891 312.867 269.061 310.031C268.722 308.872 268.586 306.398 267.799 305.597C267.498 311.058 270.051 316.285 270.532 321.689C268.449 324.922 265.423 327.307 262.334 329.522C248.935 339.133 241.857 340.374 234.359 356.352L237.023 361.721C234.032 360.356 230.675 358.605 227.318 358.566C225.447 358.545 223.637 359.08 222.301 360.436C220.18 362.591 219.99 365.67 219.949 368.512C219.016 366.883 218.037 365.205 217.628 363.355C216.838 359.788 218.507 357.065 220.339 354.187C219.277 354.507 218.123 354.811 217.13 355.307C213.945 356.9 213.07 360.428 211.948 363.509C211.767 360.946 211.255 358.289 211.685 355.733C212.966 348.112 220.765 353.149 226.56 349.102C234.546 343.526 246.048 327.236 249.61 318.009C251.338 313.532 252.036 308.789 252.875 304.087C252.829 304.17 252.782 304.252 252.737 304.335C252.664 304.475 252.594 304.616 252.52 304.756C251.172 307.313 250.63 310.361 249.764 313.116Q248.028 318.693 245.181 323.793C240.538 317.464 236.082 311.096 231.943 304.423C232.142 304.334 232.339 304.241 232.539 304.154C238.518 301.575 243.109 295.23 245.58 289.383C240.213 295.208 238.794 298.557 231.698 303.161C230.147 299.556 228.881 295.851 228.795 291.888C228.578 281.989 237.635 268.149 241.436 258.676C242.944 254.918 242.746 251.183 243.908 247.428C244.618 246.6 245.769 246.65 246.751 246.322C249.138 245.525 253.149 239.622 254.202 237.382C254.264 237.25 254.323 237.117 254.384 236.985C251.29 240.546 248.541 243.414 244.383 245.693C244.474 242.74 244.26 240.172 243.527 237.304C244.835 236.611 246.171 235.833 247.552 235.301C253 233.198 257.435 235.219 262.408 237.423C260.46 235.424 258.334 233.464 257.099 230.92C256.315 229.305 255.976 227.391 256.622 225.669C258.412 220.905 267.898 217.847 272.141 215.944C269.649 215.785 267.018 215.368 264.781 214.202C262.801 213.169 261.297 211.553 260.658 209.39C259.418 205.192 261.675 201.182 263.661 197.645C256.437 203.31 248.433 211.704 242.396 218.658C250.619 216.278 259.78 215.836 268.245 216.716C260.492 218.875 252.35 219.754 244.483 221.467C245.109 223.295 245.516 225.109 245.895 227.002C250.219 229.123 254.28 231.556 258.248 234.28C253.165 232.401 247.437 231.54 242.16 230.256Q240.939 233.93 239.492 237.521C231.589 239.614 226.214 240.707 221.902 248.343C220.986 249.963 219.989 251.558 218.326 252.517C217.728 252.862 216.813 253.449 216.136 253.284L216.462 251.49C216.367 251.248 216.35 250.958 216.176 250.765C215.738 250.276 210.18 249.856 208.728 249.071C209.623 248.184 211.623 247.868 212.824 247.407C214.795 246.649 216.109 244.898 216.906 242.989C217.573 241.39 217.787 239.852 217.088 238.241L216.569 238.039C216.471 238.127 216.365 238.207 216.276 238.304C215.077 239.61 215.275 241.704 215.234 243.363C214.934 241.969 214.672 239.336 213.484 238.527C212.549 239.087 212.245 240.376 211.759 241.357C210.955 241.498 210.901 240.452 209.991 240.213C209.078 241.109 208.757 242.651 208.353 243.846C207.774 242.957 207.301 242.326 206.454 241.681L205.952 241.814C205.67 242.91 205.427 243.818 204.821 244.781C204.336 244.549 203.911 244.379 203.386 244.26C203.312 244.326 203.227 244.381 203.163 244.457C202.16 245.646 202.478 248.384 202.493 249.871C201.467 248.827 200.48 247.762 199.874 246.413C198.143 242.557 198.592 237.648 200.128 233.772C200.583 232.624 201.215 231.531 202.437 231.097C203.739 230.634 206.196 232.343 207.347 232.967C211.021 231.073 213.301 228.504 215.926 225.385C214.907 224.714 213.985 223.916 213.043 223.142C216.039 217.914 221.672 216.313 225.894 212.429C228.999 209.571 230.504 205.413 233.541 202.464C237.244 198.869 242.052 196.371 246.149 193.243C254.682 186.727 258.779 177.97 264.198 169.068C260.671 181.345 254.523 191.698 244.694 199.975C241.75 202.454 238.044 204.337 235.382 207.079C235.319 207.144 235.257 207.212 235.195 207.278C238.539 205.65 241.803 203.8 245.104 202.08C255.936 196.436 266.685 190.709 274.045 180.59C276.836 176.752 278.845 172.467 280.931 168.225C278.624 178.251 272.796 187.223 265.289 194.119C265.037 195.406 264.61 196.508 264.103 197.715C267.455 197.131 270.804 196.266 274.132 195.539C271.621 196.9 268.938 198.018 267.052 200.267C266.308 201.154 265.724 202.307 265.931 203.499C266.885 208.993 281.857 210.675 286.002 211.756C288.785 212.483 291.334 213.438 293.834 214.862C292.394 214.513 290.947 214.155 289.481 213.934C286.352 213.465 281.985 213.358 279.4 215.408C278.654 216 277.71 216.954 277.738 217.98C277.823 221.028 287.875 227.8 290.205 229.765C292.32 231.549 294.247 233.557 296.17 235.543C293.09 234.15 289.507 232.277 286.091 231.989C284.941 231.892 284.106 231.999 283.188 232.759C281.386 236.057 288.146 245.29 289.775 248.677C291.029 251.282 291.846 253.961 292.648 256.728C290.562 253.882 288.036 250.489 284.676 249.108C283.655 248.689 282.396 248.395 281.372 248.981C280.803 249.307 280.398 249.892 280.209 250.51C278.236 256.95 283.063 265.566 285.855 271.043C285.051 270.231 284.288 269.379 283.51 268.543C281.769 266.669 279.394 263.47 276.662 263.369C275.989 263.746 275.73 263.957 275.537 264.736C274.949 267.113 276.001 270.623 277.307 272.62C279.139 275.422 282.086 276.84 285.3 277.418C291.569 278.546 297.803 276.019 302.838 272.426C312.094 265.82 317.486 254.693 319.254 243.673C321.763 228.04 317.314 212.781 308.122 200.09C316.385 192.19 324.207 184.271 333.293 177.246C367.95 150.453 415.946 130.838 460.126 129.892Z"/>
	<path fill="#FEFEFE" transform="matrix(1.2736 0 0 1.2736 0 -0.000244141)" d="M384.064 168.075C389.476 167.372 394.409 167.56 399.821 168.192C394.955 168.944 389.965 168.873 385.061 169.36C380.664 169.66 375.989 170.85 371.72 171.946C352.249 176.948 336.915 186.053 320.1 196.656C321.195 196.728 322.294 196.758 323.389 196.827C327.567 197.091 331.788 197.879 335.904 198.632C361.945 203.396 386.237 215.017 407.711 230.264C412.804 233.88 418.506 237.681 422.644 242.383C416.608 238.692 411.398 233.696 405.304 229.943C384.489 217.127 360.648 207.244 336.506 203.062C329.156 201.789 321.648 201.326 314.242 200.417C317.811 197.005 321.825 194.111 325.829 191.238C343.495 178.564 362.509 171 384.064 168.075Z"/>
	<path fill="#FEFEFE" transform="matrix(1.2736 0 0 1.2736 0 -0.000244141)" d="M314.984 201.847C317.023 202.065 319.231 203.261 320.983 204.296C326.289 207.431 331.043 211.807 335.548 215.991C355.297 234.333 374.447 260.732 381.389 287.031C378.215 282.118 375.417 273.968 372.241 268.332C361.666 249.564 348.513 233.344 332.847 218.599C329.064 215.056 324.968 211.878 320.891 208.686C322.924 213.947 325.058 219.201 326.082 224.772C328.71 239.073 325.278 256.138 316.915 268.081C311.454 275.881 303.348 281.66 293.866 283.231C292.41 283.472 290.143 283.931 288.887 283.025C290.286 282.273 293.719 282.397 295.464 282.009C297.985 281.449 300.489 280.251 302.748 279.024C312.75 273.587 319.368 263.145 322.453 252.424C325.744 240.984 325.961 227.769 321.981 216.455C320.19 211.362 317.605 206.552 314.984 201.847Z"/>
	<path fill="#FEFEFE" transform="matrix(1.2736 0 0 1.2736 0 -0.000244141)" d="M262.997 195.948L263.198 196.123C261.701 198.99 250.11 207.419 246.744 210.538C242.969 214.036 239.614 217.777 236.529 221.896C236.133 221.24 236.238 221.065 236.392 220.329C237.822 213.532 257.041 199.847 262.997 195.948Z"/>
	<path fill="#FEFEFE" transform="matrix(1.2736 0 0 1.2736 0 -0.000244141)" d="M249.682 269.704L250.061 269.997C249.545 271.126 248.468 272.031 247.602 272.916C243.01 277.614 238.338 280.776 232.508 283.718C231.97 283.466 232.024 283.382 231.75 282.887C232.373 281.349 238.922 278.477 240.696 277.329C244.025 275.175 246.82 272.422 249.682 269.704Z"/>
	<path fill="#00356A" transform="matrix(1.2736 0 0 1.2736 0 -0.000244141)" d="M442.032 149.826C444.876 152.001 447.529 154.506 450.205 156.89C480.294 183.683 501.619 221.68 510.527 260.864Q511.11 263.359 511.631 265.869Q512.152 268.378 512.611 270.899Q513.07 273.421 513.466 275.953Q513.862 278.484 514.195 281.025Q514.529 283.566 514.799 286.115Q515.07 288.663 515.277 291.218Q515.484 293.772 515.628 296.331Q515.772 298.889 515.853 301.451Q515.933 304.012 515.95 306.575Q515.967 309.138 515.921 311.7Q515.875 314.262 515.765 316.823Q515.655 319.383 515.482 321.94Q515.309 324.497 515.073 327.049Q514.837 329.6 514.537 332.146Q514.238 334.691 513.875 337.228Q513.513 339.765 513.088 342.292Q512.663 344.819 512.176 347.335Q511.688 349.851 511.139 352.354Q510.589 354.857 509.978 357.346Q509.366 359.835 508.693 362.308Q508.021 364.781 507.287 367.236Q506.553 369.691 505.759 372.128Q504.964 374.564 504.11 376.981Q503.255 379.397 502.341 381.791Q501.427 384.185 500.455 386.556Q499.482 388.927 498.45 391.273Q497.419 393.619 496.33 395.939Q495.241 398.258 494.094 400.551Q492.948 402.843 491.745 405.106Q490.543 407.369 489.285 409.601Q488.026 411.834 486.713 414.035Q485.4 416.235 484.033 418.403Q482.656 420.585 481.225 422.733Q479.795 424.881 478.312 426.993Q476.829 429.105 475.295 431.18Q473.761 433.256 472.176 435.292Q470.592 437.329 468.958 439.326Q467.323 441.324 465.641 443.28Q463.958 445.237 462.228 447.152Q460.498 449.066 458.721 450.938Q456.944 452.809 455.122 454.637Q453.3 456.464 451.434 458.246Q449.567 460.029 447.658 461.764Q445.748 463.5 443.796 465.189Q441.845 466.877 439.852 468.517Q437.86 470.157 435.827 471.748Q433.795 473.338 431.725 474.878Q429.654 476.419 427.546 477.907Q425.438 479.396 423.295 480.833Q421.151 482.27 418.973 483.653Q416.794 485.037 414.583 486.367Q412.371 487.697 410.128 488.972Q407.884 490.247 405.61 491.466Q403.335 492.686 401.032 493.849Q398.728 495.013 396.397 496.119Q394.066 497.226 391.708 498.275Q389.35 499.324 386.967 500.315Q384.584 501.305 382.178 502.237Q379.771 503.169 377.343 504.042Q374.914 504.915 372.465 505.727Q370.016 506.54 367.547 507.292Q365.079 508.045 362.592 508.736Q360.106 509.428 357.604 510.058Q355.101 510.688 352.584 511.257Q350.109 511.8 347.621 512.282Q345.133 512.765 342.635 513.187Q340.136 513.609 337.628 513.97Q335.12 514.332 332.604 514.632Q330.088 514.933 327.565 515.172Q325.042 515.411 322.514 515.589Q319.986 515.767 317.455 515.884Q314.924 516 312.39 516.055Q309.857 516.111 307.323 516.104Q304.789 516.098 302.256 516.03Q299.723 515.963 297.192 515.833Q294.661 515.704 292.134 515.514Q289.607 515.323 287.086 515.071Q284.564 514.819 282.05 514.506Q279.535 514.194 277.029 513.82Q274.522 513.446 272.026 513.011Q269.529 512.577 267.044 512.082Q264.559 511.587 262.086 511.032Q259.614 510.477 257.155 509.862Q254.697 509.247 252.254 508.573Q249.812 507.899 247.386 507.165Q244.961 506.432 242.554 505.64Q240.146 504.848 237.759 503.998Q235.372 503.147 233.006 502.239Q230.64 501.332 228.297 500.367Q225.954 499.402 223.635 498.38Q221.316 497.359 219.023 496.281Q216.729 495.204 214.462 494.071Q212.196 492.938 209.957 491.751Q207.718 490.563 205.509 489.322Q203.3 488.08 201.122 486.786Q198.943 485.491 196.797 484.144Q194.622 482.765 192.481 481.332Q190.34 479.9 188.236 478.416Q186.131 476.931 184.063 475.396Q181.995 473.86 179.965 472.274Q177.936 470.689 175.945 469.054Q173.955 467.419 172.006 465.735Q170.056 464.052 168.149 462.321Q166.241 460.591 164.376 458.814Q162.512 457.037 160.691 455.215Q158.871 453.393 157.096 451.527Q155.32 449.66 153.591 447.751Q151.862 445.842 150.181 443.891Q148.499 441.94 146.866 439.949Q145.232 437.957 143.648 435.926Q142.064 433.895 140.531 431.826Q138.997 429.757 137.514 427.65Q136.032 425.544 134.601 423.402Q133.171 421.26 131.793 419.084Q130.416 416.908 129.092 414.698Q127.768 412.489 126.499 410.247Q125.23 408.006 124.016 405.735Q122.802 403.463 121.644 401.162Q120.486 398.861 119.385 396.533Q118.284 394.204 117.241 391.85Q116.197 389.495 115.211 387.115Q114.226 384.736 113.299 382.332Q112.372 379.929 111.504 377.504Q110.636 375.079 109.828 372.634Q109.02 370.188 108.272 367.723Q107.524 365.258 106.837 362.776Q106.15 360.294 105.524 357.795Q104.898 355.297 104.333 352.784Q103.791 350.299 103.31 347.802Q102.829 345.305 102.408 342.797Q101.988 340.288 101.63 337.771Q101.271 335.253 100.974 332.727Q100.677 330.201 100.441 327.669Q100.206 325.137 100.032 322.6Q99.8587 320.062 99.7472 317.522Q99.6357 314.981 99.5862 312.438Q99.5368 309.895 99.5495 307.352Q99.5621 304.809 99.6369 302.267Q99.7116 299.725 99.8484 297.186Q99.9852 294.646 100.184 292.111Q100.383 289.575 100.643 287.045Q100.904 284.516 101.226 281.993Q101.548 279.47 101.932 276.956Q102.316 274.442 102.761 271.938Q103.206 269.434 103.712 266.942Q104.218 264.45 104.785 261.97Q105.352 259.491 105.979 257.027Q106.606 254.562 107.293 252.113Q107.98 249.665 108.727 247.234Q109.474 244.803 110.279 242.39Q111.085 239.978 111.95 237.587Q112.814 235.195 113.737 232.825Q114.659 230.455 115.64 228.108Q116.62 225.762 117.657 223.44Q118.694 221.118 119.788 218.822Q120.882 216.525 122.031 214.257Q123.18 211.988 124.385 209.748Q125.589 207.508 126.848 205.299Q128.106 203.089 129.419 200.91Q130.731 198.732 132.096 196.586Q133.479 194.41 134.914 192.269Q136.35 190.127 137.837 188.022Q139.325 185.916 140.864 183.848Q142.402 181.78 143.992 179.75Q145.581 177.72 147.219 175.729Q148.858 173.739 150.544 171.79Q152.231 169.84 153.965 167.932Q155.7 166.025 157.48 164.16Q159.26 162.296 161.086 160.476Q162.912 158.656 164.781 156.881Q166.651 155.106 168.564 153.378Q170.477 151.649 172.431 149.968Q174.386 148.287 176.381 146.655Q178.376 145.022 180.411 143.439Q182.446 141.856 184.519 140.324Q186.592 138.791 188.702 137.31Q190.812 135.828 192.957 134.399Q195.103 132.97 197.283 131.594Q199.463 130.218 201.676 128.896Q203.89 127.574 206.135 126.307Q208.379 125.039 210.655 123.828Q212.93 122.616 215.235 121.46Q217.539 120.304 219.871 119.206Q222.203 118.107 224.562 117.066Q226.92 116.024 229.303 115.041Q231.687 114.058 234.093 113.134Q236.5 112.21 238.928 111.345Q241.357 110.48 243.806 109.675Q246.255 108.87 248.723 108.125Q251.191 107.38 253.677 106.697Q256.163 106.013 258.664 105.39Q261.166 104.767 263.682 104.206Q266.137 103.679 268.604 103.211Q271.072 102.743 273.549 102.334Q276.027 101.926 278.514 101.578Q281.001 101.229 283.495 100.941Q285.99 100.653 288.491 100.424Q290.991 100.196 293.497 100.029Q296.003 99.8611 298.511 99.7539Q301.02 99.6467 303.531 99.6001Q306.042 99.5535 308.553 99.5674Q311.064 99.5814 313.574 99.6559Q316.084 99.7304 318.592 99.8655Q321.099 100.001 323.603 100.196Q326.106 100.392 328.604 100.647Q331.102 100.903 333.594 101.219Q336.085 101.535 338.568 101.911Q341.05 102.287 343.523 102.723Q345.996 103.159 348.458 103.654Q350.92 104.15 353.369 104.704Q355.818 105.259 358.253 105.872Q360.688 106.486 363.108 107.158Q365.528 107.83 367.93 108.56Q370.333 109.291 372.717 110.079Q375.102 110.867 377.466 111.712Q379.831 112.557 382.174 113.459Q384.518 114.362 386.839 115.32Q389.16 116.278 391.457 117.292Q393.755 118.306 396.027 119.376Q398.299 120.445 400.545 121.569Q402.79 122.692 405.008 123.87Q407.226 125.047 409.415 126.278Q411.604 127.509 413.762 128.792Q415.921 130.075 418.048 131.41C416.068 131.894 414.07 132.317 412.081 132.764C405.209 129.515 398.675 125.649 391.731 122.491C366.947 111.221 339.594 104.173 312.243 104.405C308.021 109.561 303.549 114.509 299.843 120.064C295.284 115.067 290.475 110.261 285.681 105.49C280.72 105.799 275.684 106.845 270.799 107.732Q267.711 108.307 264.642 108.977Q261.573 109.646 258.525 110.407Q255.478 111.169 252.455 112.024Q249.432 112.878 246.437 113.823Q243.441 114.769 240.476 115.805Q237.511 116.841 234.578 117.967Q231.646 119.092 228.749 120.307Q225.852 121.521 222.993 122.823Q220.134 124.124 217.316 125.512Q214.498 126.9 211.724 128.373Q208.949 129.846 206.221 131.402Q203.492 132.959 200.812 134.597Q198.133 136.236 195.504 137.955Q192.875 139.675 190.299 141.473Q187.724 143.271 185.204 145.147Q182.685 147.023 180.223 148.974C176.009 152.357 171.081 156.067 167.562 160.169C167.317 160.456 167.301 160.493 167.12 160.764C168.736 167.593 169.037 174.762 170.331 181.668C163.385 181.375 156.174 181.218 149.276 180.447C144.559 185.325 140.747 191.29 137.047 196.948Q135.411 199.428 133.85 201.955Q132.289 204.482 130.803 207.055Q129.317 209.627 127.908 212.242Q126.499 214.858 125.169 217.514Q123.838 220.169 122.586 222.864Q121.335 225.558 120.163 228.288Q118.992 231.018 117.902 233.781Q116.812 236.545 115.805 239.339Q114.797 242.134 113.873 244.957Q112.949 247.78 112.108 250.63Q111.268 253.479 110.512 256.352Q109.757 259.225 109.087 262.119Q108.417 265.013 107.833 267.926Q107.249 270.838 106.751 273.767Q106.253 276.696 105.843 279.638Q105.432 282.58 105.109 285.533C104.558 290.719 103.845 296.618 104.202 301.828C104.207 301.901 104.226 301.972 104.238 302.044C109.158 306.895 114.122 311.66 119.349 316.186C115.043 321.356 110.551 327.18 105.215 331.345C106.741 340.748 108.119 350.082 110.432 359.339C116.784 384.76 129.052 409.389 144.85 430.238C149.782 436.747 155.406 444.247 161.804 449.393C168.943 447.509 176.452 446.667 183.747 445.568C182.802 450.906 181.474 461.552 179.682 466.101C185.085 470.994 191.143 474.904 197.255 478.833C223.649 495.803 252.564 506.035 283.655 510C289.49 510.744 295.753 511.893 301.626 511.608Q302.818 511.548 304.005 511.427C305.242 509.404 307.063 507.493 308.557 505.638Q312.437 500.86 316.166 495.964C320.282 501.105 326.014 505.013 329.859 510.375C338.512 508.705 347.19 507.89 355.801 505.819C391.315 497.28 422.613 478.787 449.182 454.006C446.816 448.43 445.62 439.08 444.553 433.046C447.377 433.35 450.25 433.337 453.085 433.573C457.554 433.947 462.025 434.533 466.486 435.009Q468.719 432.277 470.852 429.468Q472.985 426.658 475.017 423.774Q477.049 420.889 478.976 417.934Q480.903 414.979 482.723 411.957Q484.543 408.935 486.254 405.85Q487.965 402.765 489.564 399.62Q491.164 396.476 492.65 393.276Q494.136 390.076 495.506 386.825Q496.877 383.575 498.13 380.277Q499.384 376.979 500.518 373.639Q501.653 370.298 502.667 366.919Q503.682 363.54 504.575 360.127Q505.468 356.714 506.238 353.272Q507.008 349.829 507.655 346.361Q508.302 342.893 508.824 339.404Q509.346 335.914 509.743 332.409C510.468 326.312 511.669 318.029 511.327 311.963C505.58 309.106 500.911 303.453 495.639 299.724C500.73 295.503 505.381 290.441 510.105 285.805C508.741 275.722 507.271 265.664 504.744 255.795C496.256 222.641 478.351 190.384 453.796 166.462C447.538 167.599 441.357 168.762 435.233 170.491C434.921 166.504 434.624 162.493 433.954 158.548C435.546 156.475 437.397 154.558 439.342 152.815C440.127 151.742 441.121 150.795 442.032 149.826Z"/>
	<path fill="#CE0000" transform="matrix(1.2736 0 0 1.2736 0 -0.000244141)" d="M444.553 433.046C447.377 433.35 450.25 433.337 453.085 433.573C457.554 433.947 462.025 434.533 466.486 435.009C463.186 440.364 454.394 450.254 449.182 454.006C446.816 448.43 445.62 439.08 444.553 433.046Z"/>
	<path fill="#CE0000" transform="matrix(1.2736 0 0 1.2736 0 -0.000244141)" d="M104.238 302.044C109.158 306.895 114.122 311.66 119.349 316.186C115.043 321.356 110.551 327.18 105.215 331.345C103.422 322.616 103.27 310.918 104.238 302.044Z"/>
	<path fill="#CE0000" transform="matrix(1.2736 0 0 1.2736 0 -0.000244141)" d="M161.804 449.393C168.943 447.509 176.452 446.667 183.747 445.568C182.802 450.906 181.474 461.552 179.682 466.101C173.595 460.703 167.237 455.466 161.804 449.393Z"/>
	<path fill="#CE0000" transform="matrix(1.2736 0 0 1.2736 0 -0.000244141)" d="M167.12 160.764C168.736 167.593 169.037 174.762 170.331 181.668C163.385 181.375 156.174 181.218 149.276 180.447C152.059 176.345 163.441 164.015 167.12 160.764Z"/>
	<path fill="#CE0000" transform="matrix(1.2736 0 0 1.2736 0 -0.000244141)" d="M495.639 299.724C500.73 295.503 505.381 290.441 510.105 285.805C511.191 294.456 511.133 303.255 511.327 311.963C505.58 309.106 500.911 303.453 495.639 299.724Z"/>
	<path fill="#CE0000" transform="matrix(1.2736 0 0 1.2736 0 -0.000244141)" d="M316.166 495.964C320.282 501.105 326.014 505.013 329.859 510.375C321.199 511.199 312.703 511.429 304.005 511.427C305.242 509.404 307.063 507.493 308.557 505.638Q312.437 500.86 316.166 495.964Z"/>
	<path fill="#CE0000" transform="matrix(1.2736 0 0 1.2736 0 -0.000244141)" d="M285.681 105.49C294.504 104.599 303.385 104.625 312.243 104.405C308.021 109.561 303.549 114.509 299.843 120.064C295.284 115.067 290.475 110.261 285.681 105.49Z"/>
	<path fill="#CE0000" transform="matrix(1.2736 0 0 1.2736 0 -0.000244141)" d="M433.954 158.548C435.546 156.475 437.397 154.558 439.342 152.815C444.194 156.994 450.032 161.288 453.796 166.462C447.538 167.599 441.357 168.762 435.233 170.491C434.921 166.504 434.624 162.493 433.954 158.548Z"/>
	<path fill="#00356A" transform="matrix(1.2736 0 0 1.2736 0 -0.000244141)" d="M399.96 127.995C399.756 128.916 396.869 130.707 396 131.408C394.39 132.708 392.759 134.126 391.472 135.754C389.562 138.168 388.109 141.127 385.528 142.931C382.175 145.274 377.691 146.521 373.946 148.174C370.802 149.562 367.759 151.235 364.72 152.837C342.429 164.59 320.059 180.28 304.166 200.042C310.226 208.202 315.184 218.412 316.389 228.559C317.761 240.126 314.919 253.949 307.594 263.213C303.025 268.99 296.418 272.971 289.022 273.795Q290.758 272.491 292.317 270.978C301.325 262.372 306.332 248.186 306.578 235.905C306.841 222.796 302.605 211.13 293.476 201.662C296.275 198.908 298.574 195.245 300.928 192.088Q306.164 184.982 311.969 178.332Q313.025 177.111 314.107 175.913Q315.189 174.714 316.297 173.539Q317.404 172.364 318.535 171.212Q319.667 170.061 320.823 168.934Q321.978 167.806 323.158 166.703Q324.337 165.601 325.539 164.523Q326.741 163.445 327.966 162.393Q329.191 161.341 330.438 160.315Q331.684 159.29 332.952 158.29Q334.22 157.291 335.509 156.318Q336.798 155.346 338.107 154.401Q339.416 153.456 340.745 152.539Q342.074 151.622 343.422 150.733Q344.77 149.844 346.136 148.984Q347.502 148.124 348.886 147.293Q350.271 146.462 351.672 145.66Q353.073 144.859 354.491 144.087Q355.91 143.315 357.344 142.573Q358.778 141.831 360.227 141.12Q361.676 140.408 363.14 139.728Q364.604 139.047 366.082 138.397Q367.561 137.748 369.052 137.13Q370.544 136.511 372.048 135.925Q373.552 135.338 375.068 134.784Q376.584 134.229 378.112 133.706Q379.64 133.184 381.178 132.694Q382.716 132.203 384.265 131.746Q385.813 131.288 387.371 130.863Q388.928 130.439 390.495 130.047Q392.061 129.655 393.635 129.296Q395.209 128.938 396.791 128.612Q398.372 128.287 399.96 127.995Z"/>
	<path fill="#CE0000" transform="matrix(1.2736 0 0 1.2736 0 -0.000244141)" d="M433.394 174.751C434.675 175.302 436.168 176.989 437.197 177.959C442.403 182.868 447.119 188.57 451.543 194.181C474.461 223.25 489.642 259.964 490.774 297.217Q486.436 297.374 482.101 297.595L477.813 297.83Q477.758 296.633 477.681 295.438C475.106 255.418 455.33 211.353 424.962 184.715Q429.226 179.773 433.394 174.751Z"/>
	<path fill="#CE0000" transform="matrix(1.2736 0 0 1.2736 0 -0.000244141)" d="M490.743 302.563L491.131 302.689C491.279 303.077 491.321 303.139 491.396 303.611C492.18 308.576 490.986 320.596 490.424 325.837C486.199 365.244 470.488 399.142 444.877 429.153C443.474 427.524 441.689 426.129 440.075 424.705Q437.754 422.602 435.374 420.566C440.479 413.728 446.085 407.522 450.754 400.331Q452.224 398.084 453.621 395.791Q455.018 393.498 456.341 391.161Q457.664 388.824 458.911 386.446Q460.158 384.068 461.328 381.651Q462.499 379.235 463.591 376.782Q464.683 374.329 465.695 371.842Q466.708 369.355 467.641 366.837Q468.573 364.319 469.424 361.772Q470.276 359.225 471.045 356.653Q471.814 354.08 472.5 351.484Q473.186 348.888 473.788 346.271Q474.391 343.654 474.909 341.02Q475.427 338.385 475.861 335.735Q476.294 333.085 476.642 330.422Q476.99 327.76 477.253 325.088Q477.515 322.415 477.692 319.736C478.051 314.118 478.28 308.649 477.895 303.024C482.191 303.091 486.457 302.819 490.743 302.563Z"/>
	<path fill="#CE0000" transform="matrix(1.2736 0 0 1.2736 0 -0.000244141)" d="M431.604 424.713C435.14 426.496 438.286 430.23 441.153 432.952C435.138 439.865 428.123 445.858 420.908 451.48Q418.383 453.467 415.789 455.365Q413.196 457.263 410.538 459.069Q407.88 460.874 405.16 462.586Q402.44 464.298 399.662 465.913Q396.884 467.529 394.051 469.046Q391.218 470.563 388.334 471.98Q385.45 473.397 382.518 474.713Q379.586 476.028 376.61 477.24Q373.633 478.452 370.617 479.559Q367.6 480.666 364.546 481.666Q361.492 482.667 358.405 483.56Q355.318 484.453 352.202 485.238Q349.086 486.022 345.944 486.698Q342.802 487.373 339.639 487.937Q336.475 488.502 333.294 488.955Q330.112 489.409 326.917 489.751Q322.492 490.229 318.051 490.531C317.902 486.357 317.543 482.175 317.335 478.001C328.679 477.198 339.915 475.001 350.902 472.124C385.247 463.131 406.446 448.976 431.604 424.713Z"/>
	<path fill="#CE0000" transform="matrix(1.2736 0 0 1.2736 0 -0.000244141)" d="M194.853 435.637C197.613 436.541 202.376 441.509 204.998 443.459Q209.844 447.026 214.917 450.262Q217.64 452.009 220.425 453.656Q223.21 455.302 226.053 456.845Q228.897 458.388 231.795 459.826Q234.693 461.264 237.642 462.594Q240.591 463.925 243.587 465.146Q246.583 466.367 249.622 467.478Q252.66 468.589 255.738 469.587Q258.815 470.585 261.927 471.47Q265.039 472.355 268.181 473.125Q271.323 473.895 274.491 474.55Q277.66 475.204 280.85 475.742Q284.04 476.279 287.248 476.7Q290.456 477.12 293.677 477.422Q296.898 477.725 300.128 477.909Q303.358 478.093 306.593 478.158Q309.827 478.223 313.062 478.17Q313.222 484.593 313.595 491.007C311.115 491.022 308.645 490.93 306.167 490.83Q302.962 490.786 299.76 490.632Q296.558 490.478 293.363 490.213Q290.169 489.948 286.985 489.573Q283.802 489.198 280.633 488.713Q277.464 488.228 274.314 487.635Q271.164 487.041 268.036 486.338Q264.909 485.636 261.807 484.826Q258.706 484.016 255.634 483.1Q252.562 482.183 249.524 481.161Q246.486 480.139 243.485 479.013Q240.483 477.886 237.523 476.657Q234.562 475.428 231.646 474.097Q228.73 472.766 225.861 471.335Q222.993 469.905 220.175 468.376Q217.358 466.847 214.595 465.221Q211.832 463.596 209.127 461.876Q202.753 457.903 196.767 453.368C193.591 450.964 190.445 448.245 187.061 446.153C186.965 446.094 186.869 446.036 186.772 445.978C189.52 442.569 192.26 439.166 194.853 435.637Z"/>
	<path fill="#CE0000" transform="matrix(1.2736 0 0 1.2736 0 -0.000244141)" d="M293.306 125.605L297.755 125.339C297.94 129.595 298.299 133.848 298.498 138.106C265.84 138.949 232.297 151.911 206.232 171.411C198.324 177.327 191.184 184.269 183.855 190.877L181.702 188.933Q178.203 185.872 174.906 182.594C194.741 159.91 228.203 140.416 257.035 132.146C268.998 128.714 280.952 126.852 293.306 125.605Z"/>
	<path fill="#CE0000" transform="matrix(1.2736 0 0 1.2736 0 -0.000244141)" d="M171.362 186.022C174.759 188.568 177.778 191.559 180.912 194.414C175.596 201.429 169.804 207.947 164.942 215.323C146.33 243.555 135.599 278.425 137.072 312.336L133.881 312.326Q129.099 312.467 124.326 312.797C123.967 305.243 124.594 297.602 125.392 290.093Q125.774 286.5 126.295 282.924Q126.816 279.348 127.475 275.796Q128.134 272.243 128.93 268.718Q129.727 265.194 130.659 261.703Q131.591 258.211 132.658 254.759Q133.724 251.307 134.924 247.898Q136.124 244.49 137.455 241.13Q138.786 237.771 140.246 234.466Q141.706 231.16 143.293 227.914Q144.88 224.668 146.591 221.485Q148.303 218.303 150.136 215.189Q151.97 212.076 153.923 209.036Q155.876 205.995 157.945 203.033Q160.014 200.071 162.196 197.191Q164.379 194.311 166.671 191.518Q168.963 188.724 171.362 186.022Z"/>
	<path fill="#00356A" transform="matrix(1.2736 0 0 1.2736 0 -0.000244141)" d="M423.246 188.087C423.563 188.275 423.844 188.448 424.132 188.68C429.069 192.657 433.378 198.496 437.311 203.457C458.294 229.925 470.153 260.6 473.394 294.155C477.547 337.158 463.117 380.824 435.754 413.973Q434.438 415.544 433.084 417.082Q431.73 418.621 430.339 420.126Q428.948 421.631 427.521 423.101Q426.094 424.572 424.631 426.007Q423.168 427.442 421.67 428.841Q420.173 430.24 418.641 431.602Q417.11 432.964 415.546 434.288Q413.982 435.612 412.386 436.897Q410.79 438.183 409.163 439.429Q407.536 440.675 405.879 441.881Q404.222 443.087 402.536 444.252Q400.85 445.417 399.136 446.541Q397.422 447.664 395.682 448.745Q393.941 449.827 392.174 450.865Q390.407 451.904 388.616 452.899Q386.824 453.893 385.009 454.844Q383.193 455.795 381.355 456.701Q379.517 457.608 377.658 458.469Q375.798 459.33 373.918 460.145Q372.038 460.96 370.138 461.729Q368.239 462.499 366.321 463.221Q364.403 463.943 362.468 464.619Q360.533 465.294 358.583 465.922Q356.632 466.55 354.666 467.13Q352.701 467.71 350.722 468.242Q348.742 468.774 346.751 469.257Q344.759 469.74 342.757 470.175Q340.754 470.609 338.741 470.995Q336.728 471.38 334.707 471.716Q332.685 472.052 330.656 472.339Q328.627 472.625 326.591 472.862Q324.556 473.099 322.515 473.286C287.545 476.592 250.769 467.61 220.834 449.341C213.288 444.735 206.397 439.496 199.593 433.865C198.953 433.422 198.48 433.066 197.978 432.458C198.12 431.42 198.81 431.004 199.526 430.261C215.302 444.737 235.646 455.646 255.936 462.219C298.034 475.856 341.446 473.754 381.161 453.454Q382.97 452.549 384.756 451.599Q386.541 450.649 388.303 449.655Q390.065 448.661 391.801 447.624Q393.538 446.586 395.248 445.506Q396.958 444.426 398.641 443.304Q400.324 442.182 401.979 441.019Q403.633 439.855 405.259 438.651Q406.884 437.447 408.479 436.203Q410.074 434.959 411.637 433.676Q413.201 432.392 414.732 431.071Q416.263 429.749 417.761 428.39Q419.259 427.031 420.723 425.635Q422.187 424.239 423.616 422.808Q425.045 421.376 426.438 419.909Q427.831 418.442 429.187 416.942Q430.543 415.441 431.861 413.907Q433.18 412.373 434.46 410.807Q435.74 409.241 436.981 407.643Q438.222 406.046 439.423 404.418Q440.623 402.791 441.784 401.134Q442.944 399.477 444.062 397.792Q445.181 396.106 446.258 394.394Q447.334 392.682 448.368 390.943Q449.402 389.204 450.392 387.441Q451.383 385.677 452.329 383.889Q453.276 382.102 454.177 380.291Q455.079 378.481 455.936 376.648Q456.792 374.816 457.603 372.963Q458.414 371.11 459.179 369.237Q459.943 367.365 460.662 365.474Q461.38 363.583 462.051 361.674Q462.722 359.766 463.345 357.842Q464.037 355.702 464.669 353.544Q465.301 351.387 465.874 349.212Q466.446 347.038 466.959 344.848Q467.471 342.659 467.923 340.456Q468.374 338.253 468.765 336.038Q469.156 333.824 469.485 331.6Q469.814 329.375 470.082 327.143Q470.35 324.91 470.556 322.671Q470.762 320.432 470.906 318.188Q471.05 315.944 471.132 313.696Q471.215 311.449 471.235 309.201Q471.255 306.952 471.213 304.704Q471.171 302.456 471.066 300.21Q470.962 297.963 470.796 295.721Q470.63 293.478 470.402 291.241Q470.174 289.004 469.885 286.774Q469.595 284.544 469.244 282.323Q468.893 280.102 468.481 277.892Q468.068 275.681 467.595 273.483Q467.122 271.285 466.589 269.1Q466.055 266.916 465.461 264.747Q464.867 262.578 464.214 260.427Q463.56 258.275 462.848 256.142Q462.135 254.009 461.364 251.897Q460.593 249.785 459.764 247.695Q458.934 245.605 458.048 243.538Q457.161 241.472 456.218 239.431Q455.274 237.389 454.275 235.375Q453.276 233.361 452.221 231.375Q451.167 229.389 450.057 227.433Q448.948 225.476 447.786 223.552Q446.623 221.627 445.408 219.735Q440.515 212.099 434.779 205.074C432.11 201.848 424.228 194.215 422.974 191.535C422.418 190.344 422.693 189.608 423.117 188.434L423.246 188.087Z"/>
	<path fill="#00356A" transform="matrix(1.2736 0 0 1.2736 0 -0.000244141)" d="M168.657 85.6766C170.522 87.4741 172.12 90.1944 173.657 92.3121Q178.906 99.6591 184.341 106.87C185.478 105.894 186.704 105 187.886 104.077C190.724 107.953 193.496 111.909 196.497 115.658C194.095 117.32 191.766 119.109 189.41 120.837C188.058 119.045 186.788 117.189 185.5 115.351C183.196 116.83 168.639 126.998 168.21 128.453L168.744 129.409C169.899 130.701 170.929 132.158 171.988 133.531C169.634 135.329 167.219 137.059 164.836 138.818C162.289 134.871 159.338 131.004 156.384 127.35C157.452 126.493 158.415 125.618 158.645 124.2C159.587 118.38 150.205 106.64 146.803 101.668C154.217 96.6337 161.557 91.1452 168.657 85.6766Z"/>
	<path fill="#FEFEFE" transform="matrix(1.2736 0 0 1.2736 0 -0.000244141)" d="M165.58 97.4234C168.125 99.6131 174.284 109.095 176.686 112.443C173.729 114.446 170.882 116.617 168.009 118.738C167.559 119.104 167.168 119.318 166.634 119.544C165.556 117.854 165.287 115.417 164.436 113.56C162.755 109.89 160.12 106.425 157.823 103.108C160.345 101.146 162.997 99.3083 165.58 97.4234Z"/>
	<path fill="#00356A" transform="matrix(1.2736 0 0 1.2736 0 -0.000244141)" d="M464.211 469.319C465.787 470.182 482.466 492.264 485.242 495.617C481.287 498.987 477.057 502.114 472.977 505.334L449.329 524.035C442.589 515.025 435.363 506.303 428.396 497.462C430.945 495.617 433.355 493.634 435.772 491.623L441.082 498.411L452.033 512.286L458.981 506.72C453.404 500.037 448.241 493.006 442.701 486.288L450.178 480.33C451.72 482.907 453.917 485.305 455.786 487.672L466.329 501.016Q469.754 498.238 473.254 495.556C467.668 488.845 462.421 481.837 456.928 475.046L464.211 469.319Z"/>
	<path fill="#00356A" transform="matrix(1.2736 0 0 1.2736 0 -0.000244141)" d="M404.685 62.3874C407.521 63.4243 410.438 65.1868 413.15 66.535C409.023 74.2258 405.399 82.186 401.182 89.8333Q405.19 91.8609 409.17 93.9435L420.997 70.5049C423.613 72.1292 426.625 73.42 429.38 74.8154C425.208 82.4672 421.422 90.3919 417.469 98.1632C420.149 99.2485 422.76 100.809 425.335 102.136C427.908 96.8772 430.606 91.6745 433.249 86.4511L437.142 78.7205C439.818 80.3237 442.801 81.6512 445.587 83.0712Q437.78 97.9832 430.269 113.047C416.499 106.569 403.052 99.2254 389.436 92.4076C394.691 82.4994 399.623 72.397 404.685 62.3874Z"/>
	<path fill="#CE0000" transform="matrix(1.2736 0 0 1.2736 0 -0.000244141)" d="M128.272 318.469C131.232 318.279 134.205 318.278 137.171 318.233C137.892 337.928 143.731 358.451 151.634 376.393C153.885 381.502 156.6 386.328 159.002 391.351C156.544 394.798 154.601 398.016 152.898 401.918C152.728 402.556 152.589 403.066 152.228 403.623C152.153 403.571 152.072 403.527 152.002 403.469C149.851 401.7 146.97 395.852 145.533 393.239Q143.669 389.775 141.96 386.231Q140.251 382.687 138.702 379.071Q137.152 375.455 135.764 371.773Q134.376 368.092 133.153 364.353Q131.93 360.613 130.874 356.823Q129.818 353.034 128.931 349.201Q128.044 345.368 127.328 341.499Q126.613 337.631 126.069 333.734C125.383 328.723 125.098 323.632 124.713 318.59L128.272 318.469Z"/>
	<path fill="#00356A" transform="matrix(1.2736 0 0 1.2736 0 -0.000244141)" d="M300.002 142.038Q307.198 141.716 314.396 141.989Q321.593 142.262 328.744 143.129C333.742 143.712 338.762 144.878 343.78 145.102C342.22 146.166 340.745 147.123 339.009 147.885C317.56 142.423 287.429 144.187 266.045 150.069Q264.076 150.608 262.121 151.195Q260.167 151.782 258.227 152.417Q256.287 153.051 254.363 153.734Q252.439 154.416 250.533 155.145Q248.627 155.874 246.739 156.65Q244.851 157.425 242.982 158.247Q241.114 159.069 239.266 159.936Q237.419 160.803 235.593 161.716Q233.767 162.628 231.964 163.585Q230.161 164.542 228.383 165.543Q226.604 166.544 224.85 167.588Q223.096 168.632 221.368 169.719Q219.641 170.806 217.94 171.935Q216.24 173.064 214.568 174.234Q212.895 175.404 211.252 176.615Q209.609 177.826 207.997 179.077Q206.384 180.328 204.802 181.618Q203.22 182.908 201.671 184.237Q200.121 185.565 198.605 186.931Q197.088 188.297 195.606 189.7Q194.123 191.103 192.675 192.542Q191.228 193.981 189.816 195.455Q188.404 196.929 187.028 198.437Q185.653 199.945 184.315 201.486Q182.977 203.028 181.677 204.601Q180.378 206.175 179.117 207.78Q177.856 209.385 176.635 211.021Q175.414 212.657 174.234 214.322Q173.053 215.987 171.914 217.68Q170.774 219.374 169.677 221.095Q168.58 222.816 167.525 224.563Q166.47 226.31 165.458 228.083C142.581 268.353 138.959 311.958 151.177 356.245Q154.482 366.415 159.037 376.09C160.228 378.648 163.999 384.488 163.747 386.874C163.164 387.432 163.061 387.674 162.254 387.867C161.934 387.685 161.928 387.704 161.617 387.399C160.321 386.13 159.702 383.528 158.811 381.91C148.651 363.439 142.999 339.908 141.615 318.94Q141.492 316.9 141.418 314.857Q141.344 312.815 141.321 310.771Q141.298 308.727 141.324 306.683Q141.351 304.639 141.427 302.597Q141.504 300.554 141.63 298.514Q141.757 296.474 141.934 294.438Q142.11 292.401 142.336 290.37Q142.563 288.339 142.839 286.313Q143.115 284.288 143.44 282.27Q143.766 280.252 144.141 278.243Q144.515 276.234 144.939 274.234Q145.363 272.235 145.836 270.246Q146.309 268.258 146.83 266.281Q147.351 264.305 147.921 262.342Q148.49 260.379 149.108 258.43Q149.725 256.482 150.39 254.549Q151.055 252.616 151.767 250.7Q152.479 248.785 153.238 246.887Q153.997 244.989 154.802 243.11Q155.607 241.231 156.458 239.373Q157.308 237.514 158.204 235.677Q159.1 233.84 160.041 232.025Q160.982 230.211 161.967 228.42Q162.952 226.629 163.98 224.862Q165.009 223.096 166.08 221.355Q167.151 219.615 168.265 217.901Q169.379 216.187 170.534 214.501Q171.689 212.815 172.886 211.157Q174.082 209.5 175.319 207.873Q176.555 206.245 177.831 204.648Q179.107 203.051 180.422 201.486Q181.736 199.921 183.089 198.389C213.062 164.27 254.918 144.977 300.002 142.038Z"/>
	<path fill="#00356A" transform="matrix(1.2736 0 0 1.2736 0 -0.000244141)" d="M210.532 64.8074C214.419 64.4346 218.619 65.469 221.858 67.6463C225.729 70.2478 228.285 74.4695 229.148 79.0182C229.999 83.5043 228.929 88.0514 226.353 91.7934C222.851 96.8816 217.487 99.2929 211.593 100.423C206.965 100.625 202.742 99.8902 198.952 97.0009C195.368 94.2683 193.043 90.0543 192.4 85.6158Q192.275 84.7696 192.235 83.9152Q192.195 83.0607 192.241 82.2065Q192.286 81.3523 192.418 80.507Q192.549 79.6618 192.764 78.8339Q192.979 78.006 193.276 77.2038Q193.573 76.4017 193.949 75.6333Q194.325 74.865 194.776 74.1381Q195.227 73.4113 195.749 72.7333C199.378 67.9352 204.714 65.6214 210.532 64.8074Z"/>
	<path fill="#FEFEFE" transform="matrix(1.2736 0 0 1.2736 0 -0.000244141)" d="M209.401 73.2822Q209.63 73.2482 209.86 73.2253Q210.09 73.2025 210.321 73.191Q210.552 73.1795 210.783 73.1794Q211.014 73.1792 211.245 73.1903Q211.476 73.2015 211.706 73.224Q211.936 73.2464 212.165 73.2801Q212.394 73.3138 212.621 73.3587Q212.848 73.4036 213.072 73.4595Q213.296 73.5155 213.518 73.5824Q213.739 73.6492 213.957 73.7269Q214.175 73.8045 214.388 73.8927Q214.602 73.9809 214.811 74.0795Q215.02 74.1781 215.224 74.2868Q215.429 74.3955 215.627 74.5141Q215.826 74.6327 216.018 74.7608Q216.21 74.889 216.396 75.0264Q216.582 75.1639 216.761 75.3103Q216.94 75.4567 217.112 75.6117Q217.283 75.7666 217.447 75.9299Q217.611 76.0931 217.767 76.2641Q217.922 76.4351 218.069 76.6136Q218.216 76.792 218.354 76.9775Q218.493 77.1629 218.621 77.3549Q218.75 77.5469 218.87 77.745Q218.989 77.9431 219.098 78.1468Q219.208 78.3504 219.307 78.5592Q219.406 78.7681 219.495 78.9815Q219.584 79.1949 219.663 79.4124Q219.741 79.6299 219.809 79.851Q219.877 80.0721 219.933 80.2963Q219.99 80.5204 220.036 80.7471Q220.081 80.9738 220.116 81.2024Q220.151 81.431 220.174 81.6611Q220.197 81.8912 220.209 82.1221Q220.221 82.353 220.222 82.5842Q220.222 82.8154 220.212 83.0464Q220.201 83.2774 220.179 83.5076Q220.157 83.7378 220.124 83.9666Q220.091 84.1954 220.046 84.4224Q220.002 84.6493 219.946 84.8738Q219.891 85.0982 219.824 85.3197Q219.758 85.5412 219.681 85.7592Q219.604 85.9771 219.516 86.1911Q219.428 86.405 219.33 86.6144Q219.232 86.8237 219.124 87.028Q219.015 87.2323 218.897 87.4311Q218.779 87.6299 218.651 87.8226Q218.523 88.0153 218.386 88.2015Q218.249 88.3878 218.103 88.5671Q217.957 88.7464 217.803 88.9183Q217.648 89.0902 217.485 89.2543Q217.322 89.4185 217.152 89.5744Q216.981 89.7304 216.803 89.8778Q216.624 90.0252 216.439 90.1637Q216.254 90.3022 216.062 90.4314Q215.871 90.5607 215.673 90.6804Q215.475 90.8001 215.272 90.91Q215.068 91.0199 214.86 91.1196Q214.651 91.2194 214.438 91.3088Q214.224 91.3983 214.007 91.4771Q213.79 91.556 213.569 91.6241Q213.348 91.6922 213.124 91.7495Q212.9 91.8067 212.673 91.8528Q212.447 91.899 212.218 91.934Q211.989 91.9691 211.758 91.9929Q211.528 92.0167 211.296 92.0291Q211.065 92.0416 210.833 92.0426Q210.601 92.0437 210.369 92.0333Q210.138 92.023 209.907 92.0013Q209.676 91.9796 209.447 91.9466Q209.217 91.9135 208.989 91.8693Q208.762 91.825 208.537 91.7696Q208.312 91.7142 208.09 91.6479Q207.867 91.5815 207.649 91.5043Q207.43 91.4271 207.216 91.3392Q207.001 91.2514 206.791 91.153Q206.581 91.0548 206.376 90.9463Q206.171 90.8378 205.972 90.7193Q205.773 90.6009 205.579 90.4728Q205.386 90.3447 205.199 90.2073Q205.013 90.0699 204.833 89.9235Q204.653 89.777 204.481 89.622Q204.309 89.4669 204.144 89.3035Q203.98 89.1401 203.823 88.9689Q203.667 88.7976 203.519 88.6189Q203.372 88.4402 203.233 88.2544Q203.094 88.0687 202.965 87.8763Q202.835 87.684 202.715 87.4855Q202.596 87.287 202.486 87.0829Q202.376 86.8787 202.276 86.6695Q202.176 86.4602 202.087 86.2462Q201.998 86.0323 201.919 85.8142Q201.84 85.5962 201.772 85.3745Q201.704 85.1529 201.647 84.9281Q201.59 84.7034 201.544 84.4761Q201.499 84.2489 201.464 84.0196Q201.429 83.7904 201.406 83.5597Q201.383 83.329 201.371 83.0975Q201.359 82.866 201.358 82.6341Q201.358 82.4023 201.369 82.1707Q201.379 81.9391 201.402 81.7083Q201.424 81.4775 201.457 81.2481Q201.491 81.0187 201.535 80.7912Q201.58 80.5637 201.636 80.3387Q201.692 80.1137 201.759 79.8917Q201.826 79.6697 201.903 79.4512Q201.981 79.2328 202.069 79.0184Q202.158 78.804 202.256 78.5943Q202.355 78.3845 202.464 78.1799Q202.573 77.9752 202.692 77.7761Q202.811 77.5771 202.939 77.3841Q203.068 77.1911 203.205 77.0046Q203.343 76.8182 203.49 76.6388Q203.637 76.4593 203.792 76.2873Q203.948 76.1153 204.111 75.9511Q204.275 75.787 204.447 75.631Q204.618 75.4751 204.797 75.3278Q204.976 75.1805 205.162 75.0422Q205.348 74.9038 205.541 74.7748Q205.734 74.6458 205.932 74.5264Q206.131 74.407 206.336 74.2975Q206.54 74.188 206.749 74.0887Q206.959 73.9893 207.173 73.9004Q207.387 73.8115 207.605 73.7333Q207.824 73.655 208.045 73.5875Q208.267 73.5201 208.492 73.4636Q208.717 73.4071 208.944 73.3617Q209.172 73.3163 209.401 73.2822Z"/>
	<path fill="#00356A" transform="matrix(1.2736 0 0 1.2736 0 -0.000244141)" d="M523.394 394.386C526.95 394.274 530.284 394.944 533.395 396.703Q534.132 397.117 534.823 397.604Q535.514 398.091 536.153 398.645Q536.792 399.199 537.371 399.815Q537.95 400.43 538.464 401.102Q538.979 401.773 539.422 402.492Q539.866 403.212 540.235 403.973Q540.604 404.733 540.894 405.527Q541.184 406.322 541.392 407.141C542.722 412.433 541.555 418.162 538.687 422.752C535.613 427.674 531.381 430.276 525.783 431.539C521.083 431.835 516.749 430.88 512.931 428.014Q512.268 427.516 511.658 426.955Q511.048 426.394 510.497 425.776Q509.945 425.157 509.458 424.487Q508.97 423.817 508.551 423.102Q508.133 422.387 507.786 421.633Q507.44 420.88 507.171 420.097Q506.901 419.313 506.71 418.507Q506.519 417.7 506.409 416.879C505.666 411.455 507.392 405.781 510.707 401.466C513.92 397.284 518.191 395.039 523.394 394.386Z"/>
	<path fill="#FEFEFE" transform="matrix(1.2736 0 0 1.2736 0 -0.000244141)" d="M521.388 403.947Q521.609 403.881 521.834 403.825Q522.058 403.77 522.285 403.726Q522.511 403.681 522.74 403.648Q522.969 403.615 523.199 403.593Q523.429 403.571 523.659 403.561Q523.89 403.55 524.121 403.551Q524.352 403.551 524.583 403.563Q524.814 403.575 525.043 403.599Q525.273 403.622 525.502 403.656Q525.73 403.691 525.957 403.737Q526.183 403.782 526.407 403.839Q526.631 403.895 526.852 403.963Q527.073 404.031 527.29 404.109Q527.508 404.187 527.721 404.276Q527.934 404.365 528.143 404.464Q528.351 404.563 528.555 404.672Q528.759 404.782 528.957 404.901Q529.154 405.02 529.346 405.148Q529.538 405.277 529.724 405.415Q529.909 405.553 530.087 405.699Q530.266 405.846 530.437 406.002Q530.608 406.157 530.771 406.32Q530.934 406.484 531.089 406.655Q531.244 406.827 531.391 407.005Q531.537 407.184 531.675 407.37Q531.812 407.555 531.94 407.747Q532.069 407.939 532.187 408.138Q532.306 408.336 532.415 408.54Q532.524 408.743 532.623 408.952Q532.721 409.161 532.81 409.374Q532.898 409.588 532.976 409.805Q533.054 410.023 533.121 410.244Q533.188 410.465 533.244 410.689Q533.301 410.913 533.346 411.14Q533.391 411.366 533.425 411.595Q533.459 411.823 533.482 412.053Q533.505 412.283 533.516 412.514Q533.528 412.745 533.528 412.975Q533.528 413.207 533.517 413.437Q533.506 413.668 533.484 413.898Q533.462 414.128 533.428 414.356Q533.394 414.585 533.35 414.812Q533.305 415.038 533.249 415.263Q533.193 415.487 533.127 415.708Q533.06 415.929 532.983 416.147Q532.905 416.364 532.817 416.578Q532.729 416.792 532.631 417.001Q532.533 417.21 532.424 417.414Q532.316 417.618 532.198 417.816Q532.079 418.015 531.951 418.207Q531.824 418.4 531.686 418.585Q531.549 418.771 531.403 418.95Q531.257 419.129 531.103 419.301Q530.948 419.473 530.785 419.636Q530.622 419.8 530.452 419.956Q530.281 420.112 530.103 420.259Q529.925 420.406 529.74 420.544Q529.555 420.682 529.363 420.811Q529.171 420.94 528.974 421.06Q528.776 421.18 528.573 421.289Q528.369 421.399 528.161 421.498Q527.952 421.598 527.739 421.687Q527.526 421.777 527.309 421.855Q527.092 421.934 526.871 422.002Q526.649 422.07 526.424 422.128Q526.199 422.185 525.972 422.231Q525.744 422.278 525.515 422.312Q525.285 422.347 525.054 422.371Q524.823 422.395 524.591 422.407Q524.359 422.419 524.127 422.42Q523.895 422.421 523.663 422.41Q523.431 422.4 523.2 422.378Q522.969 422.356 522.739 422.322Q522.509 422.289 522.281 422.244Q522.053 422.2 521.828 422.144Q521.602 422.088 521.38 422.022Q521.158 421.955 520.939 421.877Q520.72 421.799 520.505 421.711Q520.291 421.623 520.08 421.524Q519.87 421.425 519.665 421.316Q519.46 421.207 519.261 421.088Q519.061 420.969 518.868 420.841Q518.675 420.712 518.488 420.574Q518.301 420.436 518.121 420.289Q517.942 420.142 517.769 419.987Q517.597 419.831 517.433 419.667Q517.268 419.503 517.112 419.331Q516.956 419.16 516.808 418.98Q516.661 418.801 516.522 418.615Q516.384 418.428 516.254 418.235Q516.125 418.042 516.006 417.843Q515.886 417.644 515.776 417.44Q515.667 417.235 515.567 417.025Q515.468 416.815 515.379 416.601Q515.29 416.386 515.212 416.168Q515.133 415.949 515.066 415.727Q514.998 415.505 514.942 415.28Q514.886 415.054 514.84 414.827Q514.795 414.599 514.761 414.369Q514.727 414.14 514.704 413.908Q514.681 413.677 514.67 413.445Q514.659 413.214 514.659 412.981Q514.659 412.749 514.67 412.517Q514.682 412.285 514.705 412.054Q514.728 411.823 514.762 411.594Q514.796 411.364 514.842 411.136Q514.887 410.908 514.944 410.683Q515.001 410.458 515.068 410.236Q515.136 410.014 515.214 409.795Q515.293 409.577 515.382 409.362Q515.471 409.148 515.571 408.938Q515.67 408.728 515.78 408.524Q515.89 408.319 516.01 408.12Q516.13 407.921 516.259 407.729Q516.388 407.536 516.527 407.35Q516.666 407.163 516.813 406.984Q516.961 406.805 517.117 406.633Q517.274 406.462 517.438 406.298Q517.603 406.134 517.775 405.979Q517.948 405.823 518.128 405.676Q518.308 405.529 518.495 405.392Q518.681 405.254 518.875 405.125Q519.068 404.997 519.268 404.878Q519.467 404.759 519.673 404.651Q519.878 404.542 520.088 404.443Q520.298 404.345 520.513 404.257Q520.728 404.168 520.947 404.091Q521.166 404.014 521.388 403.947Z"/>
	<path fill="#00356A" transform="matrix(1.2736 0 0 1.2736 0 -0.000244141)" d="M89.9337 390.423C93.4796 390.268 96.694 390.826 99.8136 392.586C104.467 395.212 107.747 399.909 109.14 405.018C110.429 409.749 110.054 414.914 107.518 419.184C104.592 424.11 100.193 426.314 94.8348 427.575C90.3059 427.925 86.2179 427.043 82.4786 424.313C78.0986 421.115 75.1659 415.857 74.3876 410.523C73.6996 405.807 74.7395 400.929 77.6852 397.119C80.733 393.176 85.1125 391.12 89.9337 390.423Z"/>
	<path fill="#FEFEFE" transform="matrix(1.2736 0 0 1.2736 0 -0.000244141)" d="M91.1902 399.795C93.0286 399.659 94.6958 399.794 96.3987 400.563Q96.8036 400.745 97.188 400.967Q97.5723 401.19 97.9321 401.45Q98.2919 401.71 98.6234 402.005Q98.955 402.301 99.2548 402.628Q99.5546 402.956 99.8197 403.312Q100.085 403.668 100.312 404.049Q100.54 404.431 100.727 404.833Q100.915 405.236 101.061 405.655C101.873 407.951 101.773 410.454 100.698 412.644C99.1024 415.891 96.3251 417.209 93.0607 418.246C91.0609 418.362 89.4323 418.316 87.5752 417.454C85.3668 416.429 83.7429 414.561 82.9462 412.267C82.1201 409.889 82.2759 407.298 83.4906 405.079C85.1858 401.982 87.9623 400.71 91.1902 399.795Z"/>
	<path fill="#00356A" transform="matrix(1.2736 0 0 1.2736 0 -0.000244141)" d="M225.134 515.186C231.665 517.313 246.351 520.685 249.605 526.734C250.677 528.726 250.599 530.758 249.875 532.858C248.82 535.918 246.316 537.174 243.588 538.464C244.308 539.085 245.066 539.755 245.608 540.541Q245.847 540.889 246.048 541.261Q246.25 541.632 246.411 542.022Q246.573 542.413 246.693 542.818Q246.813 543.223 246.89 543.638Q246.967 544.053 247.001 544.474Q247.035 544.896 247.024 545.318Q247.014 545.74 246.96 546.159Q246.906 546.578 246.808 546.989C246.178 549.681 244.45 551.408 242.18 552.826C234.952 555.638 221.561 549.528 214.36 547.113C218.581 536.762 221.218 525.674 225.134 515.186Z"/>
	<path fill="#FEFEFE" transform="matrix(1.2736 0 0 1.2736 0 -0.000244141)" d="M227.649 536.989C230.366 537.849 233.923 538.596 236.264 540.188C237.081 540.744 237.799 541.499 237.909 542.53C238.066 544.001 236.983 545.295 236.049 546.287C232.469 546.462 228.773 544.741 225.422 543.587C226.228 541.401 226.992 539.225 227.649 536.989Z"/>
	<path fill="#FEFEFE" transform="matrix(1.2736 0 0 1.2736 0 -0.000244141)" d="M231.801 524.531C234.151 525.298 238.525 526.249 240.108 528.269C240.579 528.87 240.869 529.51 240.7 530.291C240.438 531.508 239.449 532.519 238.509 533.26C235.503 533.168 232.471 531.843 229.647 530.868C230.437 528.77 231.188 526.689 231.801 524.531Z"/>
	<path fill="#00356A" transform="matrix(1.2736 0 0 1.2736 0 -0.000244141)" d="M71.9571 199.913C82.6904 203.262 93.3112 207.114 103.959 210.735Q102.457 214.866 101.133 219.058C95.4434 217.26 89.8152 215.204 84.1717 213.263C87.5132 217.723 91.3851 221.929 95.0468 226.138C94.6671 227.539 94.1681 228.889 93.6719 230.252C88.225 231.471 82.7178 232.914 77.1993 233.738L88.7957 237.745L94.0048 239.498Q92.561 243.661 91.2364 247.864L59.1797 236.832Q60.6107 233.18 61.7803 229.437L84.0976 224.571Q76.8411 215.854 69.3803 207.311C70.2872 204.866 71.1011 202.377 71.9571 199.913Z"/>
	<path fill="#00356A" transform="matrix(1.2736 0 0 1.2736 0 -0.000244141)" d="M390.902 515.779C391.543 515.646 391.22 515.622 391.868 515.895C395.12 526.495 399.021 536.899 402.157 547.534C399.251 548.598 396.273 549.51 393.336 550.485L390.705 542.398L385.631 544.042C384.989 547.265 384.009 550.488 383.221 553.683L380.884 554.603L373.718 556.868Q375.281 551.219 376.948 545.599C375.677 545.288 374.425 544.964 373.23 544.416C370.359 543.101 368.335 540.788 367.259 537.836C366.097 534.647 365.833 531.142 367.344 528.017C370.937 520.586 383.686 518.113 390.902 515.779Z"/>
	<path fill="#FEFEFE" transform="matrix(1.2736 0 0 1.2736 0 -0.000244141)" d="M385.023 525.579C386.214 527.174 387.685 533.281 388.396 535.472C385.507 536.426 382.529 537.663 379.449 537.586C377.732 536.811 376.736 535.806 376.095 534.002C375.64 532.718 375.428 531.359 376.092 530.103C377.527 527.392 382.289 526.465 385.023 525.579Z"/>
	<path fill="#00356A" transform="matrix(1.2736 0 0 1.2736 0 -0.000244141)" d="M96.1724 156.501C98.2637 157.842 100.362 159.14 102.522 160.368C98.9946 165.525 95.893 171.166 92.6438 176.513C94.2755 177.401 95.8645 178.389 97.4635 179.335C100.191 174.382 103.814 166.685 109.666 164.978C112.017 164.292 114.497 164.663 116.623 165.851Q117.067 166.097 117.485 166.385Q117.903 166.673 118.29 167.001Q118.677 167.329 119.03 167.694Q119.383 168.058 119.699 168.456Q120.014 168.853 120.289 169.28Q120.564 169.707 120.795 170.158Q121.026 170.61 121.212 171.082Q121.398 171.555 121.536 172.043C122.838 176.763 120.624 181.101 118.309 185.06L110.453 198.083C100.591 192.731 91.0669 186.46 81.4691 180.632C86.6588 172.819 91.3108 164.529 96.1724 156.501Z"/>
	<path fill="#FEFEFE" transform="matrix(1.2736 0 0 1.2736 0 -0.000244141)" d="M109.966 173.891C111.151 174.086 112.495 174.476 113.275 175.457C114.029 176.406 114.031 177.668 113.75 178.79C113.298 180.586 110.811 185.386 109.186 186.344L108.527 186.057L103.073 182.685C105.369 179.612 106.529 175.946 109.966 173.891Z"/>
	<path fill="#00356A" transform="matrix(1.2736 0 0 1.2736 0 -0.000244141)" d="M463.168 95.703C465.688 97.3881 467.867 99.8522 470.336 101.689Q463.804 109.283 457.377 116.965C465.067 114.525 473.128 112.789 480.948 110.78C483.144 112.792 485.458 114.677 487.755 116.572L465.93 142.097C465.006 141.979 459.684 137.071 458.625 136.21L471.571 121.001C463.873 123.411 455.856 125.194 448.026 127.152C445.881 125.121 443.503 123.298 441.221 121.422C448.275 112.699 455.721 104.096 463.168 95.703Z"/>
	<path fill="#00356A" transform="matrix(1.2736 0 0 1.2736 0 -0.000244141)" d="M182.159 492.329C184.894 493.309 187.856 495.55 190.389 497.08C186.762 502.615 183.727 508.546 180.157 514.127C187.626 510.9 194.988 507.398 202.429 504.101C204.956 505.634 207.475 507.167 210.077 508.572L193.032 537.5C191.341 537.311 186.507 533.961 184.797 532.947C188.39 527.418 191.6 521.524 194.95 515.839C187.714 519.397 180.208 522.709 172.788 525.867Q168.96 523.58 165.082 521.377L182.159 492.329Z"/>
	<path fill="#00356A" transform="matrix(1.2736 0 0 1.2736 0 -0.000244141)" d="M501.806 131.766C501.947 131.877 502.097 131.976 502.228 132.098C504.475 134.176 512.796 145.248 514.041 147.833C515.047 149.921 515.641 152.181 515.579 154.51Q515.566 155.1 515.492 155.685Q515.418 156.27 515.283 156.845Q515.147 157.419 514.953 157.976Q514.758 158.533 514.507 159.066Q514.255 159.6 513.949 160.104Q513.643 160.608 513.285 161.078Q512.928 161.547 512.524 161.977Q512.119 162.406 511.672 162.791C509.248 164.916 506.004 166.105 502.772 165.835C497.8 165.419 494.407 162.174 491.401 158.548C490.358 157.255 489.385 155.938 488.433 154.577C486.044 156.338 483.748 158.232 481.431 160.086L475.424 152.505C484.477 146.116 493.184 138.737 501.806 131.766Z"/>
	<path fill="#FEFEFE" transform="matrix(1.2736 0 0 1.2736 0 -0.000244141)" d="M501.773 143.978C502.816 144.437 504.186 146.328 504.884 147.274C506.088 148.908 507 151.057 506.643 153.123C506.44 154.299 505.85 155.356 504.841 156.017C503.476 156.912 502.033 156.947 500.476 156.686C497.857 155.107 496.066 152.389 494.209 150.012C496.679 147.949 499.254 145.983 501.773 143.978Z"/>
	<path fill="#00356A" transform="matrix(1.2736 0 0 1.2736 0 -0.000244141)" d="M122.729 431.212C122.886 431.341 123.053 431.456 123.198 431.597C125 433.352 126.652 436.082 128.137 438.129C131.654 442.977 136.214 447.702 135.904 454.169Q135.88 454.755 135.796 455.334Q135.713 455.914 135.571 456.483Q135.429 457.052 135.23 457.603Q135.032 458.154 134.778 458.682Q134.524 459.211 134.219 459.71Q133.913 460.21 133.558 460.677Q133.203 461.143 132.803 461.571Q132.403 461.999 131.961 462.384C129.489 464.541 126.161 465.679 122.885 465.326C118.318 464.834 115.102 461.833 112.291 458.492L108.681 453.653Q105.175 456.377 101.619 459.036Q98.8214 455.138 95.8395 451.38C105.032 445.127 113.893 437.972 122.729 431.212Z"/>
	<path fill="#FEFEFE" transform="matrix(1.2736 0 0 1.2736 0 -0.000244141)" d="M122.443 443.431C123.405 443.904 124.418 445.47 125.092 446.326C126.421 448.016 127.455 450.234 127.123 452.434C126.948 453.599 126.379 454.71 125.393 455.385C123.967 456.361 122.392 456.415 120.76 456.061C118.225 454.392 116.485 451.66 114.684 449.26C117.189 447.226 119.853 445.356 122.443 443.431Z"/>
	<path fill="#00356A" transform="matrix(1.2736 0 0 1.2736 0 -0.000244141)" d="M268.312 527.878C271.432 528.411 274.674 528.583 277.826 528.896L276.388 541.542Q282.918 542.214 289.44 542.966C289.697 538.772 290.283 534.552 290.732 530.372Q295.502 530.877 300.263 531.457C299.525 536.17 297.294 563.137 296.232 564.879C293.187 564.597 290.134 564.356 287.113 563.869C287.428 559.533 287.987 555.199 288.462 550.876Q282.032 550.064 275.586 549.388C274.884 553.705 274.524 558.132 274.062 562.483Q269.346 561.901 264.618 561.419L268.312 527.878Z"/>
	<path fill="#00356A" transform="matrix(1.2736 0 0 1.2736 0 -0.000244141)" d="M87.1406 340.939C87.5633 340.848 87.9049 340.85 88.3347 340.853C89.4996 342.753 94.2168 367.302 95.1446 371.497C91.3956 372.619 87.4 373.276 83.5702 374.103L62.1542 378.712C61.6018 375.618 60.8732 372.531 60.2264 369.454C65.0154 368.598 69.783 367.427 74.5505 366.437C78.2641 365.477 82.093 364.793 85.8475 363.995Q84.3959 357.674 83.1018 351.318C74.7099 353.603 65.9788 355.145 57.4709 356.984Q56.5766 352.359 55.4781 347.779C66.0573 345.647 76.5933 343.228 87.1406 340.939Z"/>
	<path fill="#00356A" transform="matrix(1.2736 0 0 1.2736 0 -0.000244141)" d="M564.516 293.267C565.621 294.576 564.943 300.971 564.915 302.917C562.764 303.856 560.543 304.622 558.334 305.415L558.122 319.853C560.309 320.659 562.465 321.598 564.628 322.47C564.53 325.711 564.557 328.969 564.527 332.212C558.423 329.606 552.409 326.708 546.373 323.944Q538.725 320.387 531.035 316.923Q531.084 312.22 531.075 307.516L564.516 293.267Z"/>
	<path fill="#FEFEFE" transform="matrix(1.2736 0 0 1.2736 0 -0.000244141)" d="M551.081 308.28C551.689 310.748 551.177 314.34 551.104 316.919L544.332 314.04L540.145 312.41C543.829 311.201 547.457 309.666 551.081 308.28Z"/>
	<path fill="#00356A" transform="matrix(1.2736 0 0 1.2736 0 -0.000244141)" d="M531.253 181.755L535.951 181.504C537.213 184.327 538.784 187.087 540.199 189.842L516.875 218.335C515.354 215.526 513.646 212.609 512.485 209.638L512.72 209.164L517.038 204.339Q513.739 197.981 510.612 191.536Q507.055 191.775 503.514 192.197Q501.282 187.878 499.233 183.469C509.905 183.069 520.588 182.336 531.253 181.755Z"/>
	<path fill="#FEFEFE" transform="matrix(1.2736 0 0 1.2736 0 -0.000244141)" d="M528.976 189.963C529.194 190.004 529.045 189.956 529.314 190.287C527.738 192.157 523.829 197.216 521.95 198.354L520.877 196.372C519.966 194.505 518.977 192.668 518.023 190.822C521.675 190.601 525.328 190.253 528.976 189.963Z"/>
	<path fill="#00356A" transform="matrix(1.2736 0 0 1.2736 0 -0.000244141)" d="M334.691 529.603L337.319 529.374C343.166 540.167 349.617 550.72 355.755 561.356C352.466 561.436 349.147 561.975 345.882 562.366L342.646 556.158L336.537 556.705C333.814 557.13 331.015 557.319 328.272 557.61Q327.384 561.049 326.4 564.461C323.214 564.687 320.019 565.1 316.853 565.513C320.176 553.696 324.317 542.064 327.912 530.32L334.691 529.603Z"/>
	<path fill="#FEFEFE" transform="matrix(1.2736 0 0 1.2736 0 -0.000244141)" d="M333.486 539.4C335.713 542.316 337.316 546.207 338.983 549.483L335.806 549.733L330.315 550.275C331.575 546.759 332.453 542.996 333.486 539.4Z"/>
	<path fill="#00356A" transform="matrix(1.2736 0 0 1.2736 0 -0.000244141)" d="M363.691 50.6689L372.985 52.925C374.87 64.9771 377.33 77.0319 379.655 89.0094C376.402 88.473 373.154 87.624 369.964 86.7972L368.983 79.7962C366.821 79.4382 364.667 78.8282 362.536 78.3135C360.022 77.7731 357.526 77.0949 355.03 76.4766L350.922 82.3751C347.803 81.4314 344.567 80.7716 341.396 80.0141C344.837 76.2804 347.821 71.7839 350.898 67.7326C355.182 62.0909 359.696 56.5171 363.691 50.6689Z"/>
	<path fill="#FEFEFE" transform="matrix(1.2736 0 0 1.2736 0 -0.000244141)" d="M365.841 61.237C366.736 62.0794 367.608 70.6573 367.842 72.3765L363.66 71.3549L359.412 70.3553L365.841 61.237Z"/>
	<path fill="#00356A" transform="matrix(1.2736 0 0 1.2736 0 -0.000244141)" d="M528.779 344.659C539.763 347.036 550.69 349.802 561.632 352.377C560.669 355.341 560.075 358.504 559.342 361.536C551.02 359.107 542.337 357.624 533.942 355.398Q532.887 360.139 531.617 364.826C535.366 366.053 539.221 366.983 542.983 368.202C544.141 368.59 545.285 369.036 546.419 369.489C549.764 370.826 553.555 372.879 554.94 376.411C556.21 379.652 554.998 382.849 553.659 385.828L546.382 383.58C546.645 382.2 546.959 380.845 546.123 379.588C543.514 375.666 527.446 372.39 522.398 371.046C524.925 362.404 526.583 353.402 528.779 344.659Z"/>
	<path fill="#CE0000" transform="matrix(1.2736 0 0 1.2736 0 -0.000244141)" d="M302.289 124.952C307.549 125.256 312.824 124.982 318.083 125.248Q324.003 125.503 329.888 126.185Q335.774 126.867 341.595 127.971Q347.416 129.076 353.142 130.598Q358.869 132.12 364.47 134.051C362.582 135.322 360.445 136.299 358.42 137.337L348.66 142.737C337.32 138.064 314.875 137.345 302.554 137.739C302.397 133.505 302.065 129.181 302.289 124.952Z"/>
	<path fill="#00356A" transform="matrix(1.2736 0 0 1.2736 0 -0.000244141)" d="M494.473 432.309C496.024 433.578 500.195 447.484 501.162 450.35C507.932 451.003 514.697 451.885 521.454 452.658L514.828 461.142C509.926 460.282 504.882 459.829 499.942 459.176L497.161 462.579C500.665 465.18 503.985 468.01 507.549 470.535C505.502 472.853 503.83 475.971 501.451 477.904L474.974 457.269C477.019 454.857 478.778 452.202 480.914 449.867C484.411 452.472 487.807 455.237 491.237 457.932C492.13 456.706 493.095 455.547 494.061 454.379L488.646 439.731C490.699 437.344 492.573 434.816 494.473 432.309Z"/>
	<path fill="#00356A" transform="matrix(1.2736 0 0 1.2736 0 -0.000244141)" d="M302.857 44.3798C305.963 44.6225 309.145 44.6187 312.262 44.7286C312.221 49.1015 311.992 53.4881 311.865 57.8606L316.491 58.0187C319.111 53.6521 322.185 49.5654 324.765 45.167C328.144 45.2096 331.525 45.3681 334.902 45.4824L323.791 61.416C326.033 65.1512 328.119 69.0007 330.275 72.787L333.826 79.1343Q328.454 79.0409 323.089 78.7594Q319.559 72.1156 315.838 65.5771L311.57 65.5504L311.19 78.4285L301.723 78.0794C302.049 66.8716 302.147 55.5664 302.857 44.3798Z"/>
	<path fill="#00356A" transform="matrix(1.2736 0 0 1.2736 0 -0.000244141)" d="M227.331 297.462C228.676 298.882 228.763 302.343 229.539 304.24C231.129 308.128 233.813 311.781 236.319 315.115C234.291 315.956 232.244 316.791 230.33 317.875C227.6 319.421 225.015 321.257 222.089 322.424C219.701 321.084 217.755 319.061 215.628 317.355C210.916 313.573 204.444 310.787 198.303 311.343C195.671 311.582 193.064 312.462 191.395 314.616C189.269 317.359 189.733 320.566 190.165 323.754C188.382 321.169 187.308 319.04 186.486 316.006C186.338 310.439 189.582 311.01 190.833 307.293C189.545 307.579 188.159 308.522 187.038 309.227C182.869 311.849 181.787 316.869 180.733 321.311C180.32 317.828 179.714 314.092 180.313 310.604C180.73 308.173 181.872 306.352 183.926 304.972C191.002 300.219 203.027 302.578 211.048 303.396C214.594 303.759 218.221 303.893 221.715 304.623C223.218 301.996 225.294 299.683 227.331 297.462Z"/>
	<path fill="#00356A" transform="matrix(1.2736 0 0 1.2736 0 -0.000244141)" d="M278.691 343.054C281.529 344.025 284.579 344.544 287.505 345.202C290.593 355.945 297.963 362.342 303.558 371.419C302.846 371.443 302.146 371.484 301.437 371.551C293.625 372.282 280.575 373.751 275.248 380.171Q274.426 379.39 273.524 378.704C270.322 376.221 265.906 373.884 261.746 374.57C257.678 375.241 255.731 378.531 253.605 381.656C253.555 381.504 253.491 381.357 253.455 381.201C252.705 377.959 254.647 373.335 256.445 370.823C257.617 370.253 258.864 369.876 260.005 369.239L259.858 368.793C259.232 368.727 258.649 368.672 258.02 368.743C253.751 369.225 251.33 372.57 248.892 375.709C249.619 372.674 250.355 369.787 251.898 367.049C256.992 358.009 264.212 366.55 271.473 367.23C276.478 367.699 281.708 366.088 286.48 364.747C286.694 357.926 284.712 353.698 281.364 347.884C280.47 346.332 279.285 344.741 278.691 343.054Z"/>
	<path fill="#00356A" transform="matrix(1.2736 0 0 1.2736 0 -0.000244141)" d="M68.248 294.296Q68.8047 294.266 69.3619 294.248C74.1461 294.096 78.5441 295.579 82.0509 298.945C85.7425 302.487 87.5117 307.722 87.5204 312.763C87.5303 318.541 85.3848 323.136 81.3178 327.172Q78.4718 324.217 75.6926 321.2C77.0741 319.854 78.2347 318.448 78.9334 316.626C79.869 314.186 79.9195 311.446 78.771 309.067C77.3905 306.206 75.02 304.874 72.1406 303.938Q71.392 303.847 70.6395 303.798C67.9538 303.644 65.1318 304.519 63.1461 306.367C61.3794 308.011 60.4058 310.305 60.3358 312.709C60.2313 316.299 61.9288 318.815 64.3292 321.255L58.7053 327.351C55.3789 323.957 53.2325 320.271 52.6198 315.507C51.9547 310.337 53.1466 304.746 56.4021 300.607C59.4556 296.724 63.4606 294.897 68.248 294.296Z"/>
	<path fill="#00356A" transform="matrix(1.2736 0 0 1.2736 0 -0.000244141)" d="M129.994 116.175L130.355 116.43C132.719 122.485 142.288 147.25 141.303 152.174C140.309 157.14 137.265 159.818 133.214 162.389C132.023 160.234 130.756 158.115 129.525 155.982C130.939 154.92 132.935 153.532 133.388 151.724C133.587 150.927 133.557 150.322 133.112 149.616C131.962 147.792 128.411 147.473 126.46 147.044L106.455 142.055C108.77 139.641 110.978 137.099 113.228 134.623Q121.812 137.249 130.437 139.738C128.529 133.979 126.062 128.368 123.98 122.664C126.046 120.57 127.999 118.338 129.994 116.175Z"/>
	<path fill="#00356A" transform="matrix(1.2736 0 0 1.2736 0 -0.000244141)" d="M148.791 463.726C151.531 465.692 154.087 468.386 156.591 470.653L171.218 483.848Q168.685 486.631 166.215 489.471L158.464 482.501C155.126 486.653 151.283 490.534 147.707 494.491Q144.34 498.273 140.878 501.967C138.622 499.799 136.244 497.728 133.93 495.62C139.942 489.326 145.583 482.673 151.55 476.332Q147.728 472.761 143.766 469.346C145.49 467.519 147.13 465.61 148.791 463.726Z"/>
	<path fill="#CE0000" transform="matrix(1.2736 0 0 1.2736 0 -0.000244141)" d="M168.138 406.697C172.423 410.039 175.229 415.6 178.743 419.7C182.605 424.204 187.042 428.269 191.342 432.343C190.242 433.627 189.054 434.827 187.879 436.041C187.609 436.341 187.295 436.748 186.894 436.875C185.777 437.228 183.596 436.444 182.507 436.049C176.434 433.846 170.634 429.185 167.926 423.239C165.485 417.878 166.097 412.069 168.138 406.697Z"/>
	<path fill="#00356A" transform="matrix(1.2736 0 0 1.2736 0 -0.000244141)" d="M543.316 264.398Q543.548 264.331 543.784 264.279Q544.021 264.228 544.26 264.192Q544.499 264.156 544.74 264.137Q544.981 264.117 545.222 264.113Q545.464 264.109 545.705 264.122Q545.947 264.134 546.187 264.162Q546.427 264.191 546.665 264.235Q546.902 264.279 547.137 264.339Q547.371 264.399 547.601 264.474Q547.83 264.549 548.055 264.639Q548.279 264.73 548.496 264.835Q548.714 264.94 548.925 265.059Q549.135 265.178 549.337 265.311Q549.539 265.444 549.731 265.59Q549.924 265.736 550.107 265.894Q550.289 266.053 550.461 266.223Q550.633 266.393 550.793 266.574Q550.953 266.756 551.1 266.947Q551.248 267.139 551.382 267.339Q551.517 267.54 551.638 267.749Q551.759 267.959 551.866 268.176Q551.972 268.392 552.065 268.616Q552.157 268.839 552.234 269.068Q552.311 269.297 552.373 269.531Q552.435 269.765 552.481 270.002Q552.527 270.239 552.557 270.479Q552.588 270.719 552.602 270.96Q552.616 271.202 552.615 271.443Q552.613 271.685 552.595 271.926Q552.577 272.167 552.544 272.407Q552.51 272.646 552.461 272.883Q552.411 273.119 552.346 273.352Q552.281 273.585 552.201 273.813Q552.12 274.041 552.025 274.263Q551.93 274.485 551.82 274.7Q551.71 274.916 551.586 275.123Q551.462 275.331 551.325 275.53Q551.187 275.729 551.037 275.918Q550.887 276.107 550.724 276.286Q550.562 276.465 550.388 276.633Q550.214 276.801 550.029 276.957Q549.844 277.112 549.649 277.256Q549.454 277.399 549.251 277.529Q549.047 277.659 548.835 277.775Q548.623 277.891 548.404 277.993Q548.185 278.095 547.959 278.182Q547.734 278.27 547.503 278.342Q547.272 278.414 547.037 278.47Q546.866 278.511 546.693 278.544Q546.52 278.577 546.345 278.601Q546.171 278.626 545.995 278.642Q545.82 278.658 545.644 278.665Q545.468 278.673 545.292 278.672Q545.116 278.671 544.94 278.661Q544.764 278.651 544.589 278.633Q544.413 278.615 544.239 278.589Q544.065 278.562 543.892 278.527Q543.72 278.493 543.549 278.449Q543.378 278.406 543.21 278.355Q543.041 278.303 542.876 278.244Q542.71 278.184 542.547 278.117Q542.384 278.049 542.225 277.974Q542.066 277.899 541.91 277.816Q541.755 277.733 541.604 277.643Q541.452 277.553 541.306 277.455Q541.159 277.358 541.017 277.253Q540.875 277.149 540.739 277.037Q540.602 276.926 540.471 276.809Q540.34 276.691 540.215 276.567Q540.09 276.443 539.971 276.313Q539.851 276.183 539.739 276.048Q539.626 275.913 539.52 275.772Q539.414 275.631 539.315 275.486Q539.216 275.34 539.124 275.19Q539.032 275.039 538.948 274.885Q538.863 274.73 538.786 274.572Q538.709 274.413 538.64 274.251Q538.571 274.089 538.51 273.924Q538.448 273.759 538.395 273.591Q538.342 273.423 538.297 273.253Q538.252 273.083 538.215 272.91Q538.179 272.738 538.15 272.564Q538.122 272.391 538.102 272.216Q538.082 272.04 538.071 271.865Q538.059 271.689 538.056 271.513Q538.053 271.337 538.059 271.161Q538.065 270.985 538.079 270.809Q538.093 270.633 538.115 270.459Q538.138 270.284 538.169 270.111Q538.2 269.937 538.239 269.766Q538.279 269.594 538.326 269.424Q538.374 269.255 538.43 269.088Q538.485 268.921 538.549 268.756Q538.613 268.592 538.685 268.431Q538.756 268.27 538.836 268.113Q538.915 267.956 539.002 267.803Q539.089 267.649 539.183 267.501Q539.277 267.352 539.378 267.208Q539.479 267.063 539.588 266.924Q539.696 266.785 539.81 266.652Q539.925 266.518 540.046 266.39Q540.167 266.262 540.294 266.14Q540.421 266.018 540.554 265.902Q540.687 265.787 540.825 265.678Q540.964 265.568 541.107 265.466Q541.25 265.364 541.399 265.269Q541.547 265.173 541.699 265.085Q541.852 264.997 542.009 264.917Q542.165 264.836 542.326 264.764Q542.486 264.691 542.65 264.626Q542.813 264.561 542.98 264.504Q543.147 264.447 543.316 264.398Z"/>
	<path fill="#00356A" transform="matrix(1.2736 0 0 1.2736 0 -0.000244141)" d="M68.8052 264.423Q68.975 264.373 69.147 264.331Q69.319 264.289 69.4929 264.255Q69.6667 264.222 69.842 264.197Q70.0173 264.172 70.1936 264.156Q70.3699 264.139 70.5468 264.131Q70.7236 264.124 70.9007 264.124Q71.0777 264.125 71.2545 264.135Q71.4314 264.144 71.6075 264.162Q71.7836 264.18 71.9587 264.207Q72.1337 264.233 72.3073 264.268Q72.4808 264.303 72.6524 264.347Q72.824 264.391 72.9933 264.442Q73.1627 264.494 73.3292 264.554Q73.4958 264.614 73.6593 264.682Q73.8227 264.75 73.9827 264.826Q74.1426 264.902 74.2987 264.986Q74.4548 265.069 74.6066 265.16Q74.7584 265.252 74.9055 265.35Q75.0527 265.448 75.1949 265.554Q75.3372 265.659 75.4741 265.772Q75.611 265.884 75.7422 266.003Q75.8735 266.121 75.9989 266.247Q76.1242 266.372 76.2433 266.503Q76.3624 266.634 76.475 266.77Q76.5875 266.907 76.6933 267.049Q76.7991 267.191 76.8978 267.338Q76.9966 267.485 77.088 267.636Q77.1795 267.788 77.2635 267.944Q77.3474 268.1 77.4237 268.26Q77.5 268.419 77.5684 268.583Q77.6368 268.746 77.6971 268.912Q77.7575 269.079 77.8097 269.248Q77.8619 269.417 77.9058 269.589Q77.9497 269.76 77.9851 269.934Q78.0206 270.107 78.0476 270.282Q78.0746 270.457 78.093 270.633Q78.1115 270.809 78.1213 270.986Q78.1311 271.163 78.1323 271.34Q78.1336 271.517 78.1261 271.694Q78.1187 271.871 78.1027 272.047Q78.0867 272.223 78.0621 272.399Q78.0375 272.574 78.0044 272.748Q77.9713 272.922 77.9297 273.094Q77.8882 273.266 77.8383 273.436Q77.7885 273.606 77.7304 273.773Q77.6723 273.94 77.6061 274.105Q77.5399 274.269 77.4659 274.43Q77.3918 274.591 77.3099 274.748Q77.2281 274.905 77.1387 275.057Q77.0493 275.21 76.9526 275.358Q76.8559 275.507 76.7521 275.65Q76.6482 275.794 76.5376 275.932Q76.4268 276.07 76.3096 276.203Q76.1923 276.335 76.0686 276.462Q75.945 276.589 75.8154 276.709Q75.6858 276.83 75.5504 276.944Q75.415 277.058 75.2743 277.166Q75.1335 277.273 74.9877 277.373Q74.8419 277.474 74.6913 277.567Q74.5408 277.66 74.3859 277.746Q74.231 277.832 74.0721 277.91Q73.9132 277.988 73.7507 278.058Q73.5882 278.128 73.4224 278.191Q73.2567 278.253 73.0881 278.307Q72.8345 278.388 72.5756 278.451Q72.3168 278.514 72.054 278.557Q71.7912 278.601 71.526 278.625Q71.2608 278.649 70.9945 278.654Q70.7282 278.658 70.4623 278.643Q70.1963 278.629 69.9322 278.594Q69.6681 278.56 69.4072 278.506Q69.1463 278.453 68.89 278.38Q68.6337 278.308 68.3835 278.217Q68.1332 278.126 67.8902 278.017Q67.6473 277.908 67.413 277.781Q67.1787 277.654 66.9543 277.511Q66.7299 277.367 66.5166 277.208Q66.3033 277.048 66.1022 276.874Q65.9012 276.699 65.7135 276.51Q65.5258 276.321 65.3524 276.119Q65.179 275.917 65.0209 275.703Q64.8628 275.488 64.7208 275.263Q64.5788 275.037 64.4537 274.802Q64.3286 274.567 64.221 274.324Q64.1134 274.08 64.024 273.829Q63.9346 273.578 63.8637 273.321Q63.7929 273.065 63.7411 272.803Q63.6892 272.542 63.6567 272.278Q63.6241 272.014 63.611 271.748Q63.5978 271.482 63.6042 271.215Q63.6106 270.949 63.6365 270.684Q63.6623 270.419 63.7075 270.156Q63.7527 269.894 63.8171 269.635Q63.8814 269.377 63.9644 269.124Q64.0475 268.871 64.1488 268.625Q64.2502 268.378 64.3693 268.14Q64.5358 267.807 64.7355 267.493Q64.9353 267.178 65.166 266.886Q65.3968 266.594 65.6563 266.327Q65.9158 266.06 66.2012 265.821Q66.4866 265.582 66.7949 265.373Q67.1033 265.164 67.4314 264.988Q67.7594 264.812 68.1038 264.67Q68.4482 264.529 68.8052 264.423Z"/>
	<path fill="#00356A" transform="matrix(1.2736 0 0 1.2736 0 -0.000244141)" d="M281.086 44.1379C281.913 43.9968 282.72 43.7348 283.507 44.1268C284.569 45.7358 283.283 49.8607 282.993 51.7345C284.365 52.5233 285.46 53.3641 286.099 54.8643C286.666 56.1929 286.765 57.6726 286.149 59.0022C285.277 60.8857 283.711 61.6198 281.845 62.2616C281.071 62.2883 280.386 62.2831 279.627 62.1046C278.234 61.7772 277.031 61.0744 276.322 59.7952C274.143 55.8674 277.369 48.3816 278.551 44.4145L281.086 44.1379Z"/>
	<path fill="#00356A" transform="matrix(1.2736 0 0 1.2736 0 -0.000244141)" d="M271.099 45.6313C271.272 45.6615 271.371 45.8541 271.499 45.9739C271.375 48.4589 270.813 50.9647 270.391 53.4153C270.642 53.5589 270.895 53.7009 271.141 53.8552C272.638 54.797 273.623 56.1018 273.945 57.8703Q273.994 58.127 274.015 58.3875Q274.036 58.6479 274.029 58.9092Q274.022 59.1704 273.987 59.4293Q273.951 59.6883 273.888 59.9419Q273.825 60.1955 273.735 60.4408Q273.645 60.6861 273.529 60.9203Q273.413 61.1544 273.272 61.3747Q273.132 61.5949 272.968 61.7987C271.638 63.4878 269.963 63.7838 267.946 64.065C266.28 63.6917 264.849 63.1171 263.932 61.589C261.63 57.7547 264.808 50.2846 265.945 46.2369C267.66 45.9923 269.377 45.8109 271.099 45.6313Z"/>
	<path fill="#00356A" transform="matrix(1.2736 0 0 1.2736 0 -0.000244141)" d="M550.597 217.659C552.33 217.923 553.384 218.264 554.617 219.557C555.695 220.687 556.443 222.23 556.302 223.822C556.182 225.176 555.454 226.337 554.394 227.167C551.267 229.613 546.769 228.649 543.145 228.188C541.722 228.084 540.266 227.781 538.852 227.572L537.379 222.178L545.38 222.135C545.615 221.478 545.869 220.749 546.248 220.16C547.291 218.539 548.833 218.132 550.597 217.659Z"/>
	<path fill="#00356A" transform="matrix(1.2736 0 0 1.2736 0 -0.000244141)" d="M553.656 229.85C555.41 229.912 556.66 230.182 557.961 231.43C559.095 232.518 559.964 234.063 559.938 235.67C559.916 237.003 559.277 238.187 558.274 239.046C555.326 241.569 551.002 240.768 547.493 240.4L542.485 239.732C541.894 237.922 541.466 236.105 541.049 234.25L548.957 234.264C549.173 233.69 549.39 233.097 549.682 232.555C550.567 230.916 551.959 230.354 553.656 229.85Z"/>
	<path fill="#00356A" transform="matrix(1.2736 0 0 1.2736 0 -0.000244141)" d="M172.319 400.798C174.803 401.282 178.533 407.977 180.14 410.038C184.994 416.265 190.891 421.349 196.069 427.253C196.021 428.112 195.481 428.316 194.865 428.872L194.473 429.008C194.19 428.885 194.072 428.846 193.791 428.649C189.797 425.846 172.005 406.713 171.348 402.576C171.275 402.115 172.054 401.206 172.319 400.798Z"/>
	<path fill="#CE0000" transform="matrix(1.2736 0 0 1.2736 0 -0.000244141)" d="M428.366 168.268C429.43 168.852 430.009 169.921 430.685 170.897L425.649 176.47L425.053 177.047L424.742 176.943C424.36 174.718 427.149 170.143 428.366 168.268Z"/>
</svg>
