<?xml version="1.0" encoding="utf-8" ?>
<svg xmlns="http://www.w3.org/2000/svg" xmlns:xlink="http://www.w3.org/1999/xlink" width="582" height="582">
	<path fill="#FCFCFB" transform="matrix(1.164 0 0 1.164 0 0.000488281)" d="M236.9 49.3604C237.022 49.3397 237.143 49.3101 237.266 49.2983C241.692 48.8773 246.509 49.2297 250.969 49.2294Q253 49.2298 255.03 49.273Q257.06 49.3162 259.089 49.4022Q261.118 49.4882 263.144 49.617Q265.171 49.7458 267.194 49.9174Q269.218 50.0889 271.237 50.303Q273.257 50.5172 275.271 50.7739Q277.285 51.0306 279.294 51.3298Q281.302 51.629 283.304 51.9704Q285.306 52.3119 287.3 52.6955Q289.294 53.0791 291.28 53.5047Q293.265 53.9303 295.242 54.3976Q297.218 54.865 299.184 55.374Q301.15 55.8829 303.104 56.4332Q305.059 56.9836 307.002 57.575Q308.944 58.1664 310.874 58.7987Q312.804 59.4309 314.72 60.1038Q316.636 60.7766 318.537 61.4897Q320.438 62.2028 322.324 62.9559Q324.21 63.709 326.08 64.5016Q327.949 65.2943 329.802 66.1262Q331.654 66.9581 333.489 67.829Q335.323 68.6998 337.139 69.6091Q338.955 70.5184 340.751 71.4659Q342.547 72.4133 344.323 73.3984Q346.098 74.3835 347.853 75.4059Q349.608 76.4282 351.34 77.4873Q353.073 78.5465 354.783 79.6419Q356.493 80.7373 358.179 81.8686Q359.865 82.9999 361.527 84.1665Q363.19 85.333 364.827 86.5344Q366.464 87.7358 368.076 88.9715Q369.687 90.2071 371.272 91.4765C412.683 125.122 439.172 172.14 444.648 225.365C450.254 279.852 436.335 332.209 401.483 374.859Q400.105 376.555 398.689 378.221Q397.274 379.886 395.822 381.52Q394.37 383.154 392.882 384.755Q391.394 386.356 389.87 387.923Q388.347 389.491 386.79 391.024Q385.232 392.558 383.641 394.056Q382.05 395.554 380.426 397.017Q378.801 398.48 377.145 399.906Q375.489 401.333 373.802 402.722Q372.114 404.111 370.396 405.462Q368.678 406.814 366.931 408.127Q365.184 409.44 363.407 410.714Q361.631 411.987 359.827 413.222Q358.023 414.456 356.192 415.649Q354.362 416.843 352.505 417.996Q350.648 419.149 348.766 420.26Q346.883 421.371 344.977 422.441Q343.071 423.51 341.141 424.537Q339.212 425.563 337.26 426.547Q335.308 427.531 333.335 428.471Q331.361 429.411 329.368 430.307Q327.374 431.203 325.361 432.054Q323.348 432.906 321.317 433.712Q319.285 434.519 317.237 435.28Q315.188 436.042 313.122 436.758Q311.057 437.473 308.977 438.143Q306.896 438.813 304.801 439.436Q302.706 440.059 300.598 440.636Q298.49 441.213 296.369 441.742Q294.249 442.272 292.117 442.755Q289.985 443.237 287.843 443.672Q285.701 444.108 283.55 444.495C276.538 445.776 269.516 446.227 262.445 446.931Q260.138 447.086 257.828 447.186Q255.517 447.286 253.205 447.332Q250.893 447.377 248.581 447.367Q246.268 447.357 243.957 447.292Q241.645 447.228 239.336 447.108Q237.027 446.988 234.721 446.813Q232.415 446.639 230.114 446.409Q227.813 446.18 225.518 445.895Q223.223 445.611 220.936 445.273Q218.648 444.934 216.369 444.541Q214.091 444.148 211.822 443.701Q209.553 443.254 207.295 442.753Q205.038 442.252 202.793 441.698Q200.548 441.143 198.317 440.535Q196.086 439.928 193.87 439.267Q191.654 438.606 189.454 437.893Q187.254 437.18 185.072 436.415Q182.89 435.65 180.727 434.833Q178.563 434.016 176.42 433.147Q174.277 432.279 172.155 431.36Q170.033 430.441 167.933 429.472Q165.833 428.503 163.758 427.484Q161.682 426.466 159.631 425.398Q157.58 424.33 155.554 423.213Q153.529 422.097 151.531 420.933Q149.533 419.769 147.564 418.557Q145.594 417.346 143.654 416.088Q141.713 414.83 139.803 413.526Q137.893 412.222 136.015 410.874Q134.137 409.525 132.291 408.132Q130.445 406.739 128.633 405.302Q126.821 403.865 125.044 402.386Q123.171 400.835 121.337 399.238Q119.503 397.642 117.708 396.001Q115.914 394.36 114.16 392.676Q112.406 390.992 110.694 389.265Q108.981 387.539 107.312 385.771Q105.643 384.003 104.017 382.194Q102.391 380.386 100.81 378.538Q99.2294 376.691 97.6942 374.805Q96.1589 372.919 94.6703 370.996Q93.1817 369.074 91.7405 367.115Q90.2994 365.157 88.9066 363.163Q87.5138 361.17 86.1702 359.143Q84.8266 357.117 83.533 355.058Q82.2393 352.999 80.9965 350.909Q79.7537 348.819 78.5623 346.699Q77.371 344.579 76.2319 342.431Q75.0928 340.282 74.0066 338.107Q72.9204 335.931 71.8878 333.73Q70.8551 331.528 69.8767 329.302Q68.8982 327.076 67.9745 324.826Q67.0508 322.577 66.1824 320.306Q65.3141 318.034 64.5015 315.743Q63.689 313.451 62.9327 311.14Q62.1765 308.829 61.4771 306.5Q60.7776 304.171 60.1354 301.825Q59.4931 299.48 58.9084 297.12Q58.3238 294.76 57.797 292.386Q57.2703 290.012 56.8018 287.626Q56.3333 285.24 55.9233 282.843Q55.5133 280.446 55.1621 278.04Q54.8109 275.634 54.5187 273.22Q54.2265 270.805 53.9934 268.385C52.6296 252.975 52.7843 236.604 54.8023 221.262C59.6565 184.358 75.4048 147.36 99.3635 118.841Q100.771 117.152 102.217 115.496Q103.662 113.839 105.145 112.216Q106.628 110.592 108.147 109.003Q109.667 107.414 111.221 105.859Q112.776 104.305 114.366 102.786Q115.956 101.267 117.579 99.7847Q119.203 98.3023 120.86 96.8571Q122.517 95.4119 124.206 94.0047Q125.896 92.5974 127.616 91.2288Q129.337 89.8602 131.088 88.531Q132.84 87.2017 134.621 85.9125Q136.402 84.6233 138.211 83.3749Q140.021 82.1264 141.859 80.9192Q143.696 79.7121 145.561 78.5469Q147.425 77.3817 149.316 76.2591Q151.206 75.1365 153.122 74.0571Q155.037 72.9776 156.976 71.9419Q158.916 70.9061 160.878 69.9146Q162.84 68.9231 164.825 67.9763Q166.809 67.0295 168.814 66.128Q170.82 65.2264 172.845 64.3706Q174.87 63.5147 176.914 62.705Q178.958 61.8952 181.02 61.1321Q183.082 60.3689 185.161 59.6527Q187.24 58.9364 189.334 58.2675Q191.428 57.5986 193.537 56.9773Q195.646 56.356 197.769 55.7827Q199.892 55.2094 202.027 54.6844Q204.162 54.1594 206.308 53.6829Q208.454 53.2064 210.611 52.7787Q212.768 52.3509 214.933 51.9722Q217.099 51.5935 219.273 51.264C225.088 50.3385 231.035 49.8739 236.9 49.3604Z"/>
	<path fill="#C81717" transform="matrix(1.164 0 0 1.164 0 0.000488281)" d="M243.953 61.6122Q246.107 61.5375 248.262 61.5137Q250.417 61.49 252.572 61.5172Q254.727 61.5444 256.88 61.6225Q259.034 61.7006 261.185 61.8297Q263.336 61.9587 265.484 62.1386Q267.631 62.3185 269.774 62.5491Q271.917 62.7797 274.053 63.0609Q276.19 63.3421 278.319 63.6737Q280.449 64.0054 282.57 64.3873Q284.691 64.7692 286.802 65.2011Q288.914 65.6331 291.014 66.1148Q293.115 66.5966 295.203 67.1278Q297.292 67.6591 299.367 68.2396Q301.443 68.8202 303.504 69.4496Q305.565 70.079 307.61 70.757Q309.656 71.435 311.685 72.1612Q313.714 72.8873 315.726 73.6613Q317.737 74.4352 319.729 75.2565Q321.722 76.0778 323.694 76.946Q325.667 77.8141 327.618 78.7287Q329.569 79.6433 331.499 80.6037Q333.428 81.5642 335.334 82.57Q337.24 83.5758 339.122 84.6263Q341.003 85.6769 342.859 86.7717Q344.716 87.8665 346.546 89.0049Q348.376 90.1432 350.178 91.3245Q351.98 92.5059 353.754 93.7295Q355.529 94.9531 357.273 96.2183Q359.018 97.4835 360.732 98.7896Q362.446 100.096 364.129 101.442Q365.812 102.788 367.462 104.174Q369.113 105.56 370.73 106.984Q372.445 108.492 374.122 110.042Q375.8 111.592 377.438 113.182Q379.077 114.773 380.676 116.404Q382.275 118.034 383.833 119.704Q385.392 121.373 386.908 123.081Q388.425 124.788 389.899 126.532Q391.374 128.277 392.804 130.057Q394.235 131.837 395.622 133.651Q397.008 135.466 398.35 137.314Q399.691 139.163 400.986 141.043Q402.282 142.924 403.531 144.836Q404.779 146.748 405.98 148.691Q407.182 150.633 408.335 152.604Q409.488 154.576 410.592 156.575Q411.696 158.574 412.75 160.6Q413.805 162.626 414.809 164.677Q415.814 166.728 416.767 168.803Q417.721 170.878 418.623 172.976Q419.525 175.074 420.375 177.194Q421.225 179.314 422.022 181.454Q422.82 183.593 423.565 185.752Q424.309 187.911 425.001 190.088Q425.692 192.265 426.329 194.458Q426.967 196.651 427.55 198.859Q428.133 201.067 428.662 203.289Q429.19 205.51 429.664 207.744Q430.138 209.978 430.556 212.224Q430.975 214.469 431.338 216.723Q431.701 218.978 432.009 221.241Q432.316 223.504 432.568 225.774Q432.819 228.044 433.015 230.319Q433.211 232.594 433.35 234.874C436.48 286.606 421.27 334.152 386.672 373.043C365.075 397.319 333.684 418.339 302.373 427.426C286.884 431.921 271.546 434.013 255.487 434.949Q253.266 435.008 251.045 435.014Q248.823 435.02 246.602 434.972Q244.381 434.925 242.162 434.824Q239.943 434.723 237.727 434.569Q235.511 434.415 233.299 434.208Q231.087 434.001 228.881 433.741Q226.675 433.481 224.475 433.168Q222.276 432.855 220.085 432.489Q217.894 432.124 215.712 431.706Q213.53 431.288 211.359 430.818Q209.188 430.347 207.028 429.825Q204.869 429.303 202.723 428.729Q200.577 428.155 198.445 427.53Q196.314 426.905 194.197 426.229Q192.081 425.553 189.982 424.827Q187.883 424.1 185.801 423.323Q183.72 422.546 181.658 421.72Q179.596 420.894 177.554 420.018Q175.513 419.142 173.493 418.218Q171.473 417.293 169.475 416.321Q167.478 415.348 165.505 414.328Q163.531 413.308 161.583 412.241Q159.635 411.174 157.713 410.06Q155.79 408.946 153.895 407.787Q152 406.628 150.134 405.423Q148.267 404.219 146.43 402.97Q144.593 401.721 142.786 400.428Q140.98 399.135 139.205 397.8Q137.429 396.464 135.687 395.086Q133.944 393.708 132.235 392.289Q130.526 390.87 128.852 389.41Q127.177 387.951 125.538 386.451Q123.862 384.912 122.225 383.333Q120.587 381.754 118.988 380.135Q117.39 378.516 115.831 376.859Q114.272 375.202 112.755 373.507Q111.237 371.812 109.761 370.08Q108.285 368.349 106.852 366.582Q105.419 364.815 104.03 363.013Q102.64 361.212 101.295 359.377Q99.9504 357.542 98.6506 355.675Q97.3508 353.808 96.097 351.909Q94.8433 350.011 93.6362 348.082Q92.4292 346.154 91.2696 344.196Q90.1101 342.239 88.9987 340.254Q87.8873 338.269 86.8248 336.257Q85.7622 334.245 84.7491 332.208Q83.736 330.171 82.773 328.11Q81.81 326.049 80.8976 323.965Q79.9852 321.881 79.124 319.775Q78.2628 317.669 77.4534 315.543Q76.6439 313.417 75.8866 311.271Q75.1293 309.126 74.4246 306.963Q73.72 304.8 73.0684 302.62Q72.4168 300.44 71.8186 298.245Q71.2205 296.05 70.6761 293.841Q70.1318 291.632 69.6415 289.41Q69.1513 287.189 68.7155 284.956Q68.2797 282.723 67.8986 280.48Q67.5175 278.237 67.1913 275.985Q66.8651 273.734 66.594 271.475Q66.3229 269.216 66.1071 266.951Q65.8913 264.686 65.7309 262.417Q65.5704 260.148 65.4655 257.875Q65.3452 255.55 65.2819 253.222Q65.2186 250.895 65.2122 248.566Q65.2059 246.238 65.2565 243.91Q65.3072 241.582 65.4147 239.257Q65.5223 236.931 65.6868 234.608Q65.8513 232.286 66.0726 229.968Q66.2939 227.65 66.5718 225.338Q66.8498 223.026 67.1842 220.722Q67.5186 218.418 67.9094 216.123Q68.3001 213.827 68.7469 211.542Q69.1937 209.257 69.6962 206.984Q70.1988 204.71 70.7569 202.45Q71.315 200.189 71.9282 197.943Q72.5414 195.697 73.2094 193.466Q73.8775 191.236 74.5999 189.022Q75.3223 186.809 76.0986 184.614Q76.875 182.419 77.7049 180.243Q78.5347 178.068 79.4176 175.913Q80.3004 173.759 81.2357 171.627Q82.1711 169.494 83.1583 167.386Q84.1455 165.277 85.184 163.193Q86.2226 161.109 87.3118 159.051Q88.401 156.993 89.5403 154.963Q90.6795 152.932 91.8681 150.93Q93.0568 148.928 94.294 146.955Q95.5313 144.983 96.8165 143.041Q98.1016 141.1 99.4339 139.19Q100.766 137.281 102.145 135.405Q103.524 133.528 104.948 131.686Q106.372 129.844 107.841 128.038Q109.309 126.231 110.822 124.461Q112.335 122.691 113.89 120.958Q115.166 119.56 116.471 118.189Q117.775 116.817 119.108 115.473Q120.441 114.129 121.801 112.813Q123.162 111.497 124.549 110.209Q125.937 108.921 127.35 107.662Q128.764 106.404 130.203 105.175Q131.643 103.945 133.108 102.746Q134.572 101.547 136.061 100.379Q137.551 99.2102 139.064 98.0728Q140.577 96.9354 142.113 95.8296Q143.649 94.7238 145.208 93.65Q146.767 92.5762 148.348 91.535Q149.928 90.4937 151.53 89.4854Q153.132 88.4771 154.755 87.5022Q156.377 86.5273 158.02 85.5862Q159.662 84.6452 161.323 83.7383Q162.985 82.8314 164.665 81.9592Q166.345 81.0869 168.042 80.2496Q169.74 79.4123 171.455 78.6104Q173.169 77.8084 174.9 77.0422Q176.631 76.2759 178.377 75.5457Q180.124 74.8154 181.885 74.1215Q183.646 73.4275 185.421 72.7702Q187.196 72.1129 188.984 71.4925Q190.773 70.8721 192.573 70.2889Q194.374 69.7057 196.187 69.1599Q197.999 68.6141 199.822 68.1059Q201.646 67.5977 203.479 67.1275Q205.313 66.6572 207.156 66.225Q208.999 65.7928 210.85 65.3988Q212.702 65.0049 214.561 64.6494Q216.42 64.2938 218.286 63.9769C226.742 62.5651 235.396 61.9969 243.953 61.6122Z"/>
	<path fill="#FCFCFB" transform="matrix(1.164 0 0 1.164 0 0.000488281)" d="M245.157 78.1132Q247.164 78.0485 249.173 78.033Q251.181 78.0174 253.19 78.0509Q255.198 78.0844 257.205 78.1669Q259.211 78.2495 261.216 78.3811Q263.22 78.5127 265.22 78.6932Q267.22 78.8737 269.216 79.1031Q271.211 79.3324 273.2 79.6105Q275.189 79.8885 277.171 80.2151Q279.153 80.5417 281.126 80.9166Q283.099 81.2915 285.063 81.7145Q287.026 82.1376 288.979 82.6084Q290.931 83.0793 292.872 83.5978Q294.812 84.1162 296.739 84.6819Q298.667 85.2476 300.579 85.8603Q302.492 86.4729 304.389 87.1321Q306.287 87.7913 308.167 88.4967Q310.048 89.2021 311.91 89.9532Q313.773 90.7043 315.617 91.5007Q317.461 92.2971 319.285 93.1384Q321.109 93.9796 322.911 94.8652Q324.714 95.7507 326.495 96.6801Q328.275 97.6094 330.033 98.582Q331.79 99.5546 333.523 100.57Q335.256 101.585 336.964 102.642Q338.671 103.7 340.353 104.798Q342.034 105.897 343.688 107.036Q345.342 108.176 346.968 109.356Q348.593 110.535 350.19 111.754Q351.786 112.973 353.352 114.23Q354.918 115.488 356.453 116.783Q357.988 118.079 359.491 119.412Q360.993 120.744 362.463 122.113C397.507 155.069 415.702 196.326 417.069 244.295Q417.134 246.385 417.147 248.476Q417.159 250.567 417.121 252.658Q417.082 254.749 416.991 256.838Q416.9 258.928 416.757 261.014Q416.615 263.1 416.421 265.182Q416.226 267.265 415.98 269.341Q415.734 271.418 415.437 273.488Q415.14 275.558 414.791 277.62Q414.443 279.682 414.043 281.735Q413.644 283.787 413.193 285.829Q412.743 287.871 412.242 289.902Q411.741 291.932 411.19 293.949Q410.639 295.967 410.038 297.97Q409.437 299.973 408.787 301.96Q408.137 303.948 407.437 305.918Q406.738 307.889 405.99 309.842Q405.241 311.795 404.445 313.728Q403.649 315.662 402.805 317.575Q401.961 319.489 401.069 321.38Q400.178 323.272 399.24 325.141Q398.302 327.01 397.318 328.856Q396.334 330.701 395.305 332.521Q394.276 334.341 393.201 336.136Q392.127 337.93 391.009 339.697Q389.89 341.464 388.728 343.203Q387.567 344.941 386.362 346.651Q385.157 348.36 383.911 350.039Q382.664 351.718 381.376 353.366Q380.088 355.013 378.76 356.628Q377.431 358.243 376.063 359.825Q374.695 361.407 373.289 362.954Q371.882 364.501 370.437 366.013Q369.026 367.499 367.579 368.95Q366.131 370.401 364.649 371.817Q363.167 373.232 361.65 374.611Q360.134 375.989 358.584 377.33Q357.034 378.671 355.452 379.974Q353.87 381.277 352.256 382.54Q350.643 383.804 348.998 385.027Q347.354 386.251 345.681 387.434Q344.007 388.617 342.305 389.759Q340.603 390.9 338.874 392Q337.144 393.099 335.388 394.156Q333.633 395.213 331.851 396.227Q330.07 397.241 328.265 398.21Q326.459 399.18 324.63 400.105Q322.802 401.031 320.951 401.911Q319.1 402.791 317.228 403.625Q315.356 404.46 313.465 405.249Q311.573 406.037 309.662 406.779Q307.752 407.521 305.824 408.216Q303.896 408.911 301.951 409.558Q300.007 410.206 298.047 410.805Q296.087 411.405 294.114 411.956Q292.14 412.508 290.153 413.011Q288.166 413.514 286.168 413.968Q284.169 414.422 282.16 414.827Q280.151 415.233 278.133 415.588Q276.115 415.944 274.088 416.25Q272.062 416.557 270.028 416.813Q267.995 417.07 265.956 417.276Q263.917 417.483 261.874 417.64Q259.83 417.796 257.783 417.903Q255.737 418.01 253.688 418.066L253.289 418.08Q251.274 418.127 249.258 418.125Q247.242 418.123 245.227 418.073Q243.212 418.022 241.199 417.922Q239.186 417.822 237.176 417.674Q235.165 417.525 233.159 417.328Q231.153 417.13 229.153 416.884Q227.152 416.638 225.158 416.344Q223.164 416.049 221.178 415.706Q219.191 415.364 217.214 414.973Q215.236 414.581 213.269 414.143Q211.302 413.704 209.346 413.217Q207.389 412.73 205.446 412.196Q203.502 411.663 201.572 411.082Q199.642 410.5 197.726 409.873Q195.811 409.245 193.911 408.571Q192.011 407.897 190.129 407.177Q188.246 406.457 186.381 405.691Q184.517 404.926 182.671 404.115Q180.825 403.305 179 402.45Q177.175 401.594 175.371 400.695Q173.567 399.796 171.785 398.853Q170.004 397.91 168.245 396.925Q166.487 395.939 164.753 394.911Q163.02 393.883 161.311 392.813Q159.603 391.743 157.921 390.631Q156.239 389.52 154.585 388.369Q152.931 387.217 151.305 386.025Q149.679 384.834 148.083 383.603Q146.486 382.372 144.92 381.103Q143.354 379.834 141.819 378.528Q140.285 377.221 138.782 375.877Q137.279 374.534 135.81 373.154Q134.265 371.715 132.756 370.239Q131.246 368.762 129.775 367.248Q128.303 365.734 126.869 364.185Q125.435 362.635 124.04 361.05Q122.645 359.465 121.29 357.846Q119.935 356.226 118.62 354.574Q117.306 352.922 116.033 351.237Q114.76 349.553 113.529 347.837Q112.299 346.121 111.111 344.376Q109.923 342.63 108.779 340.856Q107.635 339.081 106.536 337.278Q105.436 335.476 104.382 333.647Q103.328 331.817 102.319 329.962Q101.31 328.107 100.348 326.228Q99.386 324.349 98.4708 322.446Q97.5556 320.543 96.688 318.618Q95.8204 316.693 95.0008 314.747Q94.1813 312.802 93.4104 310.836Q92.6395 308.87 91.9176 306.886Q91.1958 304.902 90.5235 302.901Q89.8512 300.899 89.2288 298.882Q88.6064 296.864 88.0344 294.832Q87.4624 292.799 86.941 290.753Q86.4197 288.707 85.9493 286.649Q85.479 284.59 85.0599 282.521Q84.6408 280.452 84.2733 278.372Q83.9058 276.293 83.5901 274.206Q83.2744 272.118 83.0106 270.023Q82.7468 267.928 82.5352 265.828Q82.3236 263.727 82.1643 261.621Q82.0049 259.516 81.8979 257.407Q81.7909 255.299 81.7364 253.188Q81.6693 251.068 81.6546 248.947Q81.6399 246.827 81.6776 244.706Q81.7154 242.586 81.8055 240.467Q81.8956 238.348 82.038 236.232Q82.1805 234.116 82.3752 232.004Q82.5699 229.892 82.8167 227.786Q83.0635 225.679 83.3623 223.58Q83.6611 221.48 84.0117 219.388Q84.3623 217.297 84.7645 215.214Q85.1667 213.132 85.6202 211.06Q86.0737 208.988 86.5783 206.928Q87.0829 204.869 87.6382 202.822Q88.1936 200.775 88.7993 198.742Q89.4051 196.71 90.0609 194.693Q90.7166 192.676 91.4221 190.676Q92.1275 188.676 92.8821 186.694Q93.6368 184.712 94.4402 182.749Q95.2435 180.786 96.0952 178.844Q96.9468 176.902 97.8462 174.981Q98.7456 173.06 99.6922 171.163Q100.639 169.265 101.632 167.391Q102.625 165.517 103.664 163.668Q104.704 161.819 105.788 159.997Q106.873 158.174 108.002 156.379Q109.131 154.584 110.304 152.817Q111.478 151.051 112.694 149.313Q113.911 147.576 115.17 145.87Q116.429 144.163 117.73 142.488Q119.031 140.813 120.373 139.171Q121.715 137.529 123.097 135.92Q124.479 134.311 125.901 132.737Q127.322 131.163 128.782 129.625Q130.933 127.355 133.168 125.168Q135.403 122.981 137.719 120.879Q140.035 118.778 142.428 116.766Q144.822 114.753 147.29 112.832Q149.757 110.912 152.296 109.085Q154.834 107.259 157.44 105.53Q160.045 103.801 162.714 102.171Q165.383 100.542 168.112 99.0138Q170.84 97.486 173.624 96.0622Q176.409 94.6384 179.245 93.3207Q182.08 92.0029 184.964 90.7932Q187.848 89.5834 190.775 88.4832Q193.702 87.3831 196.669 86.3941Q199.635 85.4052 202.637 84.5289Q205.639 83.6526 208.672 82.8901Q211.705 82.1277 214.764 81.4802C224.673 79.4249 235.049 78.4307 245.157 78.1132Z"/>
	<path fill="#003965" transform="matrix(1.164 0 0 1.164 0 0.000488281)" d="M245.853 87.3694C287.054 86.7513 324.032 99.793 354.901 127.35Q357.341 129.517 359.689 131.783Q362.037 134.048 364.291 136.408Q366.544 138.768 368.699 141.219Q370.854 143.669 372.906 146.206Q374.958 148.743 376.905 151.362Q378.851 153.981 380.688 156.678Q382.525 159.375 384.25 162.145Q385.975 164.915 387.585 167.753Q389.194 170.592 390.686 173.494Q392.178 176.396 393.549 179.357Q394.921 182.318 396.169 185.333Q397.418 188.347 398.542 191.411Q399.665 194.474 400.662 197.581Q401.66 200.688 402.528 203.834Q403.397 206.979 404.136 210.158Q404.874 213.336 405.482 216.542C406.945 224.338 407.698 232.368 408.142 240.282Q408.247 242.257 408.305 244.233Q408.361 246.21 408.37 248.188Q408.378 250.165 408.338 252.142Q408.298 254.12 408.209 256.095Q408.12 258.071 407.983 260.044Q407.846 262.016 407.66 263.985Q407.475 265.954 407.241 267.918Q407.007 269.881 406.725 271.839Q406.443 273.796 406.113 275.746Q405.782 277.696 405.404 279.637Q405.027 281.578 404.601 283.509Q404.176 285.441 403.703 287.361Q403.23 289.281 402.71 291.189Q402.19 293.097 401.624 294.992Q401.057 296.886 400.445 298.767Q399.832 300.647 399.173 302.511Q398.514 304.376 397.809 306.224Q397.105 308.072 396.355 309.902Q395.606 311.732 394.811 313.543Q394.017 315.354 393.178 317.144Q392.34 318.935 391.457 320.705Q390.575 322.475 389.649 324.223Q388.724 325.97 387.755 327.695Q386.787 329.419 385.777 331.119Q384.767 332.819 383.715 334.494Q382.663 336.168 381.571 337.817Q380.478 339.465 379.345 341.086Q378.213 342.707 377.04 344.3Q375.868 345.893 374.657 347.456Q373.446 349.019 372.197 350.553Q370.948 352.086 369.662 353.588Q368.376 355.09 367.053 356.56Q364.948 358.879 362.755 361.114Q360.562 363.35 358.284 365.499Q356.006 367.647 353.646 369.706Q351.287 371.765 348.849 373.73Q346.411 375.696 343.899 377.566Q341.387 379.435 338.804 381.206Q336.221 382.977 333.571 384.646Q330.922 386.316 328.209 387.881Q325.497 389.446 322.726 390.905Q319.955 392.364 317.13 393.714Q314.304 395.065 311.428 396.304Q308.553 397.544 305.631 398.671Q302.709 399.798 299.746 400.811Q296.783 401.825 293.783 402.722Q290.782 403.619 287.75 404.4Q284.717 405.18 281.656 405.842C272.53 407.773 263.007 408.72 253.702 409.229C209.822 410.128 170.011 393.452 138.477 363.297C108.106 334.255 91.4376 292.67 90.5201 250.936Q90.3437 238.472 92.1352 226.136C92.8238 221.105 93.5342 216.016 94.6721 211.063C100.935 183.804 114.632 157.366 134.044 137.131C164.067 105.833 202.378 88.281 245.853 87.3694Z"/>
	<path fill="#FCFCFB" transform="matrix(1.164 0 0 1.164 0 0.000488281)" d="M184.988 148.603C190.426 148.09 198.495 149.412 204.074 150.178C211.345 151.176 218.052 154.233 224.69 157.203C229.424 159.321 234.697 160.693 239.116 163.433C245.062 167.12 249.713 175.326 253.834 180.956Q258.779 187.711 263.816 194.398C266.107 197.452 269.188 202.974 272.139 205.033C274.142 206.431 276.968 207.169 279.257 208.027L295.864 214.288C298.669 215.364 301.633 216.263 304.239 217.777C305.624 218.581 306.827 219.562 307.772 220.867C309.307 222.989 309.954 225.573 309.473 228.159C308.999 230.711 307.373 233.065 305.213 234.488C302.836 236.053 300.297 236.187 297.579 235.639C294.64 235.047 291.758 233.958 288.891 233.074C284.872 231.835 280.839 230.721 276.827 229.434C271.074 227.59 264.75 226.586 259.355 223.777C257.72 222.925 256.266 221.822 254.948 220.535C251.382 217.053 248.253 212.831 245.053 208.994C242.197 205.569 238.952 202.157 236.508 198.441C236.452 198.356 236.399 198.27 236.344 198.185C235.027 202.467 232.045 207.812 230.172 211.995C225.963 221.395 221.877 230.87 217.513 240.198C223.372 242.081 231.593 246.463 237.383 249.177C243.377 251.986 249.962 254.611 255.715 257.777C258.433 259.272 260.251 260.882 262.23 263.272C264.278 265.745 266.049 268.503 267.889 271.133Q272.011 277.069 276.264 282.912C283.965 293.523 291.406 304.264 298.854 315.052C301.85 319.392 305.14 323.621 307.974 328.057C308.813 329.371 309.838 331.022 310.216 332.536C310.86 335.109 310.346 337.976 308.966 340.22C307.516 342.577 305.39 344.176 302.7 344.794C301.136 344.802 299.196 344.925 297.786 344.152C293.908 342.026 289.307 336.067 286.206 332.751L272.655 318.235Q262.016 306.824 251.062 295.715C248.23 292.806 245.584 289.08 242.274 286.749C241.303 286.065 240.21 285.721 239.055 285.49C234.703 284.621 230.223 284.231 225.843 283.475C212.194 281.12 198.127 278.628 184.881 274.521C177.094 272.107 172.134 268.963 168.276 261.526C165.614 256.395 164.88 249.896 165.011 244.192C165.346 229.578 170.578 211.942 174.68 197.868C176.327 192.214 177.862 186.554 179.638 180.936C175.175 182.111 170.522 183.008 165.976 183.817C161.417 184.629 152.521 185.468 148.702 187.474C145.943 188.924 143.701 192.224 141.694 194.562Q134.865 202.508 128.144 210.545C125.317 213.913 122.538 217.853 119.15 220.646C117.58 221.939 115.78 222.925 113.747 223.224C111.491 223.555 109.492 222.966 107.708 221.567C105.624 219.933 104.131 217.438 103.91 214.774C103.775 213.139 104.144 211.449 104.884 209.99C107.124 205.575 111.151 201.091 114.05 196.975L126.558 179.297C128.799 176.144 130.96 172.821 133.413 169.834C134.864 168.068 136.355 166.702 138.322 165.525C143.25 162.576 149.171 160.612 154.489 158.444C161.069 155.761 168.76 152.314 175.498 150.355C178.61 149.45 181.769 148.937 184.988 148.603Z"/>
	<path fill="#FCFCFB" transform="matrix(1.164 0 0 1.164 0 0.000488281)" d="M348.95 162.457Q349.92 162.365 350.893 162.32Q351.867 162.276 352.841 162.279Q353.816 162.282 354.789 162.334Q355.762 162.385 356.731 162.484Q357.7 162.583 358.664 162.729Q359.627 162.875 360.582 163.069Q361.537 163.262 362.481 163.503Q363.426 163.743 364.357 164.029Q365.289 164.315 366.205 164.647Q367.121 164.978 368.02 165.355Q368.919 165.731 369.798 166.151Q370.677 166.571 371.535 167.033Q372.392 167.496 373.226 168Q374.06 168.504 374.868 169.049Q375.676 169.593 376.457 170.177Q377.237 170.76 377.988 171.381Q378.739 172.002 379.458 172.66Q380.177 173.317 380.863 174.009Q381.55 174.7 382.201 175.425Q382.853 176.15 383.468 176.905Q384.083 177.661 384.66 178.446Q385.237 179.231 385.775 180.044Q386.313 180.856 386.81 181.694Q387.308 182.532 387.763 183.393Q388.219 184.254 388.632 185.137Q389.045 186.02 389.414 186.922Q389.783 187.823 390.107 188.742Q390.431 189.661 390.71 190.595Q390.989 191.528 391.221 192.475Q391.454 193.421 391.64 194.377Q391.826 195.334 391.964 196.298Q392.103 197.263 392.194 198.233Q392.285 199.203 392.328 200.177Q392.372 201.15 392.367 202.124Q392.363 203.099 392.31 204.072Q392.258 205.045 392.158 206.014Q392.058 206.983 391.91 207.946Q391.763 208.909 391.568 209.864Q391.374 210.819 391.132 211.763Q390.891 212.707 390.604 213.638Q390.316 214.569 389.983 215.485Q389.651 216.401 389.273 217.299Q388.896 218.197 388.475 219.076Q388.054 219.955 387.591 220.812Q387.127 221.669 386.622 222.502Q386.117 223.335 385.571 224.143Q385.026 224.95 384.442 225.73Q383.857 226.51 383.235 227.26Q382.613 228.01 381.955 228.728Q381.297 229.447 380.604 230.132Q379.912 230.818 379.186 231.468Q378.461 232.119 377.705 232.733Q376.948 233.347 376.162 233.923Q375.377 234.5 374.564 235.037Q373.751 235.574 372.912 236.07Q372.074 236.566 371.212 237.021Q370.35 237.476 369.467 237.887Q368.584 238.299 367.682 238.667Q366.779 239.035 365.86 239.358Q364.941 239.681 364.007 239.959Q363.073 240.237 362.126 240.468Q361.18 240.7 360.223 240.884Q359.266 241.069 358.302 241.207Q357.337 241.344 356.367 241.434Q355.398 241.524 354.426 241.566Q353.454 241.608 352.481 241.603Q351.508 241.597 350.537 241.544Q349.566 241.491 348.598 241.39Q347.63 241.289 346.669 241.141Q345.707 240.993 344.754 240.798Q343.801 240.603 342.858 240.362Q341.916 240.12 340.986 239.832Q340.057 239.545 339.143 239.212Q338.228 238.88 337.332 238.503Q336.435 238.125 335.557 237.705Q334.68 237.284 333.825 236.821Q332.969 236.358 332.137 235.853Q331.305 235.349 330.499 234.804Q329.693 234.259 328.915 233.676Q328.136 233.092 327.387 232.471Q326.638 231.85 325.921 231.193Q325.203 230.536 324.519 229.845Q323.834 229.153 323.185 228.429Q322.535 227.705 321.921 226.95Q321.308 226.195 320.732 225.41Q320.156 224.626 319.62 223.814Q319.083 223.003 318.587 222.166Q318.091 221.329 317.637 220.469Q317.182 219.609 316.77 218.727Q316.359 217.846 315.991 216.945Q315.623 216.044 315.299 215.127Q314.976 214.209 314.698 213.277Q314.42 212.345 314.188 211.4Q313.956 210.455 313.77 209.5Q313.585 208.545 313.446 207.582Q313.308 206.619 313.217 205.65Q313.126 204.681 313.083 203.709Q313.039 202.737 313.044 201.764Q313.048 200.792 313.1 199.82Q313.152 198.849 313.252 197.881Q313.351 196.913 313.498 195.951Q313.645 194.989 313.839 194.036Q314.033 193.083 314.273 192.14Q314.514 191.197 314.8 190.267Q315.087 189.337 315.418 188.423Q315.75 187.508 316.126 186.611Q316.502 185.714 316.921 184.836Q317.341 183.958 317.803 183.102Q318.265 182.246 318.769 181.413Q319.272 180.581 319.816 179.774Q320.36 178.967 320.943 178.188Q321.525 177.409 322.145 176.659Q322.766 175.91 323.422 175.191Q324.078 174.473 324.769 173.788Q325.459 173.102 326.183 172.452Q326.906 171.801 327.66 171.187Q328.415 170.572 329.198 169.996Q329.982 169.419 330.793 168.882Q331.604 168.344 332.44 167.847Q333.277 167.35 334.136 166.894Q334.996 166.439 335.877 166.026Q336.758 165.613 337.658 165.244Q338.558 164.875 339.476 164.55Q340.393 164.226 341.325 163.947Q342.257 163.667 343.201 163.434Q344.146 163.201 345.101 163.015Q346.056 162.828 347.019 162.689Q347.982 162.549 348.95 162.457Z"/>
	<path fill="#003965" transform="matrix(1.164 0 0 1.164 0 0.000488281)" d="M326.296 205.89C329.87 205.619 333.513 205.652 337.096 205.679C338.775 207.551 340.764 209.273 342.565 211.04C344.752 213.187 346.935 215.666 349.4 217.482C348.726 221.382 348.425 225.401 348.109 229.345C346.409 229.828 344.729 230.487 343.057 231.067C341.331 231.616 339.582 232.016 337.818 232.42C337.271 232.254 336.722 232.084 336.192 231.871C330.398 229.537 323.991 222.212 321.569 216.541C322.248 213.215 323.063 209.476 324.348 206.341C325.025 205.858 325.478 205.941 326.296 205.89Z"/>
	<path fill="#003965" transform="matrix(1.164 0 0 1.164 0 0.000488281)" d="M366.156 208.983C368.156 209.178 374.894 213.75 377.478 214.863C377.62 218.551 377.667 222.184 377.37 225.87C373.643 230.488 368.216 233.373 362.499 234.727C357.938 235.336 354.287 232.239 350.648 229.9C351.137 225.733 351.261 221.439 352.291 217.36C356.818 214.491 361.364 211.392 366.156 208.983Z"/>
	<path fill="#003965" transform="matrix(1.164 0 0 1.164 0 0.000488281)" d="M372.316 181.721C375.271 182.773 381.084 184.228 382.994 186.686C385.582 190.015 387.773 198.436 387.218 202.638C386.737 206.274 382.072 209.926 379.358 212.026L378.894 212.205C375.022 210.89 371.211 208.435 367.639 206.47C366.606 200.831 366.153 194.968 364.553 189.454C367.189 187.074 370.031 184.431 372.316 181.721Z"/>
	<path fill="#003965" transform="matrix(1.164 0 0 1.164 0 0.000488281)" d="M333.133 175.035C333.833 175.119 334.569 175.184 335.254 175.348C339.424 176.348 341.909 182.928 343.923 186.391C341.7 190.339 337.688 198.365 336.206 202.465C334.119 202.496 332.023 202.655 329.938 202.764Q327.068 202.994 324.189 203.03C322.565 201.232 320.432 198.516 319.876 196.142C318.988 192.349 321.876 186.883 323.766 183.726C325.855 180.237 329.019 176.087 333.133 175.035Z"/>
	<path fill="#003965" transform="matrix(1.164 0 0 1.164 0 0.000488281)" d="M349.334 167.814C354.459 167.402 361.449 167.459 365.939 170.372C368.93 172.313 370.469 175.637 371.143 179.011C368.48 181.684 365.616 184.228 362.818 186.761C357.506 185.851 351.655 185.343 346.27 185.126C344.494 181.689 342.388 178.393 340.496 175.012Q340.689 174.736 340.887 174.462C343.182 171.283 345.226 168.484 349.334 167.814Z"/>
	<path fill="#FCFCFB" transform="matrix(1.164 0 0 1.164 0 0.000488281)" d="M173.311 275.648C175.733 276.656 177.714 278.805 180.213 279.881C189.972 284.083 200.269 285.895 210.65 287.8C211.664 293.877 213.554 299.777 215.02 305.755C215.755 308.75 216.635 311.854 216.678 314.954C216.712 317.342 215.972 319.904 214.599 321.869C212.876 324.334 210.407 326.414 208.245 328.483Q203.774 332.729 199.362 337.035Q187.139 349.271 175.125 361.712C172.066 364.874 168.917 368.997 164.238 369.571C161.676 369.885 159.138 368.964 157.181 367.321C155.104 365.577 153.888 363.081 153.669 360.387C153.475 357.99 154.044 355.805 155.194 353.714C157.837 348.904 163.416 342.733 166.934 338.188C173.84 329.266 180.532 320.086 187.661 311.349C186.292 308.759 185.319 305.93 184.191 303.228Q180.761 295.031 177.55 286.745C176.134 283.045 174.904 279.279 173.311 275.648Z"/>
	<path fill="#FCFCFB" transform="matrix(1.164 0 0 1.164 0 0.000488281)" d="M236.795 101.649Q237.444 101.573 238.096 101.529Q238.748 101.485 239.401 101.473Q240.055 101.461 240.708 101.48Q241.361 101.5 242.012 101.552Q242.664 101.604 243.312 101.687Q243.96 101.77 244.603 101.885Q245.246 102 245.883 102.146Q246.52 102.293 247.149 102.47Q247.778 102.647 248.398 102.855Q249.017 103.062 249.626 103.3Q250.235 103.538 250.831 103.805Q251.427 104.072 252.01 104.368Q252.592 104.664 253.16 104.988Q253.727 105.312 254.278 105.663Q254.829 106.015 255.362 106.393Q255.895 106.77 256.409 107.174Q256.923 107.577 257.417 108.005Q257.911 108.433 258.383 108.885Q258.855 109.337 259.305 109.811Q259.754 110.285 260.18 110.781Q260.606 111.276 261.007 111.792Q261.408 112.308 261.784 112.843Q262.159 113.378 262.508 113.93Q262.857 114.483 263.179 115.051Q263.5 115.62 263.794 116.204Q264.087 116.788 264.352 117.386Q264.616 117.983 264.851 118.593Q265.086 119.203 265.291 119.823Q265.496 120.444 265.67 121.073Q265.844 121.703 265.988 122.341Q266.131 122.978 266.243 123.622Q266.355 124.266 266.436 124.914Q266.517 125.562 266.565 126.214Q266.614 126.866 266.631 127.519Q266.648 128.172 266.633 128.825Q266.618 129.479 266.571 130.13Q266.524 130.782 266.445 131.431Q266.366 132.08 266.256 132.724Q266.145 133.368 266.004 134.006Q265.862 134.643 265.689 135.274Q265.517 135.904 265.314 136.525Q265.11 137.146 264.877 137.756Q264.644 138.367 264.381 138.965Q264.118 139.563 263.826 140.148Q263.534 140.733 263.215 141.302Q262.895 141.872 262.547 142.426Q262.2 142.979 261.826 143.515Q261.452 144.051 261.052 144.567Q260.652 145.084 260.228 145.581Q259.803 146.078 259.355 146.553Q258.906 147.029 258.436 147.482Q257.965 147.935 257.472 148.364Q256.979 148.793 256.467 149.198Q255.954 149.603 255.422 149.982Q254.89 150.362 254.34 150.715Q253.79 151.068 253.223 151.393Q252.656 151.719 252.075 152.016Q251.493 152.314 250.897 152.583Q250.302 152.851 249.694 153.091Q249.086 153.33 248.467 153.539Q247.848 153.749 247.219 153.928Q246.591 154.106 245.954 154.254Q245.318 154.402 244.675 154.519Q244.032 154.636 243.384 154.721Q242.73 154.807 242.073 154.861Q241.416 154.914 240.757 154.935Q240.098 154.956 239.438 154.945Q238.779 154.934 238.121 154.89Q237.463 154.846 236.808 154.77Q236.153 154.694 235.502 154.585Q234.852 154.477 234.208 154.336Q233.563 154.196 232.927 154.024Q232.29 153.852 231.663 153.649Q231.035 153.446 230.419 153.212Q229.802 152.978 229.198 152.715Q228.593 152.451 228.003 152.157Q227.412 151.864 226.837 151.542Q226.261 151.22 225.703 150.87Q225.144 150.52 224.603 150.142Q224.062 149.765 223.54 149.362Q223.019 148.958 222.518 148.53Q222.016 148.101 221.537 147.648Q221.058 147.195 220.601 146.72Q220.145 146.244 219.712 145.746Q219.28 145.248 218.872 144.729Q218.465 144.211 218.083 143.673Q217.702 143.135 217.348 142.579Q216.993 142.023 216.667 141.45Q216.34 140.877 216.042 140.289Q215.744 139.7 215.476 139.098Q215.207 138.496 214.969 137.881Q214.73 137.266 214.522 136.64Q214.314 136.015 214.138 135.379Q213.961 134.744 213.815 134.101Q213.67 133.458 213.557 132.808Q213.443 132.158 213.362 131.504Q213.281 130.85 213.232 130.192Q213.183 129.534 213.167 128.875Q213.15 128.216 213.166 127.557Q213.182 126.897 213.231 126.24Q213.279 125.582 213.36 124.927Q213.441 124.273 213.554 123.623Q213.667 122.974 213.812 122.33Q213.957 121.687 214.134 121.052Q214.31 120.416 214.518 119.79Q214.726 119.164 214.964 118.549Q215.202 117.934 215.47 117.332Q215.739 116.73 216.036 116.141Q216.334 115.553 216.66 114.98Q216.986 114.406 217.34 113.85Q217.694 113.294 218.076 112.756Q218.457 112.217 218.864 111.699Q219.271 111.18 219.703 110.682Q220.135 110.184 220.592 109.708Q221.048 109.232 221.527 108.778Q222.006 108.325 222.507 107.896Q223.008 107.468 223.53 107.064Q224.051 106.66 224.592 106.283Q225.133 105.905 225.691 105.555Q226.25 105.204 226.825 104.882Q227.401 104.56 227.991 104.266Q228.581 103.972 229.186 103.708Q229.79 103.444 230.406 103.21Q231.023 102.976 231.65 102.772Q232.277 102.569 232.914 102.397Q233.551 102.224 234.195 102.084Q234.839 101.943 235.49 101.834Q236.14 101.726 236.795 101.649Z"/>
</svg>
