<?xml version="1.0" encoding="utf-8" ?>
<svg xmlns="http://www.w3.org/2000/svg" xmlns:xlink="http://www.w3.org/1999/xlink" width="509" height="509">
	<path fill="#F9F8F7" transform="scale(1.01786 1.01786)" d="M237.748 61.1886Q242.256 60.9242 246.772 60.8813Q251.288 60.8384 255.801 61.0171Q260.313 61.1958 264.812 61.5957Q269.31 61.9956 273.783 62.6157Q278.257 63.2358 282.694 64.0746Q287.132 64.9135 291.523 65.969Q295.914 67.0245 300.248 68.2942Q304.581 69.5639 308.848 71.0447Q313.114 72.5254 317.303 74.2138Q321.492 75.9021 325.592 77.7939Q329.693 79.6856 333.696 81.7763Q337.699 83.867 341.595 86.1516Q345.49 88.4362 349.269 90.9091Q353.048 93.382 356.701 96.0374Q360.354 98.6928 363.872 101.524Q367.391 104.356 370.766 107.356Q374.141 110.357 377.365 113.519Q380.589 116.682 383.653 119.999Q386.718 123.316 389.617 126.779Q392.515 130.242 395.24 133.844Q397.965 137.445 400.51 141.176Q403.055 144.906 405.414 148.757Q407.773 152.608 409.94 156.57Q412.107 160.533 414.078 164.596Q416.048 168.66 417.816 172.815Q419.584 176.971 421.147 181.208Q422.709 185.445 424.062 189.754Q425.415 194.063 426.554 198.433Q427.694 202.803 428.618 207.223Q429.542 211.644 430.247 216.104Q430.953 220.565 431.44 225.055Q431.926 229.545 432.191 234.053Q432.456 238.561 432.5 243.077Q432.544 247.593 432.366 252.106Q432.188 256.618 431.79 261.117Q431.391 265.615 430.771 270.088Q430.152 274.562 429.314 279Q428.477 283.437 427.422 287.828Q426.367 292.22 425.099 296.554Q423.83 300.888 422.35 305.155Q420.87 309.422 419.183 313.61Q417.495 317.799 415.604 321.901Q413.713 326.002 411.623 330.005Q409.534 334.009 407.25 337.905Q404.966 341.801 402.494 345.58Q400.022 349.36 397.367 353.013Q394.713 356.667 391.882 360.185Q389.051 363.704 386.052 367.08Q383.052 370.456 379.89 373.68Q376.728 376.905 373.412 379.97Q370.095 383.036 366.633 385.935Q363.17 388.834 359.569 391.56Q355.969 394.286 352.239 396.832Q348.508 399.377 344.658 401.737Q340.807 404.097 336.846 406.265Q332.884 408.433 328.821 410.404Q324.758 412.375 320.602 414.144Q316.447 415.913 312.21 417.477Q307.974 419.04 303.665 420.394Q299.357 421.747 294.987 422.888Q290.617 424.028 286.197 424.953Q281.777 425.878 277.316 426.585Q272.856 427.292 268.366 427.779Q263.876 428.266 259.368 428.532Q254.859 428.798 250.341 428.843Q245.824 428.888 241.311 428.711Q236.797 428.534 232.297 428.136Q227.797 427.737 223.323 427.119Q218.848 426.5 214.409 425.663Q209.97 424.825 205.577 423.771Q201.185 422.717 196.849 421.448Q192.514 420.179 188.246 418.7Q183.978 417.22 179.787 415.532Q175.597 413.845 171.495 411.954Q167.392 410.062 163.388 407.972Q159.383 405.882 155.486 403.598Q151.588 401.314 147.808 398.841Q144.027 396.368 140.373 393.713Q136.718 391.058 133.198 388.227Q129.678 385.395 126.302 382.395Q122.925 379.394 119.7 376.231Q116.474 373.069 113.408 369.751Q110.342 366.434 107.442 362.97Q104.542 359.507 101.816 355.905Q99.0898 352.303 96.5435 348.572Q93.9973 344.84 91.6372 340.988Q89.2771 337.137 87.1089 333.174Q84.9407 329.211 82.9696 325.146Q80.9985 321.082 79.2292 316.925Q77.4599 312.769 75.8968 308.531Q74.3336 304.292 72.9803 299.983Q71.627 295.673 70.4869 291.302Q69.3467 286.931 68.4224 282.509Q67.4981 278.087 66.792 273.625Q66.0858 269.164 65.5994 264.673Q65.1131 260.182 64.8477 255.672Q64.5823 251.163 64.5385 246.645Q64.4947 242.128 64.6727 237.615Q64.8506 233.101 65.2498 228.601Q65.6491 224.102 66.2686 219.627Q66.8882 215.152 67.7266 210.714Q68.565 206.275 69.6203 201.882Q70.6755 197.49 71.945 193.155Q73.2145 188.82 74.6953 184.552Q76.176 180.284 77.8644 176.094Q79.5528 171.904 81.4447 167.802Q83.3367 163.701 85.4277 159.696Q87.5187 155.692 89.8036 151.795Q92.0886 147.899 94.562 144.119Q97.0355 140.339 99.6915 136.685Q102.347 133.031 105.18 129.511Q108.012 125.992 111.013 122.616Q114.014 119.24 117.178 116.015Q120.341 112.791 123.659 109.725Q126.977 106.66 130.441 103.761Q133.906 100.862 137.508 98.136Q141.11 95.4104 144.842 92.865Q148.574 90.3195 152.426 87.9603Q156.279 85.601 160.242 83.4336Q164.205 81.2663 168.27 79.296Q172.335 77.3257 176.492 75.5573Q180.649 73.7889 184.887 72.2267Q189.126 70.6644 193.436 69.312Q197.746 67.9596 202.117 66.8204Q206.489 65.6811 210.911 64.7578Q215.332 63.8344 219.794 63.1291Q224.256 62.4239 228.747 61.9385Q233.238 61.453 237.748 61.1886Z"/>
	<path fill="#DE2C24" transform="scale(1.01786 1.01786)" d="M248.997 75.2515Q253.163 75.2542 257.325 75.4611Q261.486 75.6681 265.632 76.0788Q269.778 76.4895 273.899 77.1031Q278.02 77.7167 282.105 78.5315Q286.191 79.3465 290.232 80.3607Q294.273 81.375 298.26 82.5862Q302.246 83.7974 306.168 85.2026Q310.091 86.6078 313.939 88.2037Q317.788 89.7996 321.553 91.5822Q325.319 93.3649 328.993 95.3301Q332.667 97.2953 336.24 99.4382Q339.813 101.581 343.276 103.897Q346.74 106.212 350.086 108.695Q353.432 111.178 356.652 113.821Q359.872 116.465 362.958 119.264Q366.045 122.062 368.991 125.008Q371.936 127.955 374.734 131.042Q377.531 134.129 380.174 137.35Q382.817 140.571 385.299 143.918Q387.781 147.264 390.095 150.728Q392.41 154.193 394.552 157.766Q396.694 161.34 398.658 165.014Q400.623 168.688 402.404 172.454Q404.186 176.22 405.781 180.069Q407.376 183.918 408.78 187.841Q410.184 191.764 411.394 195.75Q412.604 199.737 413.618 203.778Q414.631 207.82 415.445 211.906Q416.258 215.992 416.871 220.113Q417.483 224.234 417.893 228.38Q418.303 232.526 418.509 236.687Q418.714 240.849 418.716 245.015Q418.718 249.181 418.515 253.343Q418.312 257.504 417.905 261.651Q417.499 265.797 416.889 269.918Q416.28 274.04 415.469 278.127Q414.659 282.213 413.648 286.255Q412.638 290.297 411.431 294.285Q410.224 298.272 408.823 302.196Q407.421 306.12 405.829 309.97Q404.237 313.82 402.459 317.587Q400.68 321.355 398.718 325.031Q396.757 328.706 394.617 332.281Q392.478 335.857 390.166 339.323Q387.854 342.788 385.375 346.137Q382.895 349.485 380.255 352.708Q377.615 355.931 374.819 359.02Q372.024 362.11 369.081 365.058Q366.137 368.007 363.053 370.808Q359.968 373.608 356.75 376.254Q353.532 378.901 350.188 381.386Q346.844 383.871 343.382 386.189Q339.92 388.507 336.349 390.653Q332.778 392.798 329.105 394.766Q325.433 396.734 321.669 398.52Q317.904 400.305 314.057 401.904Q310.21 403.503 306.289 404.911Q302.367 406.319 298.382 407.533Q294.396 408.747 290.356 409.765Q286.316 410.782 282.231 411.6Q278.146 412.418 274.025 413.035Q269.905 413.651 265.759 414.065Q261.613 414.479 257.452 414.689Q253.291 414.899 249.125 414.905Q244.953 414.911 240.786 414.712Q236.619 414.513 232.467 414.109Q228.315 413.706 224.188 413.099Q220.06 412.492 215.968 411.684Q211.875 410.875 207.827 409.866Q203.779 408.858 199.786 407.651Q195.792 406.445 191.863 405.044Q187.933 403.644 184.077 402.051Q180.222 400.459 176.448 398.68Q172.675 396.9 168.994 394.938Q165.313 392.975 161.732 390.834Q158.152 388.693 154.681 386.379Q151.21 384.065 147.857 381.583Q144.504 379.101 141.276 376.458Q138.049 373.814 134.956 371.016Q131.862 368.217 128.91 365.27Q125.957 362.323 123.153 359.234Q120.349 356.145 117.7 352.923Q115.051 349.7 112.563 346.351Q110.075 343.003 107.755 339.536Q105.434 336.069 103.287 332.492Q101.14 328.915 99.1709 325.238Q97.2018 321.56 95.4157 317.79Q93.6296 314.02 92.0307 310.167Q90.4318 306.314 89.0241 302.387Q87.6163 298.46 86.4031 294.468Q85.1899 290.477 84.1741 286.431Q83.1583 282.385 82.3423 278.293Q81.5264 274.202 80.9124 270.076Q80.2983 265.95 79.8876 261.798Q79.4769 257.647 79.2705 253.48Q79.0641 249.314 79.0625 245.142Q79.0609 240.97 79.2642 236.804Q79.4675 232.637 79.8751 228.485Q80.2827 224.333 80.8937 220.207Q81.5046 216.08 82.3175 211.988Q83.1303 207.896 84.1431 203.85Q85.1558 199.803 86.3661 195.81Q87.5763 191.818 88.9811 187.89Q90.3859 183.962 91.9819 180.108Q93.5778 176.253 95.3611 172.482Q97.1444 168.711 99.1107 165.031Q101.077 161.352 103.222 157.774Q105.366 154.196 107.684 150.727Q110.002 147.258 112.487 143.908Q114.972 140.557 117.619 137.333Q120.265 134.108 123.067 131.017Q125.869 127.927 128.819 124.977Q131.769 122.028 134.861 119.227Q137.952 116.426 141.178 113.78Q144.403 111.134 147.754 108.649Q151.106 106.165 154.575 103.848Q158.044 101.532 161.623 99.388Q165.202 97.2443 168.881 95.2789Q172.561 93.3136 176.333 91.5313Q180.105 89.749 183.959 88.154Q187.814 86.559 191.743 85.1553Q195.671 83.7515 199.664 82.5423Q203.656 81.3331 207.703 80.3214Q211.75 79.3096 215.842 78.4979Q219.934 77.6861 224.061 77.0762Q228.188 76.4663 232.34 76.0598Q236.492 75.6532 240.659 75.4511Q244.825 75.2489 248.997 75.2515Z"/>
	<path fill="#F9F8F7" transform="scale(1.01786 1.01786)" d="M238.864 93.0297Q242.611 92.7835 246.366 92.7218Q250.121 92.66 253.874 92.7829Q257.627 92.9057 261.37 93.2129Q265.113 93.5201 268.836 94.0108Q272.559 94.5016 276.253 95.1747Q279.948 95.8478 283.605 96.7017Q287.261 97.5556 290.872 98.5881Q294.482 99.6207 298.038 100.829Q301.593 102.038 305.085 103.42Q308.577 104.802 311.996 106.354Q315.416 107.906 318.755 109.624Q322.094 111.342 325.345 113.223Q328.596 115.103 331.75 117.141Q334.904 119.178 337.955 121.368Q341.005 123.559 343.944 125.896Q346.883 128.234 349.704 130.713Q352.525 133.192 355.22 135.807Q357.915 138.421 360.479 141.165Q363.043 143.909 365.468 146.776Q367.894 149.643 370.176 152.625Q372.458 155.608 374.59 158.699Q376.723 161.79 378.701 164.982Q380.679 168.174 382.498 171.459Q384.316 174.745 385.971 178.116Q387.627 181.487 389.114 184.935Q390.602 188.383 391.918 191.9Q393.234 195.417 394.376 198.994Q395.517 202.572 396.482 206.201Q397.447 209.83 398.232 213.503Q399.017 217.175 399.62 220.882Q400.224 224.588 400.644 228.32Q401.065 232.051 401.302 235.799Q401.539 239.547 401.591 243.302Q401.643 247.057 401.511 250.81Q401.379 254.563 401.062 258.304Q400.746 262.046 400.246 265.768Q399.746 269.49 399.063 273.183Q398.381 276.875 397.518 280.53Q396.655 284.185 395.613 287.793Q394.572 291.401 393.354 294.953Q392.136 298.506 390.746 301.994Q389.355 305.482 387.794 308.898Q386.234 312.313 384.507 315.648Q382.781 318.983 380.892 322.229Q379.004 325.475 376.959 328.624Q374.913 331.774 372.715 334.818Q370.517 337.863 368.172 340.797Q365.828 343.73 363.341 346.544Q360.855 349.359 358.234 352.048Q355.612 354.736 352.862 357.293Q350.111 359.85 347.239 362.268Q344.366 364.687 341.378 366.961Q338.389 369.236 335.293 371.36Q332.197 373.485 329 375.455Q325.803 377.425 322.513 379.236Q319.223 381.046 315.848 382.693Q312.473 384.34 309.021 385.819Q305.569 387.297 302.049 388.605Q298.528 389.912 294.948 391.045Q291.368 392.178 287.736 393.133Q284.104 394.089 280.43 394.864Q276.756 395.64 273.048 396.235Q269.34 396.829 265.607 397.24Q261.874 397.652 258.126 397.879Q254.39 398.106 250.647 398.149Q246.903 398.193 243.163 398.052Q239.422 397.912 235.693 397.589Q231.963 397.266 228.254 396.761Q224.545 396.255 220.865 395.569Q217.186 394.882 213.544 394.016Q209.902 393.15 206.307 392.107Q202.712 391.063 199.173 389.845Q195.633 388.627 192.157 387.237Q188.682 385.847 185.279 384.288Q181.875 382.729 178.552 381.006Q175.229 379.282 171.995 377.398Q168.76 375.513 165.622 373.473Q162.484 371.432 159.449 369.24Q156.415 367.049 153.491 364.711Q150.568 362.373 147.762 359.895Q144.957 357.416 142.276 354.804Q139.596 352.191 137.046 349.45Q134.497 346.709 132.084 343.847Q129.672 340.984 127.403 338.007Q125.134 335.03 123.014 331.945Q120.893 328.86 118.927 325.675Q116.96 322.49 115.152 319.212Q113.343 315.935 111.698 312.573Q110.052 309.211 108.573 305.772Q107.094 302.333 105.785 298.826Q104.477 295.319 103.341 291.752Q102.206 288.185 101.247 284.566Q100.288 280.948 99.5068 277.287Q98.726 273.626 98.1255 269.931Q97.525 266.237 97.1062 262.517Q96.6874 258.797 96.4514 255.061Q96.2153 251.325 96.1626 247.582Q96.1099 243.839 96.2405 240.098Q96.3712 236.357 96.685 232.627Q96.9988 228.897 97.495 225.187Q97.9911 221.476 98.6685 217.795Q99.3458 214.113 100.203 210.469Q101.06 206.826 102.094 203.228Q103.128 199.63 104.338 196.088Q105.547 192.545 106.928 189.066Q108.31 185.587 109.86 182.18Q111.41 178.773 113.126 175.445Q114.841 172.118 116.717 168.879Q118.593 165.64 120.626 162.497Q122.659 159.353 124.843 156.313Q127.027 153.273 129.358 150.344Q131.688 147.415 134.159 144.603Q136.631 141.791 139.237 139.104Q141.843 136.417 144.577 133.861Q147.312 131.304 150.168 128.885Q153.024 126.466 155.996 124.189Q158.968 121.913 162.047 119.785Q165.127 117.656 168.307 115.682Q171.487 113.707 174.76 111.89Q178.033 110.074 181.391 108.42Q184.749 106.766 188.184 105.278Q191.619 103.791 195.123 102.473Q198.627 101.156 202.191 100.011Q205.755 98.8672 209.371 97.899Q212.987 96.9307 216.646 96.1408Q220.305 95.3508 223.998 94.741Q227.691 94.1313 231.41 93.7032Q235.129 93.2751 238.864 93.0297Z"/>
	<path fill="#0E3E62" transform="scale(1.01786 1.01786)" d="M245.746 102.707Q249.25 102.635 252.753 102.734Q256.257 102.833 259.751 103.105Q263.245 103.376 266.722 103.818Q270.198 104.26 273.649 104.872Q277.1 105.485 280.517 106.265Q283.933 107.046 287.308 107.993Q290.682 108.941 294.006 110.052Q297.329 111.164 300.595 112.437Q303.86 113.711 307.059 115.142Q310.258 116.574 313.382 118.162Q316.507 119.749 319.55 121.487Q322.593 123.226 325.548 125.111Q328.502 126.997 331.36 129.025Q334.218 131.053 336.974 133.219Q339.729 135.385 342.375 137.684Q345.02 139.982 347.55 142.408Q350.08 144.833 352.488 147.38Q354.896 149.926 357.176 152.588Q359.456 155.25 361.603 158.02Q363.749 160.79 365.758 163.662Q367.766 166.535 369.631 169.502Q371.496 172.469 373.213 175.524Q374.931 178.579 376.496 181.715Q378.061 184.851 379.471 188.06Q380.881 191.268 382.131 194.542Q383.382 197.816 384.471 201.148Q385.559 204.479 386.483 207.86Q387.407 211.241 388.164 214.663Q388.921 218.085 389.509 221.54Q390.097 224.995 390.515 228.474Q390.933 231.954 391.18 235.45Q391.427 238.946 391.502 242.45Q391.577 245.954 391.48 249.457Q391.383 252.961 391.115 256.455Q390.846 259.95 390.407 263.427Q389.967 266.904 389.357 270.355Q388.748 273.806 387.97 277.224Q387.191 280.641 386.247 284.016Q385.302 287.391 384.193 290.715Q383.083 294.04 381.812 297.306Q380.542 300.572 379.112 303.772Q377.682 306.972 376.098 310.098Q374.513 313.224 372.777 316.269Q371.04 319.313 369.157 322.269Q367.274 325.224 365.247 328.084Q363.221 330.944 361.057 333.701Q358.893 336.458 356.597 339.105Q354.3 341.753 351.877 344.284Q349.453 346.816 346.908 349.226Q344.363 351.635 341.703 353.918Q339.043 356.2 336.275 358.348Q333.506 360.497 330.635 362.508Q327.764 364.518 324.798 366.385Q321.833 368.253 318.779 369.972Q315.725 371.692 312.59 373.259Q309.456 374.827 306.248 376.239Q303.04 377.651 299.767 378.904Q296.494 380.157 293.163 381.248Q289.833 382.339 286.453 383.266Q283.073 384.192 279.651 384.951Q276.23 385.711 272.775 386.301Q269.32 386.892 265.841 387.313Q262.362 387.733 258.866 387.983Q255.37 388.232 251.866 388.31Q248.359 388.388 244.852 388.293Q241.345 388.199 237.847 387.932Q234.349 387.666 230.869 387.228Q227.388 386.79 223.933 386.181Q220.478 385.573 217.058 384.796Q213.637 384.019 210.258 383.075Q206.879 382.131 203.551 381.022Q200.223 379.913 196.953 378.642Q193.684 377.371 190.48 375.941Q187.277 374.511 184.148 372.926Q181.018 371.34 177.97 369.603Q174.923 367.866 171.964 365.982Q169.005 364.097 166.142 362.069Q163.28 360.042 160.52 357.876Q157.76 355.71 155.11 353.412Q152.46 351.113 149.926 348.687Q147.392 346.261 144.98 343.714Q142.568 341.167 140.284 338.504Q138 335.841 135.85 333.07Q133.699 330.298 131.688 327.424Q129.676 324.55 127.807 321.581Q125.939 318.612 124.219 315.555Q122.499 312.497 120.93 309.359Q119.362 306.221 117.95 303.01Q116.538 299.799 115.285 296.522Q114.032 293.245 112.942 289.911Q111.851 286.577 110.926 283.193Q110 279.809 109.242 276.384Q108.484 272.959 107.894 269.501Q107.305 266.043 106.886 262.56Q106.468 259.077 106.22 255.578Q105.973 252.078 105.898 248.571Q105.823 245.064 105.92 241.557Q106.017 238.05 106.286 234.553Q106.555 231.055 106.996 227.575Q107.436 224.094 108.047 220.64Q108.658 217.185 109.438 213.765Q110.218 210.345 111.164 206.967Q112.111 203.589 113.222 200.262Q114.334 196.934 115.607 193.665Q116.88 190.397 118.313 187.194Q119.745 183.992 121.333 180.864Q122.92 177.736 124.66 174.689Q126.399 171.643 128.286 168.685Q130.173 165.728 132.203 162.867Q134.232 160.006 136.4 157.247Q138.568 154.489 140.868 151.841Q143.169 149.193 145.597 146.66Q148.025 144.128 150.574 141.718Q153.123 139.308 155.787 137.026Q158.452 134.744 161.225 132.596Q163.998 130.447 166.874 128.438Q169.749 126.428 172.719 124.562Q175.69 122.696 178.749 120.978Q181.807 119.26 184.946 117.694Q188.086 116.128 191.298 114.718Q194.51 113.309 197.788 112.058Q201.065 110.808 204.4 109.72Q207.736 108.632 211.12 107.709Q214.504 106.786 217.93 106.03Q221.356 105.274 224.814 104.688Q228.273 104.101 231.756 103.685Q235.24 103.269 238.739 103.024Q242.239 102.78 245.746 102.707Z"/>
	<path fill="#F9F8F7" transform="scale(1.01786 1.01786)" d="M213.431 173.55C216.733 173.405 219.739 173.98 222.765 175.329C233.497 180.113 247.585 195.294 257.515 202.834C264.307 198.94 271.075 190.991 278.9 189.716C280.31 189.486 282.028 189.454 283.22 190.38C284.424 191.315 284.901 194.922 285.477 196.411C286.82 199.887 292.235 204.053 292.516 207.706C290.167 210.779 284.573 214.114 281.354 216.555C276.194 220.468 271.109 224.87 265.605 228.285C263.66 229.492 261.872 230.36 259.646 230.949C256.045 231.903 252.547 231.461 249.144 230.025C245.268 228.39 242.002 225.525 238.763 222.906L225.843 212.519C222.922 210.148 219.958 207.361 216.698 205.476L216.377 205.293C215.823 207.104 215.482 209.016 215.07 210.866C221.397 215.328 227.627 221.415 234.031 226.194C232.329 234.776 229.708 243.148 227.848 251.699C230.299 254.189 233.35 256.261 236.06 258.483Q246.471 267.106 257.243 275.272C260.529 277.767 264.145 279.987 267.09 282.888C269.325 285.091 271.209 287.863 272.451 290.745C274.346 295.144 275.467 299.773 276.77 304.365L281.426 320.378C283.619 327.906 286.393 335.341 288.31 342.941C288.63 344.209 288.783 345.424 288.787 346.733C288.798 350.763 287.412 354.451 284.507 357.28C281.362 360.343 277.479 361.543 273.167 361.473C269.691 360.967 265.909 359.336 263.617 356.585C260.049 352.302 259.291 345.261 257.746 340.049C255.833 333.595 253.311 327.282 251.215 320.883C250.095 317.461 248.89 314.058 247.792 310.632C247.073 308.391 246.543 305.76 245.43 303.69C244.841 302.593 243.767 301.639 242.822 300.839C237.862 296.636 232.267 293.012 227.103 289.034C221.971 285.081 217.027 280.556 211.696 276.909C210.835 276.32 209.837 275.58 208.749 275.676C207.966 277.146 210.538 299.268 210.57 303.209C210.587 305.315 210.416 307.461 209.876 309.503C208.407 315.061 204.217 319.73 201.005 324.394C195.524 332.353 188.309 341.962 184.363 350.631C182.254 352.177 180.081 353.78 177.6 354.673Q176.984 354.897 176.348 355.059Q175.713 355.221 175.064 355.319Q174.416 355.418 173.761 355.452Q173.106 355.486 172.451 355.455Q171.796 355.424 171.147 355.328Q170.498 355.233 169.862 355.074Q169.225 354.914 168.608 354.693Q167.991 354.472 167.398 354.191C163.949 352.565 161.001 349.491 159.786 345.847C158.85 343.041 158.971 339.617 159.907 336.825C161.133 333.168 163.818 329.998 165.983 326.859C168.695 322.929 171.203 318.862 173.922 314.936C176.509 311.198 179.756 307.35 181.727 303.27C181.775 303.172 181.819 303.073 181.865 302.975C181.321 297.839 181.172 292.6 180.777 287.442C179.668 272.97 178.609 260.162 180.621 245.636C182.215 234.126 185.474 222.257 188.329 210.978C190.616 201.945 192.638 191.766 197.859 183.94C201.867 177.933 206.384 174.931 213.431 173.55Z"/>
	<path fill="#F9F8F7" transform="scale(1.01786 1.01786)" d="M242.995 125.811Q243.607 125.721 244.223 125.661Q244.839 125.601 245.457 125.572Q246.075 125.542 246.694 125.543Q247.312 125.544 247.93 125.575Q248.548 125.607 249.164 125.669Q249.78 125.73 250.391 125.822Q251.003 125.914 251.61 126.036Q252.216 126.158 252.816 126.31Q253.416 126.461 254.008 126.642Q254.6 126.823 255.182 127.033Q255.764 127.243 256.335 127.481Q256.906 127.719 257.464 127.985Q258.023 128.251 258.568 128.544Q259.113 128.837 259.643 129.157Q260.173 129.477 260.686 129.822Q261.199 130.167 261.695 130.537Q262.191 130.907 262.668 131.301Q263.145 131.695 263.602 132.112Q264.059 132.529 264.495 132.969Q264.931 133.408 265.345 133.867Q265.759 134.327 266.15 134.807Q266.541 135.287 266.907 135.785Q267.274 136.284 267.616 136.799Q267.958 137.315 268.274 137.847Q268.59 138.379 268.879 138.926Q269.168 139.473 269.431 140.033Q269.693 140.594 269.927 141.166Q270.161 141.739 270.367 142.323Q270.573 142.906 270.75 143.499Q270.927 144.092 271.074 144.693Q271.222 145.294 271.339 145.901Q271.457 146.509 271.545 147.121Q271.633 147.733 271.69 148.35Q271.748 148.966 271.775 149.584Q271.802 150.202 271.799 150.821Q271.796 151.439 271.762 152.057Q271.728 152.675 271.664 153.29Q271.6 153.906 271.506 154.517Q271.411 155.129 271.287 155.735Q271.163 156.341 271.009 156.94Q270.855 157.539 270.672 158.13Q270.489 158.721 270.277 159.303Q270.065 159.884 269.825 160.454Q269.584 161.024 269.316 161.582Q269.048 162.139 268.753 162.683Q268.458 163.227 268.136 163.756Q267.815 164.284 267.467 164.796Q267.12 165.308 266.748 165.803Q266.376 166.297 265.98 166.773Q265.585 167.248 265.166 167.704Q264.747 168.159 264.307 168.594Q263.866 169.028 263.404 169.44Q262.943 169.852 262.462 170.241Q261.981 170.63 261.481 170.995Q260.981 171.36 260.464 171.7Q259.947 172.04 259.414 172.353Q258.881 172.667 258.333 172.955Q257.785 173.242 257.223 173.502Q256.662 173.762 256.089 173.994Q255.515 174.227 254.931 174.43Q254.346 174.634 253.753 174.808Q253.159 174.983 252.558 175.128Q251.956 175.274 251.349 175.389Q250.741 175.505 250.128 175.59Q249.518 175.675 248.905 175.73Q248.292 175.785 247.676 175.81Q247.061 175.835 246.445 175.83Q245.83 175.825 245.215 175.79Q244.6 175.754 243.988 175.689Q243.375 175.624 242.767 175.528Q242.159 175.433 241.556 175.308Q240.953 175.183 240.357 175.029Q239.761 174.875 239.173 174.692Q238.585 174.508 238.007 174.296Q237.428 174.085 236.861 173.845Q236.294 173.605 235.739 173.338Q235.185 173.07 234.644 172.776Q234.103 172.482 233.577 172.162Q233.051 171.841 232.541 171.496Q232.032 171.15 231.54 170.78Q231.048 170.41 230.574 170.016Q230.101 169.622 229.647 169.205Q229.194 168.789 228.761 168.351Q228.329 167.912 227.918 167.454Q227.508 166.995 227.12 166.516Q226.732 166.038 226.368 165.541Q226.005 165.044 225.666 164.53Q225.327 164.016 225.013 163.486Q224.7 162.956 224.413 162.411Q224.126 161.867 223.865 161.308Q223.605 160.75 223.373 160.18Q223.14 159.61 222.936 159.029Q222.732 158.448 222.556 157.858Q222.38 157.268 222.234 156.67Q222.087 156.072 221.97 155.467Q221.853 154.863 221.766 154.253Q221.679 153.643 221.621 153.03Q221.564 152.417 221.537 151.802Q221.509 151.187 221.512 150.571Q221.515 149.956 221.548 149.341Q221.581 148.726 221.644 148.113Q221.707 147.501 221.8 146.892Q221.893 146.283 222.015 145.68Q222.138 145.077 222.29 144.48Q222.442 143.883 222.623 143.295Q222.804 142.706 223.014 142.127Q223.223 141.548 223.461 140.98Q223.699 140.412 223.964 139.856Q224.229 139.301 224.521 138.759Q224.813 138.217 225.132 137.689Q225.45 137.162 225.794 136.651Q226.137 136.141 226.506 135.647Q226.874 135.154 227.266 134.679Q227.658 134.204 228.073 133.749Q228.488 133.294 228.924 132.86Q229.361 132.425 229.818 132.013Q230.276 131.601 230.752 131.211Q231.229 130.822 231.725 130.456Q232.22 130.091 232.733 129.75Q233.246 129.409 233.775 129.093Q234.303 128.778 234.847 128.489Q235.391 128.199 235.948 127.937Q236.505 127.675 237.074 127.44Q237.643 127.206 238.224 126.999Q238.804 126.793 239.393 126.615Q239.983 126.437 240.58 126.288Q241.178 126.139 241.782 126.02Q242.386 125.901 242.995 125.811Z"/>
	<path fill="#F9F8F7" transform="scale(1.01786 1.01786)" d="M307.913 162.081C309.491 161.928 311.05 162.05 312.606 162.338C317.758 163.29 321.254 166.325 324.114 170.568C326.859 174.641 328.394 179.328 327.367 184.241C325.486 193.244 319.69 194.511 312.523 198.103C309.884 199.426 307.402 201.204 304.93 202.816C304.159 203.244 303.379 203.688 302.525 203.93C301.787 204.139 301.028 204.146 300.371 203.71C297.879 202.055 286.062 182.652 285.415 179.465C285.64 178.801 285.968 178.294 286.389 177.732C288.062 175.506 290.409 174.113 292.396 172.22C298.48 166.423 298.254 163.398 307.913 162.081Z"/>
	<path fill="#F9F8F7" transform="scale(1.01786 1.01786)" d="M287.505 218.686C288.668 218.488 290.331 219.913 291.262 220.545C295.514 219.659 299.227 219.401 303.26 221.268Q303.675 221.456 304.081 221.665Q304.486 221.874 304.88 222.103Q305.275 222.332 305.657 222.58Q306.039 222.829 306.408 223.096Q306.777 223.364 307.133 223.65Q307.488 223.936 307.828 224.239Q308.168 224.543 308.493 224.863Q308.818 225.183 309.126 225.519Q309.434 225.855 309.724 226.206Q310.015 226.558 310.288 226.923Q310.56 227.289 310.814 227.668Q311.068 228.046 311.302 228.437Q311.536 228.829 311.751 229.231Q311.965 229.633 312.159 230.046Q312.353 230.459 312.525 230.881Q312.698 231.303 312.849 231.733C314.424 236.078 313.92 240.712 311.972 244.852C310.152 248.72 306.948 251.908 302.871 253.324C298.426 254.867 294.314 254.62 290.096 252.579C287.422 250.877 285.141 248.505 282.429 246.929C276.587 243.535 269.252 242.961 262.957 240.816C262.111 240.528 261.685 240.304 261.271 239.507C261.391 239.009 261.613 238.829 261.988 238.505C265.732 235.261 269.916 232.389 273.807 229.309C278.268 225.778 282.705 221.712 287.505 218.686Z"/>
</svg>
