<?xml version="1.0" encoding="utf-8" ?>
<svg xmlns="http://www.w3.org/2000/svg" xmlns:xlink="http://www.w3.org/1999/xlink" width="509" height="509">
	<path fill="#FCFCFB" transform="scale(1.01786 1.01786)" d="M233.135 61.6144Q237.726 61.2318 242.33 61.0752Q246.934 60.9185 251.54 60.9883Q256.146 61.058 260.743 61.3539Q265.34 61.6498 269.917 62.1712Q274.494 62.6926 279.04 63.4383Q283.586 64.1839 288.089 65.1519Q292.593 66.1199 297.044 67.308Q301.495 68.4961 305.882 69.9014Q310.269 71.3067 314.581 72.9259Q318.894 74.545 323.122 76.374Q327.35 78.203 331.483 80.2375Q335.616 82.2721 339.644 84.5072Q343.672 86.7422 347.585 89.1725Q351.499 91.6028 355.288 94.2224Q359.077 96.842 362.733 99.6445Q366.389 102.447 369.903 105.426Q373.417 108.405 376.78 111.552Q380.144 114.7 383.348 118.009Q386.553 121.319 389.591 124.781Q392.629 128.244 395.494 131.852Q398.358 135.46 401.042 139.204Q403.726 142.948 406.222 146.819Q408.719 150.691 411.022 154.68Q413.326 158.669 415.43 162.767Q417.535 166.865 419.436 171.061Q421.336 175.257 423.029 179.542Q424.721 183.826 426.201 188.188Q427.681 192.551 428.944 196.981Q430.208 201.411 431.253 205.897Q432.297 210.384 433.12 214.916Q433.943 219.449 434.543 224.016Q435.142 228.584 435.516 233.175Q435.89 237.766 436.038 242.371Q436.187 246.975 436.108 251.581Q436.03 256.187 435.726 260.783Q435.422 265.38 434.892 269.956Q434.362 274.532 433.608 279.076Q432.854 283.621 431.878 288.123Q430.902 292.625 429.706 297.073Q428.509 301.522 427.096 305.906Q425.683 310.291 424.056 314.6Q422.429 318.91 420.592 323.135Q418.755 327.359 416.713 331.488Q414.671 335.618 412.429 339.642Q410.186 343.666 407.749 347.574Q405.311 351.483 402.685 355.268Q400.058 359.052 397.249 362.703Q394.44 366.354 391.455 369.863Q388.47 373.371 385.316 376.729Q382.162 380.086 378.847 383.285Q375.531 386.483 372.063 389.515Q368.595 392.547 364.982 395.405Q361.369 398.263 357.62 400.94Q353.871 403.617 349.995 406.106Q346.119 408.596 342.126 410.892Q338.132 413.188 334.031 415.285Q329.929 417.382 325.729 419.275Q321.53 421.168 317.242 422.853Q312.955 424.537 308.59 426.009Q304.224 427.481 299.792 428.737Q295.36 429.992 290.872 431.029Q286.383 432.065 281.849 432.88Q277.315 433.694 272.747 434.285Q268.178 434.876 263.586 435.242Q259.005 435.607 254.411 435.747Q249.817 435.887 245.222 435.802Q240.627 435.716 236.042 435.406Q231.456 435.095 226.892 434.561Q222.327 434.026 217.794 433.268Q213.261 432.51 208.771 431.531Q204.28 430.552 199.843 429.354Q195.406 428.156 191.033 426.742Q186.66 425.328 182.362 423.701Q178.064 422.074 173.85 420.239Q169.637 418.404 165.518 416.364Q161.4 414.324 157.386 412.085Q153.373 409.846 149.474 407.413Q145.575 404.98 141.8 402.359Q138.025 399.738 134.383 396.934Q130.74 394.131 127.24 391.153Q123.74 388.175 120.39 385.029Q117.04 381.882 113.848 378.576Q110.656 375.269 107.63 371.81Q104.604 368.351 101.751 364.748Q98.8982 361.144 96.2254 357.406Q93.5526 353.667 91.0662 349.802Q88.5799 345.936 86.2859 341.954Q83.992 337.972 81.896 333.881Q79.8 329.791 77.907 325.603Q76.014 321.416 74.3285 317.14Q72.643 312.864 71.1691 308.511Q69.6952 304.158 68.4364 299.738Q67.1776 295.318 66.137 290.841Q65.0964 286.365 64.2764 281.843Q63.4564 277.32 62.859 272.764Q62.2616 268.207 61.8883 263.626Q61.515 259.045 61.3666 254.452Q61.2182 249.858 61.2951 245.263Q61.372 240.668 61.674 236.082Q61.9761 231.496 62.5025 226.93Q63.0289 222.365 63.7785 217.83Q64.5281 213.296 65.499 208.804Q66.4699 204.312 67.6598 199.873Q68.8497 195.433 70.2557 191.058Q71.6617 186.682 73.2805 182.381Q74.8993 178.08 76.7269 173.863Q78.5546 169.646 80.5867 165.524Q82.6189 161.402 84.8506 157.384Q87.0823 153.366 89.5082 149.463Q91.9342 145.559 94.5485 141.78Q97.1629 138 99.9593 134.353Q102.756 130.705 105.728 127.2Q108.699 123.694 111.84 120.338Q114.98 116.982 118.28 113.784Q121.581 110.586 125.035 107.554Q128.488 104.522 132.086 101.662Q135.684 98.8027 139.418 96.123Q143.152 93.4434 147.013 90.95Q150.873 88.4565 154.852 86.1553Q158.83 83.8541 162.916 81.7506Q167.002 79.6472 171.187 77.7465Q175.371 75.8458 179.644 74.1525Q183.916 72.4592 188.267 70.9773Q192.617 69.4955 197.035 68.2286Q201.453 66.9617 205.928 65.9129Q210.402 64.8641 214.923 64.0358Q219.443 63.2075 223.999 62.6018Q228.555 61.9961 233.135 61.6144Z"/>
	<path fill="#CC201D" transform="scale(1.01786 1.01786)" d="M151.867 393.945Q148.332 391.581 144.916 389.047Q141.5 386.513 138.211 383.816Q134.923 381.119 131.769 378.264Q128.616 375.41 125.606 372.406Q122.595 369.401 119.735 366.254Q116.874 363.107 114.17 359.824Q111.466 356.541 108.925 353.13Q106.385 349.719 104.013 346.188Q101.642 342.658 99.4447 339.016Q97.2479 335.374 95.2311 331.629Q93.2142 327.885 91.3822 324.047Q89.5502 320.208 87.9073 316.285Q86.2644 312.362 84.8145 308.364Q83.3646 304.365 82.1113 300.301Q80.8579 296.237 79.8039 292.116Q78.75 287.996 77.898 283.829Q77.046 279.662 76.398 275.458Q75.75 271.255 75.3075 267.025Q74.865 262.795 74.6291 258.548Q74.3931 254.302 74.3643 250.049Q74.3355 245.795 74.5139 241.546Q74.6923 237.297 75.0774 233.061Q75.4626 228.825 76.0536 224.613Q76.6446 220.402 77.44 216.223Q78.2355 212.045 79.2335 207.911Q80.2315 203.777 81.4298 199.696Q82.628 195.615 84.0235 191.597Q85.4191 187.579 87.0087 183.635Q88.5983 179.69 90.3782 175.827Q92.1581 171.964 94.124 168.193Q96.0899 164.421 98.2372 160.75Q100.384 157.078 102.708 153.516Q105.032 149.954 107.526 146.509Q110.02 143.064 112.679 139.744Q115.339 136.425 118.156 133.239Q120.974 130.053 123.944 127.008Q126.913 123.964 130.027 121.067Q133.142 118.17 136.393 115.429Q139.645 112.687 143.027 110.108Q146.408 107.528 149.911 105.116Q153.414 102.704 157.03 100.465Q160.647 98.2264 164.368 96.1666Q168.089 94.1069 171.906 92.2308Q175.723 90.3547 179.627 88.6668Q183.531 86.9788 187.512 85.483Q191.494 83.9873 195.543 82.6872Q199.593 81.3871 203.701 80.2858Q207.809 79.1846 211.966 78.2847Q216.123 77.3848 220.319 76.6885Q224.514 75.9921 228.739 75.501Q232.964 75.0099 237.207 74.7251Q241.451 74.4403 245.703 74.3626Q249.956 74.2849 254.207 74.4143Q258.458 74.5438 262.698 74.8802Q266.938 75.2166 271.156 75.7591Q275.375 76.3017 279.562 77.049Q283.749 77.7963 287.894 78.7467Q292.04 79.6971 296.134 80.8483Q300.229 81.9995 304.262 83.3488Q308.296 84.6981 312.259 86.2422Q316.222 87.7863 320.105 89.5216Q323.988 91.2569 327.782 93.1793Q331.576 95.1017 335.271 97.2066Q338.967 99.3116 342.556 101.594Q346.145 103.876 349.618 106.331Q353.092 108.785 356.441 111.406Q359.791 114.027 363.009 116.808Q366.227 119.589 369.306 122.523Q372.385 125.457 375.317 128.538Q378.249 131.619 381.028 134.839Q383.807 138.059 386.425 141.41Q389.044 144.762 391.496 148.237Q393.948 151.712 396.228 155.302Q398.508 158.893 400.611 162.59Q402.713 166.287 404.633 170.082Q406.553 173.877 408.286 177.761Q410.019 181.646 411.56 185.61Q413.102 189.573 414.448 193.608Q415.795 197.642 416.943 201.737Q418.092 205.832 419.039 209.979Q419.987 214.125 420.732 218.312Q421.476 222.5 422.016 226.719Q422.556 230.937 422.889 235.177Q423.223 239.417 423.35 243.669Q423.476 247.92 423.396 252.172Q423.315 256.425 423.028 260.668Q422.74 264.912 422.246 269.136Q421.752 273.36 421.053 277.556Q420.354 281.751 419.451 285.907Q418.549 290.063 417.445 294.171Q416.341 298.278 415.038 302.327Q413.735 306.376 412.237 310.356Q410.739 314.337 409.048 318.239Q407.358 322.142 405.479 325.958Q403.6 329.774 401.538 333.493Q399.476 337.213 397.235 340.828Q394.994 344.443 392.58 347.944Q390.165 351.446 387.583 354.825Q385.001 358.205 382.257 361.455Q379.514 364.705 376.615 367.817Q373.716 370.93 370.67 373.897Q367.623 376.865 364.435 379.68Q361.247 382.496 357.926 385.153Q354.605 387.81 351.159 390.302Q347.712 392.794 344.148 395.115Q340.584 397.436 336.911 399.581Q333.239 401.726 329.466 403.69Q325.693 405.653 321.829 407.43Q317.965 409.208 314.019 410.795Q310.073 412.382 306.055 413.775Q302.036 415.168 297.954 416.363Q293.873 417.559 289.738 418.554Q285.603 419.549 281.424 420.342Q277.245 421.135 273.033 421.723Q268.821 422.311 264.585 422.694Q260.349 423.076 256.099 423.252Q251.85 423.427 247.597 423.396Q243.344 423.364 239.097 423.125Q234.851 422.887 230.621 422.441Q226.391 421.996 222.188 421.345Q217.985 420.695 213.819 419.84Q209.652 418.985 205.533 417.928Q201.413 416.872 197.349 415.616Q193.286 414.36 189.289 412.907Q185.291 411.455 181.369 409.809Q177.447 408.164 173.61 406.329Q169.773 404.495 166.03 402.475Q162.286 400.456 158.646 398.257C158.324 398.302 158.221 398.325 157.868 398.329C156.065 398.35 153.424 396.754 152.235 395.436C151.691 394.833 151.789 394.716 151.867 393.945Z"/>
	<path fill="#DEC3C1" transform="scale(1.01786 1.01786)" d="M151.867 393.945Q155.207 396.179 158.646 398.257C158.324 398.302 158.221 398.325 157.868 398.329C156.065 398.35 153.424 396.754 152.235 395.436C151.691 394.833 151.789 394.716 151.867 393.945Z"/>
	<path fill="#07385E" transform="scale(1.01786 1.01786)" d="M138.339 360.912C131.63 355.042 125.842 348.178 120.558 341.019C115.849 334.64 111.359 327.94 107.655 320.921C102.233 310.649 96.6418 294.987 94.1621 283.646C92.3902 275.542 91.3586 267.04 90.7997 258.765Q90.6659 256.831 90.5798 254.894Q90.4937 252.958 90.4553 251.019Q90.417 249.081 90.4264 247.142Q90.4358 245.204 90.493 243.266Q90.5502 241.328 90.6551 239.392Q90.76 237.456 90.9126 235.524Q91.0651 233.591 91.2653 231.663Q91.4654 229.735 91.713 227.812Q91.9606 225.889 92.2555 223.973Q92.5504 222.057 92.8925 220.149Q93.2345 218.24 93.6234 216.341Q94.0124 214.442 94.448 212.553Q94.8836 210.664 95.3656 208.786Q95.8477 206.908 96.3758 205.043Q96.904 203.178 97.478 201.326Q98.0519 199.474 98.6713 197.637Q99.2907 195.8 99.9552 193.979Q100.62 192.158 101.329 190.353Q102.038 188.549 102.791 186.763Q103.545 184.976 104.342 183.209Q105.139 181.442 105.98 179.695Q106.82 177.948 107.704 176.222Q108.587 174.497 109.512 172.793Q110.438 171.09 111.405 169.41Q112.372 167.729 113.381 166.074Q114.389 164.418 115.438 162.787Q116.487 161.157 117.575 159.553Q118.664 157.949 119.792 156.372Q120.92 154.795 122.086 153.247Q123.253 151.698 124.457 150.179Q125.661 148.66 126.902 147.17Q128.143 145.681 129.421 144.223Q130.693 142.759 132.002 141.328Q133.31 139.896 134.654 138.497Q135.997 137.098 137.375 135.733Q138.753 134.368 140.164 133.038Q141.575 131.707 143.019 130.412Q144.462 129.117 145.938 127.858Q147.413 126.599 148.919 125.377Q150.425 124.155 151.961 122.971Q153.497 121.787 155.062 120.641Q156.627 119.496 158.22 118.389Q159.813 117.282 161.433 116.216Q163.052 115.149 164.698 114.123Q166.344 113.096 168.014 112.111Q169.685 111.126 171.38 110.183Q173.074 109.239 174.792 108.338Q176.509 107.437 178.248 106.579Q179.988 105.721 181.748 104.906Q183.508 104.091 185.287 103.32Q187.067 102.549 188.865 101.823Q190.663 101.096 192.479 100.414Q194.295 99.7324 196.127 99.0958Q197.959 98.4593 199.806 97.8684Q201.653 97.2775 203.515 96.7326Q205.376 96.1876 207.25 95.689Q209.125 95.1904 211.011 94.7384Q212.897 94.2865 214.794 93.8814Q216.69 93.4764 218.597 93.1185Q220.503 92.7605 222.417 92.45Q224.332 92.1395 226.253 91.8765Q228.175 91.6135 230.102 91.3983Q232.03 91.1831 233.962 91.0157Q235.894 90.8483 237.83 90.7289Q239.832 90.6044 241.837 90.5293Q243.842 90.4542 245.848 90.4285Q247.854 90.4028 249.86 90.4264Q251.866 90.4501 253.87 90.5232Q255.875 90.5963 257.878 90.7187Q259.88 90.8411 261.879 91.0128Q263.878 91.1845 265.871 91.4054Q267.865 91.6263 269.853 91.8962Q271.841 92.1661 273.822 92.4849Q275.802 92.8036 277.775 93.1711Q279.747 93.5385 281.709 93.9545Q283.672 94.3704 285.624 94.8345Q287.575 95.2986 289.515 95.8106Q291.455 96.3227 293.381 96.8823Q295.308 97.442 297.22 98.0489Q299.132 98.6558 301.029 99.3096Q302.925 99.9635 304.805 100.664Q306.685 101.364 308.547 102.111Q310.409 102.857 312.252 103.649Q314.095 104.441 315.919 105.278Q317.742 106.115 319.544 106.997Q321.345 107.879 323.125 108.805Q324.905 109.731 326.661 110.7Q328.417 111.67 330.149 112.682Q331.881 113.695 333.588 114.75Q335.294 115.804 336.974 116.901Q338.654 117.997 340.307 119.135Q341.959 120.272 343.583 121.45Q345.207 122.628 346.801 123.846Q348.396 125.063 349.96 126.32Q351.524 127.576 353.056 128.871Q354.589 130.165 356.089 131.497C372.991 146.329 388.25 168.004 396.256 189.013C397.657 192.69 398.34 196.626 399.571 200.372C402.809 210.227 405.924 221.163 406.577 231.563C407.014 238.513 407.63 245.591 407.409 252.552C407.042 264.127 405.513 273.736 403.035 284.964C402.39 287.884 401.921 290.852 401.041 293.713C398.406 302.276 394.622 310.726 390.82 318.836C388.503 323.781 386.232 328.969 383.364 333.616C381.163 337.182 378.38 340.328 375.826 343.638C373.187 347.058 370.756 350.548 367.897 353.797Q362.811 359.491 357.177 364.644Q351.542 369.797 345.418 374.356C345.377 377.136 345.19 379.721 343.117 381.827C340.203 384.789 336.096 384.572 332.275 384.527C329.921 385.935 327.088 387.061 324.61 388.302C313.43 393.905 302.242 398.989 290.075 402.11C283.589 403.774 276.965 405.799 270.339 406.754C266.342 407.331 262.274 407.525 258.244 407.745C224.798 409.57 191.946 400.183 163.236 383.219C158.523 383.488 153.737 384.96 149.042 383.669C145.131 382.594 141.87 379.806 139.955 376.267C137.517 371.759 136.91 365.826 138.339 360.912Z"/>
	<path fill="#FCFCFB" transform="scale(1.01786 1.01786)" d="M138.339 360.912C131.63 355.042 125.842 348.178 120.558 341.019C115.849 334.64 111.359 327.94 107.655 320.921C102.233 310.649 96.6418 294.987 94.1621 283.646C92.3902 275.542 91.3586 267.04 90.7997 258.765Q90.6659 256.831 90.5798 254.894Q90.4937 252.958 90.4553 251.019Q90.417 249.081 90.4264 247.142Q90.4358 245.204 90.493 243.266Q90.5502 241.328 90.6551 239.392Q90.76 237.456 90.9126 235.524Q91.0651 233.591 91.2653 231.663Q91.4654 229.735 91.713 227.812Q91.9606 225.889 92.2555 223.973Q92.5504 222.057 92.8925 220.149Q93.2345 218.24 93.6234 216.341Q94.0124 214.442 94.448 212.553Q94.8836 210.664 95.3656 208.786Q95.8477 206.908 96.3758 205.043Q96.904 203.178 97.478 201.326Q98.0519 199.474 98.6713 197.637Q99.2907 195.8 99.9552 193.979Q100.62 192.158 101.329 190.353Q102.038 188.549 102.791 186.763Q103.545 184.976 104.342 183.209Q105.139 181.442 105.98 179.695Q106.82 177.948 107.704 176.222Q108.587 174.497 109.512 172.793Q110.438 171.09 111.405 169.41Q112.372 167.729 113.381 166.074Q114.389 164.418 115.438 162.787Q116.487 161.157 117.575 159.553Q118.664 157.949 119.792 156.372Q120.92 154.795 122.086 153.247Q123.253 151.698 124.457 150.179Q125.661 148.66 126.902 147.17Q128.143 145.681 129.421 144.223Q130.693 142.759 132.002 141.328Q133.31 139.896 134.654 138.497Q135.997 137.098 137.375 135.733Q138.753 134.368 140.164 133.038Q141.575 131.707 143.019 130.412Q144.462 129.117 145.938 127.858Q147.413 126.599 148.919 125.377Q150.425 124.155 151.961 122.971Q153.497 121.787 155.062 120.641Q156.627 119.496 158.22 118.389Q159.813 117.282 161.433 116.216Q163.052 115.149 164.698 114.123Q166.344 113.096 168.014 112.111Q169.685 111.126 171.38 110.183Q173.074 109.239 174.792 108.338Q176.509 107.437 178.248 106.579Q179.988 105.721 181.748 104.906Q183.508 104.091 185.287 103.32Q187.067 102.549 188.865 101.823Q190.663 101.096 192.479 100.414Q194.295 99.7324 196.127 99.0958Q197.959 98.4593 199.806 97.8684Q201.653 97.2775 203.515 96.7326Q205.376 96.1876 207.25 95.689Q209.125 95.1904 211.011 94.7384Q212.897 94.2865 214.794 93.8814Q216.69 93.4764 218.597 93.1185Q220.503 92.7605 222.417 92.45Q224.332 92.1395 226.253 91.8765Q228.175 91.6135 230.102 91.3983Q232.03 91.1831 233.962 91.0157Q235.894 90.8483 237.83 90.7289Q239.832 90.6044 241.837 90.5293Q243.842 90.4542 245.848 90.4285Q247.854 90.4028 249.86 90.4264Q251.866 90.4501 253.87 90.5232Q255.875 90.5963 257.878 90.7187Q259.88 90.8411 261.879 91.0128Q263.878 91.1845 265.871 91.4054Q267.865 91.6263 269.853 91.8962Q271.841 92.1661 273.822 92.4849Q275.802 92.8036 277.775 93.1711Q279.747 93.5385 281.709 93.9545Q283.672 94.3704 285.624 94.8345Q287.575 95.2986 289.515 95.8106Q291.455 96.3227 293.381 96.8823Q295.308 97.442 297.22 98.0489Q299.132 98.6558 301.029 99.3096Q302.925 99.9635 304.805 100.664Q306.685 101.364 308.547 102.111Q310.409 102.857 312.252 103.649Q314.095 104.441 315.919 105.278Q317.742 106.115 319.544 106.997Q321.345 107.879 323.125 108.805Q324.905 109.731 326.661 110.7Q328.417 111.67 330.149 112.682Q331.881 113.695 333.588 114.75Q335.294 115.804 336.974 116.901Q338.654 117.997 340.307 119.135Q341.959 120.272 343.583 121.45Q345.207 122.628 346.801 123.846Q348.396 125.063 349.96 126.32Q351.524 127.576 353.056 128.871Q354.589 130.165 356.089 131.497C372.991 146.329 388.25 168.004 396.256 189.013C397.657 192.69 398.34 196.626 399.571 200.372C402.809 210.227 405.924 221.163 406.577 231.563C407.014 238.513 407.63 245.591 407.409 252.552C407.042 264.127 405.513 273.736 403.035 284.964C402.39 287.884 401.921 290.852 401.041 293.713C398.406 302.276 394.622 310.726 390.82 318.836C388.503 323.781 386.232 328.969 383.364 333.616C381.163 337.182 378.38 340.328 375.826 343.638C373.187 347.058 370.756 350.548 367.897 353.797Q362.811 359.491 357.177 364.644Q351.542 369.797 345.418 374.356C345.043 370.8 344.13 368.449 341.701 365.797C347.863 360.756 353.879 355.33 359.238 349.435Q360.471 348.07 361.67 346.676Q362.869 345.282 364.035 343.86Q365.2 342.437 366.33 340.987Q367.461 339.536 368.556 338.059Q369.651 336.582 370.71 335.079Q371.769 333.576 372.792 332.047Q373.815 330.519 374.8 328.966Q375.785 327.413 376.733 325.837Q377.68 324.261 378.589 322.663Q379.498 321.064 380.368 319.444Q381.239 317.824 382.07 316.184Q382.9 314.543 383.691 312.883Q384.482 311.223 385.233 309.544Q385.983 307.866 386.693 306.169Q387.403 304.473 388.072 302.76Q388.74 301.047 389.367 299.318Q389.994 297.589 390.579 295.846Q391.164 294.102 391.707 292.345Q392.25 290.588 392.75 288.819Q393.25 287.049 393.708 285.268Q394.165 283.487 394.579 281.695Q394.993 279.904 395.364 278.102Q395.734 276.301 396.061 274.492Q396.388 272.682 396.672 270.865Q396.955 269.048 397.194 267.225Q397.433 265.402 397.628 263.573Q397.823 261.744 397.974 259.912Q398.125 258.079 398.232 256.243Q398.338 254.407 398.4 252.57Q398.462 250.732 398.48 248.893Q398.498 247.054 398.471 245.215Q398.444 243.377 398.373 241.539Q398.279 239.707 398.14 237.878Q398.001 236.049 397.817 234.224Q397.633 232.399 397.405 230.579Q397.177 228.759 396.904 226.945Q396.631 225.131 396.313 223.324Q395.996 221.517 395.635 219.719Q395.273 217.921 394.868 216.132Q394.463 214.343 394.013 212.564Q393.564 210.786 393.072 209.019Q392.579 207.252 392.044 205.497Q391.508 203.743 390.929 202.002Q390.351 200.262 389.73 198.536Q389.109 196.81 388.446 195.099Q387.783 193.389 387.078 191.695Q386.373 190.002 385.627 188.326Q384.881 186.65 384.094 184.993Q383.307 183.336 382.48 181.699Q381.653 180.062 380.786 178.446Q379.919 176.829 379.012 175.234Q378.106 173.64 377.161 172.068Q376.215 170.496 375.232 168.947Q374.248 167.399 373.227 165.875Q372.206 164.351 371.148 162.853Q370.09 161.354 368.995 159.882Q367.901 158.41 366.771 156.966Q365.64 155.521 364.475 154.104Q363.31 152.688 362.11 151.3Q360.91 149.912 359.677 148.555Q358.444 147.197 357.178 145.87Q355.911 144.542 354.613 143.247Q353.315 141.951 351.985 140.687Q350.655 139.424 349.295 138.193Q347.918 136.95 346.512 135.741Q345.105 134.532 343.669 133.358Q342.232 132.184 340.768 131.045Q339.303 129.907 337.811 128.805Q336.318 127.704 334.799 126.639Q333.28 125.574 331.736 124.547Q330.191 123.52 328.621 122.532Q327.052 121.543 325.458 120.594Q323.865 119.644 322.248 118.734Q320.632 117.824 318.993 116.954Q317.355 116.085 315.696 115.255Q314.036 114.426 312.357 113.638Q310.678 112.85 308.98 112.103Q307.282 111.357 305.566 110.653Q303.85 109.948 302.117 109.286Q300.384 108.625 298.635 108.006Q296.886 107.387 295.123 106.811Q293.36 106.235 291.583 105.703Q289.806 105.171 288.016 104.683Q286.226 104.195 284.425 103.751Q282.624 103.307 280.813 102.908Q279.001 102.509 277.18 102.154Q275.36 101.8 273.531 101.49Q271.702 101.181 269.866 100.916Q268.03 100.652 266.188 100.433Q264.346 100.214 262.499 100.04Q260.652 99.8667 258.802 99.7387Q256.951 99.6107 255.098 99.5284Q253.245 99.446 251.39 99.4093Q249.535 99.3727 247.681 99.3818Q245.826 99.3908 243.971 99.4456Q242.117 99.5004 240.265 99.6008Q238.439 99.7041 236.617 99.8519Q234.794 99.9998 232.976 100.192Q231.158 100.385 229.344 100.621Q227.531 100.858 225.724 101.139Q223.918 101.42 222.118 101.745Q220.319 102.071 218.528 102.44Q216.737 102.809 214.956 103.221Q213.174 103.634 211.404 104.09Q209.633 104.546 207.874 105.046Q206.115 105.545 204.368 106.087Q202.622 106.629 200.89 107.214Q199.157 107.799 197.439 108.426Q195.722 109.052 194.02 109.721Q192.318 110.39 190.633 111.1Q188.948 111.81 187.281 112.561Q185.613 113.312 183.965 114.104Q182.317 114.895 180.688 115.727Q179.06 116.559 177.452 117.43Q175.845 118.301 174.259 119.212Q172.673 120.122 171.11 121.071Q169.547 122.02 168.007 123.006Q166.468 123.993 164.953 125.017Q163.438 126.041 161.949 127.102Q160.459 128.163 158.997 129.26Q157.534 130.357 156.098 131.489Q154.662 132.621 153.254 133.789Q151.847 134.956 150.468 136.157Q149.09 137.358 147.741 138.593Q146.392 139.827 145.074 141.094Q143.755 142.361 142.468 143.66Q141.181 144.959 139.927 146.29Q138.672 147.62 137.45 148.98C129.465 157.855 121.841 167.999 116.515 178.723C113.789 184.213 111.599 190.268 109.456 196.007C107.903 200.166 106.019 204.17 104.745 208.434C100.377 223.056 98.826 242.659 99.6483 257.864C100.11 266.406 101.215 275.393 103.247 283.714C109.195 308.071 124.316 336.075 143.103 352.909C141.569 355.609 139.84 358.187 138.339 360.912Z"/>
	<path fill="#FCFCFB" transform="scale(1.01786 1.01786)" d="M178.834 381.12C184.878 384.833 191.888 387.611 198.558 389.98Q201.119 390.899 203.712 391.724Q206.305 392.549 208.926 393.279Q211.547 394.009 214.193 394.643Q216.84 395.276 219.507 395.813Q222.175 396.35 224.86 396.789Q227.545 397.228 230.245 397.569Q232.944 397.91 235.654 398.152Q238.365 398.394 241.082 398.537Q243.799 398.68 246.52 398.724Q249.24 398.767 251.961 398.712Q254.681 398.656 257.398 398.502Q260.114 398.347 262.823 398.093Q265.532 397.839 268.231 397.487Q270.929 397.134 273.612 396.684Q276.295 396.233 278.961 395.685Q281.626 395.136 284.269 394.491C291.013 392.877 297.481 390.805 303.993 388.428C307.421 387.177 310.778 385.361 314.376 384.68C317.936 384.005 328.536 384.177 332.275 384.527C329.921 385.935 327.088 387.061 324.61 388.302C313.43 393.905 302.242 398.989 290.075 402.11C283.589 403.774 276.965 405.799 270.339 406.754C266.342 407.331 262.274 407.525 258.244 407.745C224.798 409.57 191.946 400.183 163.236 383.219C168.329 382.554 173.88 382.451 178.834 381.12Z"/>
	<path fill="#FCFCFB" transform="scale(1.01786 1.01786)" d="M266.483 258.364C266.937 258.358 267.363 258.514 267.748 258.747C270.081 260.16 272.291 262.226 274.437 263.923C279.158 267.656 283.878 271.437 288.779 274.93C287.26 276.278 285.966 277.87 284.636 279.401C287.569 279.386 290.545 278.99 293.485 278.871Q294.257 279.307 295.021 279.757C299.989 282.719 305.969 287.272 309.118 292.125C310.818 294.743 311.558 298.44 312.461 301.403C317.276 317.199 320.71 333.383 324.813 349.371C323.402 349.729 320.587 350.065 319.765 351.404C319.213 352.303 319.338 353.568 319.491 354.56C319.792 356.5 320.579 358.925 321.794 360.474C324.134 363.457 331.846 367.754 335.263 370.219C336.7 371.255 339.477 373.558 339.489 375.452C339.493 376.085 339.197 376.417 338.699 376.759C338.07 377.191 336.893 377.265 336.149 377.319C332.673 377.571 329.111 377.36 325.62 377.47C319.167 377.674 312.586 378.174 306.136 377.954C305.003 377.916 303.772 377.834 302.695 377.467C301.67 377.119 301.109 376.251 300.624 375.332C297.079 368.616 302.793 360.705 300.547 355.733C300.078 355.344 299.9 355.117 299.268 355.069C297.768 354.958 295.337 356.395 294.228 357.348C293.498 351.355 291.618 345.488 290.411 339.578C289.226 333.771 288.598 327.806 287.157 322.059C286.807 320.663 286.198 317.426 285.122 316.472C281.777 313.509 261.522 304.268 256.407 301.734C251.928 299.515 246.535 296.265 241.925 294.607C240.161 293.973 238.217 294.233 236.393 294.375C233.493 297.369 231.01 301.05 228.447 304.349L212.88 324.3C208.29 330.065 203.137 335.401 198.317 340.977C192.609 347.581 187.183 354.407 181.585 361.101L181.229 361.345C179.739 361.496 173.278 358.691 171.135 358.106C170.625 361.048 169.994 364.097 168.253 366.575Q170.224 368.534 171.814 370.813C172.701 372.099 173.488 373.383 173.186 374.984C172.023 375.888 155.614 376.922 153.222 376.817C150.649 376.704 148.176 375.832 146.456 373.846C144.031 371.047 143.568 366.976 144.902 363.598C146.865 358.626 151.502 353.443 154.724 349.112Q163.587 337.025 172.582 325.035C176.145 320.36 180.268 315.811 183.439 310.884C187.305 304.875 190.538 295.825 193.315 289.095C194.235 286.866 197.008 285.05 197.103 283.452C196.841 282.627 196.211 282.191 195.583 281.644C197.776 277.829 199.347 273.478 201.276 269.501C202.979 265.99 205.046 262.738 206.828 259.285C213.456 258.513 223.15 259.112 229.965 259.547C228.31 262.413 226.137 265.014 224.414 267.859C219.622 275.773 216.043 284.289 213.066 293.026C216.915 294.131 220.639 295.612 224.406 296.965C227.778 291.8 230.288 285.737 233.043 280.205C236.053 274.163 239.447 268.143 242.077 261.935C247.53 268.625 251.284 277.25 255.133 284.966C257.36 289.431 259.74 293.903 261.727 298.478Q266.938 295.517 272.315 292.868C270.046 289.108 268.18 285.017 266.218 281.084Q260.902 270.259 255.397 259.53L266.483 258.364Z"/>
	<path fill="#FCFCFB" transform="scale(1.01786 1.01786)" d="M218.402 179.362C221.483 179.305 224.54 179.947 227.564 180.464C231.137 183.807 236.607 193.786 239.529 198.436C238.134 202.963 237.028 207.594 235.539 212.086C234.691 214.644 233.341 217.157 232.624 219.736C232.44 220.398 232.537 220.924 232.882 221.512C233.231 221.632 233.309 221.758 233.669 221.569C235.056 220.837 236.302 218.592 237.109 217.3C239.253 213.869 240.993 209.901 242.882 206.305C245.707 200.932 248.85 195.575 251.249 190.002C252.615 186.83 253.623 183.561 254.556 180.243L351.657 181.047C352.615 181.759 353.511 182.478 354.332 183.348C356.606 185.758 358.234 188.779 358.067 192.185C357.881 195.974 355.683 198.738 353.045 201.201C345.553 201.552 337.968 201.839 330.471 201.664C329.638 204.159 328.842 206.667 327.8 209.085C321.575 209.671 314.985 209.277 308.714 209.303Q291.801 209.501 274.886 209.496C274.366 211.832 273.599 214.125 273.036 216.456C272.306 219.477 271.762 222.545 271.191 225.599C270.01 231.992 268.415 238.344 267.085 244.713C253.014 245.35 238.912 245.156 224.849 245.823C226.436 241.778 227.102 238.422 225.489 234.237C222.818 227.304 217.195 224.171 210.802 221.28C210.197 217.78 208.744 214.332 207.528 211.007C204.493 215.363 200.028 218.26 197.253 222.852C203.706 227.206 212.782 228.006 217.813 234.512C219.235 236.352 219.98 238.471 219.587 240.8C218.686 246.129 213.461 249.583 209.403 252.516C207.156 252.446 204.887 252.358 202.653 252.096C193.912 251.069 172.964 240.425 167.325 233.342C167.217 232.732 167.108 232.113 167.065 231.494C166.87 228.721 167.664 225.378 168.872 222.89C171.647 217.177 178.627 208.781 182.574 203.273C186.619 197.629 190.967 190.41 195.546 185.402C196.644 184.201 197.957 182.863 199.368 182.036C204.529 179.016 212.562 179.593 218.402 179.362Z"/>
	<path fill="#FCFCFB" transform="scale(1.01786 1.01786)" d="M237.234 123.573Q237.843 123.503 238.454 123.462Q239.066 123.422 239.678 123.412Q240.291 123.402 240.903 123.422Q241.516 123.442 242.126 123.492Q242.737 123.541 243.345 123.621Q243.952 123.701 244.555 123.811Q245.158 123.921 245.755 124.06Q246.351 124.199 246.94 124.367Q247.53 124.536 248.11 124.733Q248.69 124.93 249.26 125.155Q249.829 125.381 250.388 125.634Q250.946 125.887 251.491 126.167Q252.035 126.447 252.566 126.754Q253.096 127.06 253.611 127.393Q254.126 127.725 254.624 128.082Q255.122 128.44 255.601 128.821Q256.081 129.202 256.541 129.606Q257.002 130.011 257.442 130.437Q257.882 130.864 258.3 131.311Q258.719 131.759 259.115 132.227Q259.51 132.694 259.883 133.181Q260.255 133.667 260.604 134.172Q260.952 134.676 261.275 135.197Q261.598 135.717 261.895 136.253Q262.191 136.789 262.462 137.339Q262.732 137.889 262.975 138.452Q263.218 139.014 263.433 139.588Q263.648 140.162 263.834 140.745Q264.021 141.329 264.178 141.921Q264.336 142.513 264.464 143.113Q264.593 143.712 264.691 144.316Q264.79 144.921 264.859 145.53Q264.928 146.139 264.967 146.75Q265.006 147.362 265.014 147.975Q265.023 148.587 265.002 149.2Q264.981 149.812 264.929 150.423Q264.878 151.033 264.796 151.64Q264.715 152.248 264.604 152.85Q264.493 153.453 264.352 154.049Q264.212 154.646 264.042 155.235Q263.872 155.823 263.674 156.403Q263.476 156.983 263.249 157.552Q263.022 158.121 262.768 158.679Q262.513 159.236 262.232 159.78Q261.951 160.325 261.643 160.855Q261.335 161.384 261.001 161.898Q260.668 162.412 260.309 162.909Q259.951 163.406 259.569 163.885Q259.186 164.364 258.781 164.823Q258.375 165.283 257.948 165.722Q257.52 166.161 257.072 166.578Q256.623 166.995 256.155 167.39Q255.686 167.785 255.199 168.157Q254.711 168.528 254.206 168.875Q253.701 169.222 253.18 169.544Q252.658 169.865 252.122 170.161Q251.585 170.457 251.034 170.726Q250.484 170.995 249.921 171.236Q249.358 171.478 248.783 171.692Q248.209 171.905 247.625 172.09Q247.041 172.276 246.448 172.432Q245.856 172.588 245.256 172.715Q244.657 172.842 244.052 172.939Q243.447 173.037 242.838 173.104Q242.231 173.171 241.621 173.209Q241.011 173.246 240.4 173.254Q239.789 173.261 239.179 173.239Q238.568 173.216 237.96 173.164Q237.351 173.112 236.746 173.03Q236.14 172.948 235.54 172.836Q234.939 172.724 234.344 172.583Q233.75 172.442 233.163 172.273Q232.576 172.103 231.999 171.904Q231.421 171.706 230.853 171.479Q230.286 171.253 229.73 170.999Q229.175 170.745 228.632 170.464Q228.09 170.183 227.562 169.876Q227.033 169.569 226.521 169.236Q226.009 168.903 225.513 168.546Q225.018 168.188 224.54 167.807Q224.063 167.426 223.605 167.022Q223.147 166.617 222.709 166.191Q222.271 165.765 221.855 165.318Q221.438 164.871 221.044 164.404Q220.65 163.937 220.28 163.452Q219.909 162.966 219.563 162.463Q219.217 161.959 218.895 161.44Q218.574 160.92 218.278 160.385Q217.983 159.851 217.714 159.302Q217.445 158.753 217.203 158.192Q216.962 157.631 216.748 157.059Q216.534 156.487 216.348 155.905Q216.163 155.323 216.006 154.732Q215.849 154.142 215.721 153.544Q215.593 152.947 215.495 152.344Q215.397 151.741 215.328 151.134Q215.259 150.527 215.22 149.917Q215.182 149.308 215.173 148.697Q215.164 148.086 215.185 147.475Q215.206 146.865 215.257 146.256Q215.308 145.647 215.388 145.041Q215.469 144.436 215.579 143.835Q215.689 143.234 215.829 142.639Q215.968 142.044 216.137 141.457Q216.305 140.87 216.502 140.292Q216.7 139.713 216.925 139.146Q217.15 138.578 217.403 138.021Q217.655 137.465 217.935 136.922Q218.215 136.379 218.521 135.85Q218.827 135.321 219.158 134.808Q219.49 134.295 219.846 133.799Q220.202 133.302 220.582 132.824Q220.962 132.346 221.366 131.887Q221.769 131.428 222.194 130.989Q222.619 130.55 223.065 130.133Q223.511 129.715 223.977 129.32Q224.443 128.925 224.928 128.553Q225.413 128.182 225.915 127.834Q226.418 127.487 226.937 127.164Q227.455 126.842 227.989 126.545Q228.523 126.248 229.071 125.978Q229.619 125.708 230.18 125.465Q230.74 125.222 231.312 125.007Q231.884 124.791 232.466 124.604Q233.047 124.417 233.637 124.259Q234.227 124.101 234.824 123.972Q235.422 123.843 236.024 123.743Q236.627 123.643 237.234 123.573Z"/>
</svg>
