<?xml version="1.0" encoding="utf-8" ?>
<svg xmlns="http://www.w3.org/2000/svg" xmlns:xlink="http://www.w3.org/1999/xlink" width="509" height="509">
	<path fill="#FAFAF9" transform="scale(1.01786 1.01786)" d="M434.977 251.345C434.982 251.421 434.991 251.496 434.992 251.572C435.101 257.501 434.224 263.733 433.506 269.628Q433.072 273.192 432.501 276.737Q431.931 280.282 431.225 283.803Q430.519 287.323 429.679 290.814Q428.838 294.305 427.865 297.762Q426.892 301.218 425.787 304.634Q424.682 308.05 423.447 311.422Q422.212 314.794 420.849 318.115Q419.485 321.437 417.996 324.704Q416.506 327.971 414.893 331.179Q413.279 334.387 411.544 337.53Q409.809 340.674 407.955 343.748Q406.1 346.823 404.13 349.825Q402.159 352.826 400.074 355.75Q397.99 358.674 395.795 361.515Q393.601 364.357 391.299 367.113Q388.997 369.869 386.591 372.534Q385.042 374.227 383.452 375.881Q381.863 377.536 380.233 379.15Q378.602 380.765 376.933 382.339Q375.264 383.913 373.556 385.446Q371.849 386.978 370.104 388.468Q368.359 389.958 366.578 391.405Q364.797 392.852 362.982 394.254Q361.166 395.656 359.316 397.014Q357.466 398.371 355.583 399.682Q353.7 400.994 351.786 402.259Q349.872 403.523 347.927 404.74Q345.982 405.958 344.007 407.126Q342.033 408.295 340.031 409.415Q338.028 410.535 335.999 411.606Q333.969 412.676 331.914 413.696Q329.859 414.717 327.779 415.686Q325.7 416.655 323.597 417.573Q321.494 418.491 319.369 419.357Q317.244 420.222 315.099 421.036Q312.953 421.849 310.789 422.609Q308.624 423.369 306.441 424.076Q304.258 424.783 302.058 425.435Q299.859 426.088 297.644 426.687Q295.429 427.285 293.2 427.829Q290.971 428.373 288.729 428.862Q286.487 429.35 284.234 429.784Q281.981 430.217 279.718 430.595Q277.455 430.973 275.183 431.295Q272.911 431.617 270.632 431.883Q268.354 432.149 266.069 432.359Q263.784 432.569 261.495 432.723Q259.205 432.877 256.913 432.974Q253.262 433.157 249.606 433.197Q245.951 433.236 242.297 433.133Q238.643 433.029 234.995 432.782Q231.348 432.536 227.713 432.146Q224.078 431.757 220.461 431.225Q216.845 430.693 213.251 430.021Q209.658 429.348 206.094 428.534Q202.53 427.721 199.001 426.769Q195.471 425.817 191.982 424.727Q188.492 423.637 185.048 422.411Q181.604 421.186 178.211 419.826Q174.817 418.466 171.48 416.974Q168.142 415.483 164.866 413.862Q161.589 412.24 158.379 410.492Q155.169 408.743 152.029 406.87Q148.89 404.997 145.826 403.003C138.429 398.188 131.071 392.931 124.591 386.927C115.127 378.159 106.373 368.84 98.6439 358.495Q96.5475 355.672 94.5577 352.773Q92.5679 349.874 90.6873 346.902Q88.8067 343.931 87.038 340.892Q85.2693 337.853 83.6149 334.75Q81.9605 331.647 80.4228 328.485Q78.885 325.322 77.466 322.105Q76.0469 318.888 74.7486 315.62Q73.4503 312.352 72.2745 309.038Q71.0987 305.724 70.047 302.369Q68.9954 299.013 68.0693 295.621Q67.1432 292.229 66.344 288.805Q65.5448 285.38 64.8736 281.928Q64.2024 278.477 63.6601 275.003Q63.1178 271.528 62.7052 268.036Q62.2926 264.544 62.0102 261.039Q61.7278 257.534 61.576 254.021Q61.4816 251.702 61.4451 249.381Q61.4085 247.061 61.4297 244.74Q61.451 242.419 61.53 240.1Q61.6091 237.78 61.7459 235.463Q61.8828 233.146 62.0773 230.834Q62.2718 228.521 62.5238 226.214Q62.7759 223.907 63.0854 221.607Q63.3948 219.306 63.7615 217.015Q64.1281 214.723 64.5518 212.441Q64.9754 210.159 65.4558 207.888Q65.9362 205.618 66.473 203.36Q67.0097 201.102 67.6026 198.858Q68.1955 196.614 68.8441 194.386Q69.4927 192.157 70.1966 189.946Q70.9005 187.734 71.6592 185.541Q72.418 183.347 73.2312 181.174Q74.0444 179 74.9115 176.847Q75.7786 174.694 76.6991 172.564Q77.6195 170.433 78.5928 168.326Q79.566 166.219 80.5915 164.137Q81.6169 162.055 82.6939 159.999Q83.7709 157.943 84.8988 155.915Q86.0266 153.887 87.2047 151.887Q88.3828 149.887 89.6103 147.918Q90.8378 145.948 92.114 144.009Q93.3902 142.071 94.7143 140.165Q96.0384 138.259 97.4096 136.386Q98.7807 134.514 100.198 132.676Q101.616 130.838 103.078 129.036Q104.541 127.234 106.048 125.469Q107.555 123.704 109.106 121.977Q110.657 120.251 112.25 118.563C143.883 84.8023 191.778 62.8596 238.061 61.4115C251.683 60.9853 265.483 61.3613 278.983 63.3763C282.417 63.8889 285.826 64.7207 289.219 65.4526C293.104 66.2904 297.099 67.0012 300.924 68.074C327.182 75.4375 354.921 90.2493 374.851 109.004C401.526 134.105 420.066 162.954 429.214 198.633Q431.671 207.947 433.066 217.477Q434.461 227.008 434.777 236.635C434.569 239.323 433.702 249.374 434.977 251.345Z"/>
	<path fill="#C7211F" transform="scale(1.01786 1.01786)" d="M244.487 73.3006Q248.745 73.201 253.003 73.3103Q257.26 73.4196 261.508 73.7376Q265.755 74.0556 269.981 74.5815Q274.208 75.1074 278.404 75.8399Q282.599 76.5725 286.754 77.5099Q290.909 78.4474 295.012 79.5875Q299.116 80.7275 303.159 82.0675Q307.202 83.4075 311.174 84.9441Q315.146 86.4807 319.038 88.2103Q322.931 89.9399 326.733 91.8583Q330.536 93.7767 334.24 95.8793Q337.944 97.9819 341.54 100.264Q345.137 102.545 348.617 105.001Q352.097 107.456 355.452 110.079Q358.808 112.702 362.031 115.487Q365.254 118.271 368.336 121.21Q371.419 124.149 374.353 127.236Q377.288 130.323 380.067 133.55Q382.847 136.777 385.465 140.137Q388.083 143.496 390.533 146.98Q392.983 150.464 395.26 154.063Q397.536 157.663 399.633 161.37Q401.73 165.077 403.643 168.883Q405.556 172.688 407.279 176.583Q409.003 180.478 410.534 184.452Q412.065 188.427 413.399 192.472Q414.733 196.517 415.867 200.622Q417 204.727 417.932 208.883Q418.863 213.04 419.589 217.236Q420.316 221.433 420.835 225.66Q421.355 229.888 421.666 234.135Q421.978 238.383 422.081 242.641Q422.184 246.899 422.078 251.157Q421.972 255.414 421.657 259.662Q421.342 263.909 420.82 268.136Q420.297 272.363 419.568 276.559Q418.839 280.756 417.904 284.911Q416.97 289.066 415.833 293.171Q414.696 297.276 413.36 301.319Q412.023 305.363 410.489 309.337Q408.956 313.31 407.229 317.204Q405.503 321.097 403.587 324.901Q401.672 328.705 399.572 332.411Q397.472 336.117 395.193 339.715Q392.914 343.313 390.462 346.795Q388.009 350.277 385.389 353.635Q382.768 356.992 379.986 360.217Q377.204 363.442 374.268 366.527Q371.331 369.612 368.246 372.549Q365.162 375.485 361.937 378.268Q358.712 381.05 355.355 383.67Q351.997 386.291 348.515 388.744Q345.033 391.197 341.435 393.476Q337.837 395.755 334.132 397.855Q330.426 399.955 326.622 401.871Q322.818 403.786 318.925 405.513Q315.032 407.24 311.058 408.774Q307.085 410.307 303.041 411.645Q298.997 412.982 294.893 414.119Q290.788 415.256 286.633 416.19Q282.478 417.125 278.282 417.854Q274.085 418.584 269.859 419.107Q265.632 419.63 261.384 419.945Q257.137 420.26 252.879 420.366Q248.617 420.472 244.355 420.369Q240.093 420.266 235.841 419.954Q231.589 419.642 227.357 419.122Q223.126 418.601 218.925 417.874Q214.724 417.146 210.564 416.213Q206.404 415.28 202.295 414.144Q198.186 413.008 194.137 411.672Q190.089 410.336 186.111 408.802Q182.133 407.268 178.235 405.542Q174.337 403.815 170.529 401.898Q166.72 399.982 163.01 397.881Q159.3 395.78 155.698 393.5Q152.096 391.219 148.61 388.765Q145.124 386.31 141.763 383.688Q138.402 381.065 135.174 378.28Q131.945 375.496 128.857 372.556Q125.77 369.616 122.83 366.529Q119.89 363.441 117.106 360.213Q114.321 356.984 111.698 353.623Q109.075 350.262 106.621 346.776Q104.166 343.29 101.886 339.688Q99.6052 336.086 97.5042 332.376Q95.4033 328.667 93.487 324.858Q91.5707 321.05 89.8437 317.152Q88.1167 313.254 86.5832 309.276Q85.0496 305.298 83.7132 301.249Q82.3767 297.201 81.2406 293.092Q80.1046 288.983 79.1716 284.823Q78.2386 280.662 77.511 276.462Q76.7834 272.261 76.2628 268.029Q75.7423 263.798 75.4301 259.546Q75.118 255.294 75.0149 251.032Q74.9119 246.77 75.0182 242.508Q75.1245 238.246 75.4399 233.994Q75.7554 229.743 76.2791 225.512Q76.8029 221.28 77.5338 217.08Q78.2646 212.88 79.2008 208.721Q80.1369 204.561 81.2761 200.453Q82.4154 196.345 83.7549 192.297Q85.0944 188.25 86.631 184.273Q88.1676 180.296 89.8976 176.4Q91.6276 172.503 93.5468 168.696Q95.466 164.889 97.5698 161.181Q99.6735 157.473 101.957 153.873Q104.24 150.272 106.697 146.788Q109.155 143.304 111.78 139.945Q114.405 136.586 117.192 133.36Q119.979 130.134 122.921 127.048Q125.864 123.963 128.954 121.026Q132.044 118.088 135.274 115.306Q138.505 112.524 141.868 109.904Q145.231 107.284 148.719 104.832Q152.206 102.38 155.81 100.102Q159.414 97.8246 163.126 95.7265Q166.837 93.6285 170.647 91.7152Q174.457 89.8019 178.356 88.0779Q182.255 86.354 186.234 84.8235Q190.214 83.293 194.263 81.9597Q198.313 80.6265 202.423 79.4936Q206.533 78.3607 210.693 77.431Q214.854 76.5013 219.055 75.7769Q223.257 75.0525 227.489 74.5353Q231.721 74.0181 235.973 73.7092Q240.225 73.4003 244.487 73.3006Z"/>
	<path fill="#073962" transform="scale(1.01786 1.01786)" d="M140.462 359.795Q138.271 357.665 136.162 355.454Q134.054 353.243 132.03 350.954Q130.006 348.664 128.071 346.3Q126.135 343.936 124.29 341.501Q122.445 339.065 120.694 336.561Q118.943 334.058 117.287 331.49Q115.632 328.921 114.074 326.293Q112.517 323.664 111.06 320.978Q109.604 318.292 108.25 315.553Q106.896 312.814 105.646 310.026Q104.397 307.237 103.253 304.404Q102.11 301.57 101.075 298.696Q100.04 295.821 99.1137 292.909Q98.1879 289.997 97.3728 287.053Q96.5577 284.108 95.8546 281.134Q95.1515 278.161 94.5613 275.163C92.8755 266.18 92.2169 256.931 91.994 247.802Q91.9653 245.956 91.9811 244.109Q91.9969 242.263 92.0573 240.417Q92.1177 238.572 92.2226 236.728Q92.3276 234.884 92.4769 233.044Q92.6263 231.203 92.8201 229.367Q93.0139 227.531 93.2519 225.7Q93.4899 223.868 93.7721 222.044Q94.0543 220.219 94.3804 218.401Q94.7065 216.584 95.0764 214.775Q95.4464 212.965 95.8598 211.166Q96.2733 209.366 96.7301 207.577Q97.1868 205.788 97.6867 204.01Q98.1865 202.233 98.7291 200.467Q99.2717 198.702 99.8568 196.951Q100.442 195.2 101.069 193.463Q101.696 191.726 102.365 190.005Q103.034 188.284 103.744 186.579Q104.454 184.875 105.205 183.188Q105.957 181.501 106.748 179.833Q107.54 178.164 108.372 176.516Q109.203 174.867 110.075 173.239Q110.946 171.611 111.856 170.004Q112.766 168.398 113.715 166.814Q114.664 165.23 115.651 163.669Q116.638 162.108 117.662 160.571Q118.686 159.035 119.747 157.524Q120.808 156.012 121.905 154.527Q123.002 153.042 124.135 151.583Q125.267 150.125 126.435 148.694Q127.602 147.264 128.804 145.862Q130.006 144.46 131.241 143.087Q132.476 141.714 133.744 140.372Q135.1 138.937 136.492 137.536Q137.884 136.135 139.311 134.769Q140.738 133.404 142.198 132.074Q143.658 130.745 145.152 129.452Q146.645 128.16 148.17 126.905Q149.695 125.65 151.251 124.434Q152.807 123.218 154.393 122.041Q155.979 120.865 157.594 119.728Q159.209 118.591 160.852 117.495Q162.495 116.4 164.165 115.345Q165.835 114.291 167.531 113.279Q169.226 112.266 170.947 111.297Q172.667 110.328 174.412 109.401Q176.156 108.475 177.923 107.593Q179.69 106.711 181.478 105.874Q183.267 105.036 185.076 104.244Q186.885 103.451 188.713 102.704Q190.541 101.957 192.387 101.256Q194.234 100.555 196.097 99.9008Q197.96 99.2464 199.839 98.6387Q201.718 98.0311 203.612 97.4707Q205.506 96.9104 207.413 96.3976Q209.32 95.8848 211.24 95.4199Q213.159 94.9551 215.089 94.5384Q217.02 94.1218 218.96 93.7536Q220.9 93.3855 222.849 93.066Q224.798 92.7465 226.754 92.476Q228.711 92.2054 230.673 91.9839Q232.635 91.7624 234.603 91.5901Q236.57 91.4178 238.541 91.2949Q240.512 91.1719 242.486 91.0984Q244.459 91.0248 246.434 91.0007Q248.342 90.9618 250.251 90.9695Q252.16 90.9772 254.068 91.0314Q255.976 91.0857 257.882 91.1865Q259.789 91.2872 261.692 91.4345Q263.595 91.5818 265.494 91.7754Q267.393 91.9691 269.286 92.209Q271.18 92.4489 273.067 92.735Q274.955 93.0211 276.834 93.3531Q278.714 93.6851 280.585 94.0629Q282.456 94.4407 284.318 94.864Q286.179 95.2873 288.029 95.756Q289.88 96.2246 291.718 96.7382Q293.557 97.2518 295.382 97.8101Q297.207 98.3685 299.018 98.9712Q300.83 99.5739 302.626 100.221Q304.422 100.867 306.201 101.558Q307.981 102.248 309.743 102.981Q311.505 103.715 313.249 104.491Q314.993 105.268 316.717 106.086Q318.442 106.905 320.146 107.765Q321.849 108.626 323.532 109.528Q325.214 110.429 326.874 111.372Q328.534 112.315 330.17 113.297Q331.807 114.28 333.419 115.303Q335.031 116.325 336.617 117.386Q338.204 118.448 339.764 119.548Q341.324 120.648 342.857 121.785Q344.389 122.923 345.894 124.097Q347.399 125.272 348.874 126.483Q350.35 127.694 351.795 128.941Q353.241 130.187 354.655 131.469Q356.07 132.75 357.453 134.066Q358.812 135.374 360.139 136.714Q361.465 138.054 362.759 139.426Q364.053 140.798 365.313 142.201Q366.573 143.605 367.799 145.038Q369.025 146.471 370.215 147.934Q371.406 149.396 372.56 150.887Q373.715 152.378 374.833 153.897Q375.951 155.416 377.032 156.961Q378.113 158.506 379.156 160.078Q380.2 161.649 381.204 163.245Q382.209 164.841 383.175 166.461Q384.14 168.081 385.066 169.723Q385.992 171.366 386.878 173.031Q387.764 174.696 388.609 176.382Q389.454 178.068 390.258 179.774Q391.062 181.48 391.825 183.205Q392.587 184.93 393.307 186.673Q394.028 188.416 394.705 190.175Q395.383 191.935 396.018 193.711Q396.653 195.487 397.244 197.278Q397.836 199.068 398.384 200.873Q398.932 202.678 399.436 204.495Q399.939 206.312 400.399 208.141Q400.859 209.97 401.274 211.81Q401.689 213.65 402.059 215.499Q402.43 217.348 402.755 219.206Q403.08 221.063 403.36 222.928Q403.64 224.793 403.875 226.664Q404.11 228.536 404.299 230.412Q404.488 232.288 404.632 234.169Q404.776 236.049 404.874 237.932Q404.972 239.816 405.024 241.701Q405.072 243.678 405.071 245.655Q405.07 247.632 405.019 249.608Q404.969 251.585 404.87 253.559Q404.771 255.534 404.622 257.506Q404.474 259.477 404.277 261.444Q404.079 263.412 403.833 265.374Q403.587 267.335 403.293 269.29Q402.998 271.245 402.655 273.192Q402.312 275.14 401.92 277.078Q401.529 279.016 401.09 280.943Q400.65 282.871 400.163 284.787Q399.676 286.703 399.142 288.607Q398.607 290.51 398.026 292.4Q397.444 294.29 396.816 296.164Q396.187 298.039 395.513 299.897Q394.838 301.756 394.117 303.597Q393.396 305.438 392.63 307.261Q391.864 309.083 391.053 310.886Q390.242 312.689 389.386 314.472Q388.53 316.254 387.631 318.015Q386.731 319.775 385.788 321.513Q384.845 323.251 383.859 324.964Q382.873 326.678 381.844 328.367Q380.816 330.056 379.746 331.718Q378.676 333.381 377.566 335.016Q376.455 336.652 375.304 338.26Q374.153 339.867 372.962 341.445Q371.771 343.024 370.542 344.572Q369.312 346.121 368.045 347.638Q366.777 349.155 365.472 350.641Q364.168 352.126 362.826 353.579Q361.485 355.031 360.108 356.45Q358.766 357.815 357.392 359.147Q356.017 360.479 354.61 361.778Q353.204 363.076 351.765 364.339Q350.327 365.602 348.859 366.83Q347.39 368.058 345.892 369.25Q344.394 370.441 342.867 371.596Q341.341 372.75 339.786 373.867Q338.232 374.984 336.65 376.063Q335.069 377.141 333.462 378.181Q331.854 379.221 330.222 380.221Q328.59 381.221 326.934 382.18Q325.278 383.14 323.599 384.059Q321.92 384.978 320.219 385.856Q318.518 386.734 316.796 387.57Q315.074 388.406 313.332 389.2Q311.59 389.993 309.829 390.744Q308.068 391.495 306.29 392.202Q304.511 392.91 302.716 393.574Q300.92 394.238 299.109 394.857Q297.298 395.477 295.473 396.053Q293.647 396.628 291.808 397.159Q289.969 397.689 288.117 398.174Q286.265 398.66 284.403 399.1Q282.54 399.54 280.667 399.935Q278.793 400.329 276.911 400.677Q275.029 401.026 273.139 401.328Q271.249 401.631 269.352 401.887Q267.455 402.143 265.552 402.353Q263.65 402.562 261.742 402.725Q259.835 402.889 257.924 403.005Q256.014 403.122 254.101 403.191Q252.188 403.261 250.274 403.284Q247.873 403.319 245.471 403.281Q243.07 403.243 240.671 403.131Q238.272 403.019 235.878 402.833Q233.483 402.648 231.096 402.389Q228.708 402.13 226.329 401.798Q223.951 401.466 221.584 401.061Q219.217 400.656 216.863 400.179Q214.509 399.701 212.171 399.152Q209.833 398.602 207.513 397.982Q205.193 397.361 202.894 396.669Q200.594 395.977 198.316 395.215Q196.039 394.453 193.786 393.621Q191.533 392.79 189.306 391.89Q187.08 390.989 184.882 390.021Q182.684 389.053 180.517 388.017Q178.35 386.982 176.216 385.881C171.466 383.431 166.455 380.739 162.159 377.548C156.861 377.767 151.541 376.365 147.28 373.126C142.637 369.597 141.202 365.383 140.462 359.795Z"/>
	<path fill="#FAFAF9" transform="scale(1.01786 1.01786)" d="M140.462 359.795Q138.271 357.665 136.162 355.454Q134.054 353.243 132.03 350.954Q130.006 348.664 128.071 346.3Q126.135 343.936 124.29 341.501Q122.445 339.065 120.694 336.561Q118.943 334.058 117.287 331.49Q115.632 328.921 114.074 326.293Q112.517 323.664 111.06 320.978Q109.604 318.292 108.25 315.553Q106.896 312.814 105.646 310.026Q104.397 307.237 103.253 304.404Q102.11 301.57 101.075 298.696Q100.04 295.821 99.1137 292.909Q98.1879 289.997 97.3728 287.053Q96.5577 284.108 95.8546 281.134Q95.1515 278.161 94.5613 275.163C92.8755 266.18 92.2169 256.931 91.994 247.802Q91.9653 245.956 91.9811 244.109Q91.9969 242.263 92.0573 240.417Q92.1177 238.572 92.2226 236.728Q92.3276 234.884 92.4769 233.044Q92.6263 231.203 92.8201 229.367Q93.0139 227.531 93.2519 225.7Q93.4899 223.868 93.7721 222.044Q94.0543 220.219 94.3804 218.401Q94.7065 216.584 95.0764 214.775Q95.4464 212.965 95.8598 211.166Q96.2733 209.366 96.7301 207.577Q97.1868 205.788 97.6867 204.01Q98.1865 202.233 98.7291 200.467Q99.2717 198.702 99.8568 196.951Q100.442 195.2 101.069 193.463Q101.696 191.726 102.365 190.005Q103.034 188.284 103.744 186.579Q104.454 184.875 105.205 183.188Q105.957 181.501 106.748 179.833Q107.54 178.164 108.372 176.516Q109.203 174.867 110.075 173.239Q110.946 171.611 111.856 170.004Q112.766 168.398 113.715 166.814Q114.664 165.23 115.651 163.669Q116.638 162.108 117.662 160.571Q118.686 159.035 119.747 157.524Q120.808 156.012 121.905 154.527Q123.002 153.042 124.135 151.583Q125.267 150.125 126.435 148.694Q127.602 147.264 128.804 145.862Q130.006 144.46 131.241 143.087Q132.476 141.714 133.744 140.372Q135.1 138.937 136.492 137.536Q137.884 136.135 139.311 134.769Q140.738 133.404 142.198 132.074Q143.658 130.745 145.152 129.452Q146.645 128.16 148.17 126.905Q149.695 125.65 151.251 124.434Q152.807 123.218 154.393 122.041Q155.979 120.865 157.594 119.728Q159.209 118.591 160.852 117.495Q162.495 116.4 164.165 115.345Q165.835 114.291 167.531 113.279Q169.226 112.266 170.947 111.297Q172.667 110.328 174.412 109.401Q176.156 108.475 177.923 107.593Q179.69 106.711 181.478 105.874Q183.267 105.036 185.076 104.244Q186.885 103.451 188.713 102.704Q190.541 101.957 192.387 101.256Q194.234 100.555 196.097 99.9008Q197.96 99.2464 199.839 98.6387Q201.718 98.0311 203.612 97.4707Q205.506 96.9104 207.413 96.3976Q209.32 95.8848 211.24 95.4199Q213.159 94.9551 215.089 94.5384Q217.02 94.1218 218.96 93.7536Q220.9 93.3855 222.849 93.066Q224.798 92.7465 226.754 92.476Q228.711 92.2054 230.673 91.9839Q232.635 91.7624 234.603 91.5901Q236.57 91.4178 238.541 91.2949Q240.512 91.1719 242.486 91.0984Q244.459 91.0248 246.434 91.0007Q248.342 90.9618 250.251 90.9695Q252.16 90.9772 254.068 91.0314Q255.976 91.0857 257.882 91.1865Q259.789 91.2872 261.692 91.4345Q263.595 91.5818 265.494 91.7754Q267.393 91.9691 269.286 92.209Q271.18 92.4489 273.067 92.735Q274.955 93.0211 276.834 93.3531Q278.714 93.6851 280.585 94.0629Q282.456 94.4407 284.318 94.864Q286.179 95.2873 288.029 95.756Q289.88 96.2246 291.718 96.7382Q293.557 97.2518 295.382 97.8101Q297.207 98.3685 299.018 98.9712Q300.83 99.5739 302.626 100.221Q304.422 100.867 306.201 101.558Q307.981 102.248 309.743 102.981Q311.505 103.715 313.249 104.491Q314.993 105.268 316.717 106.086Q318.442 106.905 320.146 107.765Q321.849 108.626 323.532 109.528Q325.214 110.429 326.874 111.372Q328.534 112.315 330.17 113.297Q331.807 114.28 333.419 115.303Q335.031 116.325 336.617 117.386Q338.204 118.448 339.764 119.548Q341.324 120.648 342.857 121.785Q344.389 122.923 345.894 124.097Q347.399 125.272 348.874 126.483Q350.35 127.694 351.795 128.941Q353.241 130.187 354.655 131.469Q356.07 132.75 357.453 134.066Q358.812 135.374 360.139 136.714Q361.465 138.054 362.759 139.426Q364.053 140.798 365.313 142.201Q366.573 143.605 367.799 145.038Q369.025 146.471 370.215 147.934Q371.406 149.396 372.56 150.887Q373.715 152.378 374.833 153.897Q375.951 155.416 377.032 156.961Q378.113 158.506 379.156 160.078Q380.2 161.649 381.204 163.245Q382.209 164.841 383.175 166.461Q384.14 168.081 385.066 169.723Q385.992 171.366 386.878 173.031Q387.764 174.696 388.609 176.382Q389.454 178.068 390.258 179.774Q391.062 181.48 391.825 183.205Q392.587 184.93 393.307 186.673Q394.028 188.416 394.705 190.175Q395.383 191.935 396.018 193.711Q396.653 195.487 397.244 197.278Q397.836 199.068 398.384 200.873Q398.932 202.678 399.436 204.495Q399.939 206.312 400.399 208.141Q400.859 209.97 401.274 211.81Q401.689 213.65 402.059 215.499Q402.43 217.348 402.755 219.206Q403.08 221.063 403.36 222.928Q403.64 224.793 403.875 226.664Q404.11 228.536 404.299 230.412Q404.488 232.288 404.632 234.169Q404.776 236.049 404.874 237.932Q404.972 239.816 405.024 241.701Q405.072 243.678 405.071 245.655Q405.07 247.632 405.019 249.608Q404.969 251.585 404.87 253.559Q404.771 255.534 404.622 257.506Q404.474 259.477 404.277 261.444Q404.079 263.412 403.833 265.374Q403.587 267.335 403.293 269.29Q402.998 271.245 402.655 273.192Q402.312 275.14 401.92 277.078Q401.529 279.016 401.09 280.943Q400.65 282.871 400.163 284.787Q399.676 286.703 399.142 288.607Q398.607 290.51 398.026 292.4Q397.444 294.29 396.816 296.164Q396.187 298.039 395.513 299.897Q394.838 301.756 394.117 303.597Q393.396 305.438 392.63 307.261Q391.864 309.083 391.053 310.886Q390.242 312.689 389.386 314.472Q388.53 316.254 387.631 318.015Q386.731 319.775 385.788 321.513Q384.845 323.251 383.859 324.964Q382.873 326.678 381.844 328.367Q380.816 330.056 379.746 331.718Q378.676 333.381 377.566 335.016Q376.455 336.652 375.304 338.26Q374.153 339.867 372.962 341.445Q371.771 343.024 370.542 344.572Q369.312 346.121 368.045 347.638Q366.777 349.155 365.472 350.641Q364.168 352.126 362.826 353.579Q361.485 355.031 360.108 356.45Q358.766 357.815 357.392 359.147Q356.017 360.479 354.61 361.778Q353.204 363.076 351.765 364.339Q350.327 365.602 348.859 366.83Q347.39 368.058 345.892 369.25Q344.394 370.441 342.867 371.596Q341.341 372.75 339.786 373.867Q338.232 374.984 336.65 376.063Q335.069 377.141 333.462 378.181Q331.854 379.221 330.222 380.221Q328.59 381.221 326.934 382.18Q325.278 383.14 323.599 384.059Q321.92 384.978 320.219 385.856Q318.518 386.734 316.796 387.57Q315.074 388.406 313.332 389.2Q311.59 389.993 309.829 390.744Q308.068 391.495 306.29 392.202Q304.511 392.91 302.716 393.574Q300.92 394.238 299.109 394.857Q297.298 395.477 295.473 396.053Q293.647 396.628 291.808 397.159Q289.969 397.689 288.117 398.174Q286.265 398.66 284.403 399.1Q282.54 399.54 280.667 399.935Q278.793 400.329 276.911 400.677Q275.029 401.026 273.139 401.328Q271.249 401.631 269.352 401.887Q267.455 402.143 265.552 402.353Q263.65 402.562 261.742 402.725Q259.835 402.889 257.924 403.005Q256.014 403.122 254.101 403.191Q252.188 403.261 250.274 403.284Q247.873 403.319 245.471 403.281Q243.07 403.243 240.671 403.131Q238.272 403.019 235.878 402.833Q233.483 402.648 231.096 402.389Q228.708 402.13 226.329 401.798Q223.951 401.466 221.584 401.061Q219.217 400.656 216.863 400.179Q214.509 399.701 212.171 399.152Q209.833 398.602 207.513 397.982Q205.193 397.361 202.894 396.669Q200.594 395.977 198.316 395.215Q196.039 394.453 193.786 393.621Q191.533 392.79 189.306 391.89Q187.08 390.989 184.882 390.021Q182.684 389.053 180.517 388.017Q178.35 386.982 176.216 385.881C171.466 383.431 166.455 380.739 162.159 377.548C166.008 376.747 169.402 375.62 172.625 373.336C192.391 385.81 218.063 392.979 241.341 393.952Q243.156 394.032 244.973 394.068Q246.79 394.103 248.607 394.094Q250.424 394.084 252.241 394.03Q254.057 393.976 255.872 393.877Q257.686 393.778 259.498 393.635Q261.309 393.491 263.117 393.303Q264.924 393.115 266.726 392.882Q268.528 392.649 270.324 392.372Q272.12 392.095 273.909 391.774Q275.697 391.453 277.478 391.088Q279.258 390.723 281.028 390.314Q282.799 389.905 284.559 389.453Q286.319 389 288.067 388.505Q289.815 388.009 291.551 387.47Q293.286 386.932 295.008 386.351Q296.73 385.769 298.437 385.146Q300.144 384.523 301.835 383.857Q303.526 383.192 305.2 382.485Q306.874 381.779 308.53 381.031Q310.186 380.283 311.824 379.495Q313.461 378.706 315.078 377.878Q316.695 377.049 318.292 376.181Q319.888 375.313 321.463 374.406Q323.037 373.499 324.589 372.553Q326.141 371.607 327.669 370.624Q329.197 369.64 330.7 368.619Q332.203 367.598 333.681 366.54Q335.158 365.482 336.609 364.389Q338.061 363.295 339.484 362.166Q340.908 361.036 342.303 359.872Q343.699 358.708 345.065 357.51Q346.432 356.312 347.768 355.081C377.937 327.245 393.768 291.058 395.387 250.181Q395.446 248.433 395.462 246.684Q395.479 244.935 395.453 243.186Q395.428 241.437 395.359 239.689Q395.292 237.941 395.181 236.195Q395.071 234.449 394.918 232.707Q394.766 230.964 394.571 229.226Q394.377 227.488 394.14 225.755Q393.904 224.021 393.625 222.295Q393.347 220.568 393.027 218.848Q392.707 217.128 392.345 215.417Q391.984 213.706 391.581 212.003Q391.178 210.301 390.734 208.609Q390.29 206.917 389.805 205.237Q389.321 203.556 388.796 201.888Q388.27 200.219 387.705 198.564Q387.14 196.908 386.534 195.267Q385.929 193.626 385.284 192Q384.639 190.374 383.955 188.764Q383.271 187.154 382.549 185.561Q381.826 183.968 381.065 182.393Q380.304 180.818 379.505 179.262Q378.707 177.706 377.87 176.17Q377.034 174.634 376.161 173.118Q375.288 171.602 374.378 170.108Q373.469 168.614 372.523 167.142Q371.578 165.671 370.597 164.222Q369.616 162.774 368.601 161.35Q367.585 159.925 366.536 158.526Q365.486 157.127 364.403 155.753Q363.32 154.38 362.204 153.033Q361.087 151.686 359.939 150.367Q358.791 149.047 357.611 147.756C330.044 117.978 293.801 101.993 253.334 100.535Q251.533 100.476 249.731 100.461Q247.929 100.445 246.127 100.474Q244.326 100.503 242.525 100.575Q240.724 100.648 238.926 100.764Q237.128 100.88 235.333 101.04Q233.538 101.2 231.748 101.404Q229.957 101.608 228.172 101.855Q226.387 102.102 224.609 102.393Q222.831 102.683 221.06 103.017Q219.289 103.351 217.527 103.728Q215.765 104.104 214.012 104.524Q212.26 104.943 210.518 105.406Q208.776 105.868 207.046 106.372Q205.316 106.876 203.599 107.423Q201.882 107.969 200.178 108.557Q198.475 109.145 196.787 109.774Q195.098 110.404 193.425 111.074Q191.753 111.744 190.097 112.455Q188.441 113.166 186.803 113.916Q185.164 114.667 183.545 115.458Q181.926 116.248 180.326 117.078Q178.726 117.907 177.147 118.776Q175.568 119.644 174.011 120.551Q172.454 121.457 170.919 122.401Q169.384 123.346 167.873 124.327Q166.361 125.308 164.874 126.326Q163.387 127.344 161.925 128.397Q160.463 129.451 159.028 130.54Q157.592 131.629 156.183 132.752Q154.774 133.876 153.393 135.033Q152.012 136.191 150.66 137.382Q149.307 138.573 147.984 139.796C120.272 165.579 102.882 200.832 101.519 238.9C100.015 280.901 114.297 318.576 142.921 349.351C140.952 352.673 140.496 355.999 140.462 359.795Z"/>
	<path fill="#FAFAF9" transform="scale(1.01786 1.01786)" d="M169.209 173.803C170.901 173.614 172.72 174.017 174.302 174.611C176.656 175.495 178.386 177.176 179.412 179.467C180.349 181.555 180.568 183.794 180.307 186.049C179.516 192.877 172.908 208.196 170.254 215.353C175.818 214.275 183.301 214.121 189.237 213.353L246.115 206.174C266.887 203.573 287.606 200.446 308.359 197.687C313.265 197.035 318.162 195.816 323.063 195.308C325.682 195.037 327.752 195.04 330.133 196.347C332.859 197.842 335.097 200.441 335.86 203.488C336.456 205.866 336.003 208.024 334.671 210.069C333.245 212.257 331.024 213.854 328.634 214.843C326.53 215.713 324.229 216.145 322.028 216.711C316.74 218.071 311.431 219.222 306.12 220.474Q284.235 225.856 262.209 230.632C262.259 234.229 261.918 237.916 261.764 241.515Q261.324 252.435 260.76 263.349C260.573 266.989 259.809 272.464 260.361 275.96C260.957 279.732 264.031 284.855 265.709 288.399L274.959 308C276.641 311.601 278.498 315.221 279.915 318.934C281.973 324.326 282.135 328.941 279.685 334.24C277.362 339.264 273.69 343.904 270.531 348.436L258.967 365.276C256.181 369.362 251.957 376.647 248.973 379.978C247.81 381.277 246.167 382.283 244.523 382.844C241.753 383.79 238.773 383.278 236.199 381.99C233.565 380.672 231.707 378.551 230.871 375.714C229.383 370.67 231.618 366.692 233.915 362.384C236.209 358.84 238.207 354.995 240.326 351.333L253.205 329.227C250.437 325.435 248.161 320.999 245.719 316.965C242.377 311.441 238.638 305.937 235.747 300.177C234.077 303.369 232.679 306.723 231.194 310.006L222.127 330.158C220.53 333.743 219.067 337.4 217.321 340.915C206.711 347.513 195.35 353.249 184.355 359.194C178.128 362.561 171.896 366.601 165.353 369.291C163.141 370.201 160.777 370.835 158.365 370.654C155.484 370.439 152.809 368.877 150.965 366.686C148.702 363.997 147.906 360.563 148.32 357.124C148.586 354.915 149.437 352.762 151.04 351.181C154.176 348.089 158.603 346.055 162.406 343.884L183.869 331.59C187.423 329.54 191.427 327.625 194.676 325.129L194.975 324.896C196.935 320.637 208.684 279.593 208.61 276.906C208.527 273.862 207.552 270.562 207.088 267.535C205.644 258.109 203.985 248.71 202.66 239.269C193.976 239.211 185.249 238.573 176.561 238.344C167.61 238.108 158.252 238.375 149.376 237.171C147.446 236.91 145.536 236.567 143.885 235.462C142.188 234.328 141.227 232.604 140.841 230.622C140.317 227.932 140.975 225.196 141.793 222.637C144.095 215.434 148.425 207.617 151.587 200.642L157.306 187.847C158.696 184.733 159.99 181.435 161.879 178.584C163.769 175.73 165.902 174.497 169.209 173.803Z"/>
	<path fill="#FAFAF9" transform="scale(1.01786 1.01786)" d="M222.91 157.03Q223.483 157.013 224.057 157.023Q224.63 157.034 225.202 157.073Q225.774 157.112 226.344 157.179Q226.913 157.246 227.479 157.341Q228.044 157.435 228.604 157.558Q229.165 157.68 229.718 157.83Q230.272 157.979 230.817 158.156Q231.363 158.333 231.899 158.536Q232.435 158.739 232.961 158.968Q233.487 159.197 234 159.452Q234.514 159.707 235.015 159.986Q235.515 160.266 236.002 160.57Q236.488 160.874 236.959 161.201Q237.43 161.528 237.884 161.878Q238.338 162.228 238.775 162.6Q239.211 162.972 239.629 163.364Q240.047 163.757 240.445 164.17Q240.843 164.583 241.22 165.015Q241.598 165.446 241.953 165.896Q242.309 166.346 242.642 166.813Q242.976 167.279 243.286 167.762Q243.595 168.244 243.881 168.741Q244.167 169.238 244.428 169.749Q244.69 170.259 244.926 170.782Q245.161 171.305 245.371 171.838Q245.581 172.372 245.765 172.915Q245.948 173.458 246.105 174.01Q246.262 174.562 246.391 175.12Q246.521 175.679 246.623 176.243Q246.724 176.807 246.799 177.376Q246.873 177.945 246.919 178.516Q246.965 179.088 246.983 179.661Q247.001 180.234 246.991 180.808Q246.981 181.381 246.943 181.953Q246.905 182.525 246.838 183.095Q246.772 183.664 246.678 184.23Q246.584 184.796 246.463 185.356Q246.341 185.917 246.192 186.47Q246.043 187.024 245.867 187.57Q245.691 188.116 245.489 188.652Q245.286 189.189 245.058 189.715Q244.829 190.241 244.575 190.755Q244.321 191.269 244.042 191.77Q243.763 192.271 243.46 192.758Q243.157 193.244 242.83 193.716Q242.503 194.187 242.154 194.642Q241.805 195.096 241.433 195.533Q241.062 195.97 240.67 196.389Q240.277 196.807 239.865 197.206Q239.453 197.604 239.022 197.982Q238.59 198.36 238.141 198.716Q237.692 199.072 237.225 199.406Q236.759 199.74 236.277 200.051Q235.795 200.361 235.298 200.648Q234.801 200.934 234.291 201.196Q233.781 201.458 233.259 201.694Q232.736 201.931 232.203 202.142Q231.67 202.352 231.127 202.536Q230.583 202.721 230.032 202.878Q229.481 203.035 228.922 203.165Q228.364 203.296 227.799 203.398Q227.235 203.501 226.667 203.576Q226.098 203.651 225.527 203.697Q224.955 203.744 224.382 203.763Q223.808 203.782 223.234 203.772Q222.659 203.763 222.086 203.725Q221.513 203.688 220.942 203.622Q220.372 203.557 219.805 203.463Q219.238 203.369 218.677 203.248Q218.116 203.127 217.561 202.978Q217.006 202.829 216.459 202.653Q215.912 202.477 215.375 202.275Q214.837 202.072 214.31 201.844Q213.783 201.615 213.268 201.361Q212.753 201.107 212.251 200.828Q211.749 200.548 211.262 200.245Q210.774 199.941 210.302 199.614Q209.83 199.287 209.374 198.937Q208.919 198.587 208.481 198.215Q208.043 197.844 207.624 197.451Q207.205 197.058 206.806 196.645Q206.407 196.232 206.029 195.8Q205.65 195.368 205.293 194.917Q204.937 194.467 204.602 194Q204.268 193.533 203.957 193.05Q203.646 192.567 203.36 192.069Q203.073 191.572 202.811 191.061Q202.549 190.549 202.312 190.026Q202.076 189.503 201.865 188.968Q201.655 188.434 201.471 187.89Q201.286 187.346 201.129 186.793Q200.972 186.241 200.842 185.681Q200.713 185.122 200.61 184.556Q200.508 183.991 200.434 183.422Q200.36 182.852 200.313 182.28Q200.267 181.707 200.249 181.133Q200.231 180.559 200.241 179.985Q200.251 179.41 200.29 178.837Q200.328 178.264 200.394 177.694Q200.461 177.123 200.555 176.557Q200.649 175.99 200.772 175.429Q200.894 174.868 201.043 174.313Q201.193 173.758 201.369 173.212Q201.546 172.665 201.749 172.128Q201.952 171.591 202.181 171.064Q202.411 170.538 202.666 170.023Q202.92 169.508 203.2 169.007Q203.48 168.505 203.784 168.018Q204.088 167.531 204.416 167.059Q204.744 166.587 205.094 166.132Q205.445 165.677 205.817 165.24Q206.19 164.802 206.583 164.384Q206.977 163.966 207.39 163.567Q207.804 163.168 208.236 162.79Q208.669 162.413 209.119 162.056Q209.57 161.7 210.037 161.367Q210.505 161.033 210.988 160.723Q211.472 160.413 211.97 160.126Q212.468 159.84 212.979 159.579Q213.491 159.318 214.015 159.082Q214.538 158.846 215.073 158.636Q215.608 158.426 216.152 158.243Q216.696 158.059 217.249 157.903Q217.801 157.747 218.361 157.618Q218.921 157.488 219.486 157.387Q220.051 157.285 220.621 157.212Q221.191 157.138 221.763 157.093Q222.336 157.047 222.91 157.03Z"/>
	<path fill="#FAFAF9" transform="scale(1.01786 1.01786)" d="M306.035 123.972C308.737 124 312.364 127.353 314.507 128.884C309.603 132.825 306.501 137.034 304.068 142.858C302.037 147.72 301.934 153.974 297.186 157.125C294.426 157.948 291.733 157.514 288.983 156.892C288.926 150.039 289.572 144.264 292.471 137.994C295.296 131.883 299.518 126.343 306.035 123.972Z"/>
	<path fill="#FAFAF9" transform="scale(1.01786 1.01786)" d="M293.804 122.341C296.082 121.936 298.74 122.197 301.059 122.232C292.174 129.22 288.228 139.359 285.992 150.117C285.714 151.457 285.696 154.468 284.701 155.434C284.424 155.703 283.814 155.499 283.449 155.454C280.88 154.675 278.444 153.926 276.135 152.53C276.092 152.313 276.053 152.095 276.019 151.876C274.765 143.715 277.674 134.108 282.633 127.584C285.634 123.635 289.158 123.002 293.804 122.341Z"/>
	<path fill="#FAFAF9" transform="scale(1.01786 1.01786)" d="M268.411 153.085C275.179 154.976 281.802 157.701 288.713 159.039C292.75 159.82 297.623 158.706 301.328 159.932C303.9 160.784 306.577 163.587 307.658 166.075C307.909 166.651 307.964 166.927 307.729 167.503L306.944 167.715C297.035 169.641 282.175 170.296 273.28 165.357C271.026 161.818 269.313 157.164 268.411 153.085Z"/>
	<path fill="#FAFAF9" transform="scale(1.01786 1.01786)" d="M306.045 145.874Q308.933 147.189 311.489 149.071C316.998 153.116 319.583 157.629 320.586 164.294C319.163 166.635 317.55 168.551 315.659 170.534C314.637 171.57 313.498 172.523 312.415 173.496C311.739 166.714 308.413 161.485 303.271 157.18C303.852 153.119 304.371 149.662 306.045 145.874Z"/>
	<path fill="#FAFAF9" transform="scale(1.01786 1.01786)" d="M313.531 134.792C314.486 134.732 315.391 134.717 316.335 134.906C318.715 135.384 320.881 136.72 322.18 138.797C325.034 143.355 325.183 152.28 324.111 157.419C323.178 156.232 322.167 155.106 321.175 153.967C316.911 149.165 311.931 146.132 306.868 142.364C308.509 139.117 310.285 136.599 313.531 134.792Z"/>
	<path fill="#FAFAF9" transform="scale(1.01786 1.01786)" d="M308.601 169.838C308.871 169.781 309.083 169.853 309.351 169.905C310.198 171.177 310.356 173.047 310.657 174.542C308.313 175.611 305.874 176.553 303.392 177.245C295.828 179.354 288.943 178.131 282.102 174.305Q279.01 172.074 275.791 170.031C288.196 171.932 296.274 171.912 308.601 169.838Z"/>
	<path fill="#FAFAF9" transform="scale(1.01786 1.01786)" d="M276.716 131.485C276.79 131.655 276.926 131.811 276.939 131.997C276.97 132.438 274.108 140.683 273.793 142.072C273.127 145.016 273.113 147.711 273.317 150.711L271.049 149.246L268.815 147.698C270.064 140.638 272.452 137.116 276.716 131.485Z"/>
	<path fill="#FAFAF9" fill-opacity="0.97647059" transform="scale(1.01786 1.01786)" d="M434.777 236.635C435.43 241.311 435.16 246.618 434.977 251.345C433.702 249.374 434.569 239.323 434.777 236.635Z"/>
</svg>
