<?xml version="1.0" encoding="utf-8" ?>
<svg xmlns="http://www.w3.org/2000/svg" xmlns:xlink="http://www.w3.org/1999/xlink" width="509" height="509">
	<path fill="#FBFAFA" transform="scale(1.01786 1.01786)" d="M235.51 60.3454Q240.067 60.0236 244.634 59.9261Q249.202 59.8285 253.769 59.9554Q258.335 60.0823 262.89 60.4333Q267.445 60.7843 271.977 61.3585Q276.509 61.9328 281.008 62.729Q285.506 63.5252 289.96 64.5413Q294.414 65.5574 298.813 66.7911Q303.212 68.0248 307.545 69.473Q311.877 70.9212 316.134 72.5805Q320.39 74.2397 324.56 76.106Q328.73 77.9723 332.803 80.0411Q336.876 82.11 340.843 84.3764Q344.81 86.6427 348.66 89.1012Q352.511 91.5596 356.236 94.2042Q359.961 96.8488 363.552 99.6732Q367.142 102.498 370.59 105.495Q374.038 108.492 377.334 111.655Q380.63 114.818 383.767 118.139Q386.904 121.46 389.875 124.932Q392.845 128.403 395.641 132.015Q398.437 135.628 401.052 139.374Q403.667 143.12 406.095 146.99Q408.524 150.859 410.759 154.844Q412.994 158.828 415.031 162.917Q417.068 167.006 418.901 171.191Q420.735 175.375 422.36 179.644Q423.986 183.914 425.4 188.258Q426.814 192.602 428.013 197.01Q429.213 201.418 430.194 205.88Q431.175 210.342 431.936 214.847Q432.696 219.351 433.235 223.888Q433.774 228.424 434.089 232.982Q434.404 237.54 434.495 242.107Q434.586 246.675 434.453 251.241Q434.319 255.808 433.962 260.362Q433.604 264.916 433.023 269.448Q432.443 273.979 431.64 278.477Q430.837 282.974 429.815 287.426Q428.792 291.879 427.552 296.276Q426.312 300.673 424.858 305.004Q423.404 309.334 421.738 313.588Q420.073 317.842 418.2 322.01Q416.328 326.177 414.254 330.247Q412.179 334.317 409.907 338.28Q407.635 342.244 405.171 346.091Q402.707 349.938 400.057 353.659Q397.407 357.38 394.577 360.967Q391.748 364.554 388.745 367.997Q385.743 371.441 382.576 374.733Q379.408 378.024 376.082 381.157Q372.757 384.289 369.281 387.254Q365.806 390.219 362.189 393.01Q358.572 395.801 354.822 398.411Q351.073 401.021 347.2 403.443Q343.327 405.866 339.339 408.095Q335.352 410.325 331.259 412.356Q327.167 414.386 322.98 416.214Q318.793 418.041 314.521 419.661Q310.25 421.281 305.904 422.689Q301.558 424.096 297.148 425.289Q292.738 426.482 288.274 427.457Q283.811 428.431 279.305 429.186Q274.8 429.94 270.262 430.472Q265.725 431.004 261.167 431.313Q256.617 431.621 252.058 431.706Q247.499 431.79 242.941 431.652Q238.383 431.513 233.837 431.15Q229.291 430.788 224.769 430.204Q220.247 429.619 215.758 428.813Q211.27 428.008 206.826 426.983Q202.383 425.958 197.995 424.717Q193.607 423.476 189.285 422.021Q184.964 420.566 180.718 418.901Q176.473 417.236 172.315 415.365Q168.156 413.494 164.094 411.421Q160.033 409.348 156.077 407.079Q152.122 404.81 148.283 402.349Q144.443 399.889 140.729 397.243Q137.015 394.597 133.435 391.772Q129.856 388.948 126.418 385.951Q122.981 382.954 119.695 379.793Q116.409 376.631 113.282 373.312Q110.155 369.993 107.194 366.525Q104.234 363.056 101.447 359.447Q98.6596 355.838 96.0528 352.096Q93.4461 348.355 91.0258 344.49Q88.6056 340.625 86.3778 336.646Q84.1499 332.668 82.1198 328.584Q80.0897 324.501 78.2622 320.323Q76.4347 316.145 74.8142 311.883Q73.1937 307.621 71.7841 303.284Q70.3745 298.947 69.1792 294.546Q67.9839 290.146 67.0058 285.692Q66.0277 281.238 65.2691 276.741Q64.5105 272.245 63.9732 267.717Q63.4359 263.188 63.1213 258.639Q62.8067 254.09 62.7154 249.531Q62.6242 244.972 62.7566 240.413Q62.889 235.855 63.2446 231.309Q63.6003 226.763 64.1784 222.24Q64.7565 217.716 65.5557 213.227Q66.3548 208.737 67.3731 204.292Q68.3914 199.847 69.6263 195.458Q70.8613 191.068 72.31 186.744Q73.7586 182.42 75.4175 178.173Q77.0764 173.925 78.9416 169.764Q80.8067 165.603 82.8736 161.538Q84.9405 157.473 87.2041 153.515Q89.4678 149.556 91.9228 145.713Q94.3778 141.871 97.0182 138.153Q99.6586 134.435 102.478 130.851Q105.298 127.267 108.289 123.826Q111.281 120.384 114.438 117.094Q117.595 113.803 120.91 110.671Q124.224 107.539 127.688 104.574Q131.152 101.608 134.757 98.8158Q138.362 96.0235 142.1 93.4114Q145.838 90.7992 149.699 88.3735Q153.561 85.9477 157.536 83.7141Q161.512 81.4805 165.592 79.4445Q169.672 77.4086 173.848 75.5751Q178.023 73.7415 182.283 72.1149Q186.543 70.4883 190.878 69.0725Q195.212 67.6566 199.611 66.455Q204.01 65.2534 208.463 64.2688Q212.915 63.2843 217.411 62.5192Q221.906 61.7541 226.434 61.2104Q230.961 60.6666 235.51 60.3454Z"/>
	<path fill="#D62220" transform="scale(1.01786 1.01786)" d="M239.289 73.8903Q243.512 73.6596 247.742 73.6363Q251.972 73.6131 256.197 73.7975Q260.423 73.9818 264.635 74.3732Q268.846 74.7647 273.034 75.3623Q277.221 75.9599 281.374 76.7623Q285.527 77.5646 289.635 78.5698Q293.744 79.5749 297.798 80.7805Q301.852 81.986 305.843 83.389Q309.833 84.792 313.749 86.3891Q317.666 87.9862 321.5 89.7735Q325.333 91.5609 329.074 93.5341Q332.816 95.5074 336.455 97.6619Q340.095 99.8164 343.625 102.147Q347.155 104.477 350.566 106.978Q353.977 109.479 357.262 112.144Q360.546 114.809 363.696 117.633Q366.845 120.456 369.853 123.43Q372.86 126.404 375.718 129.523Q378.576 132.641 381.277 135.896Q383.978 139.15 386.517 142.534Q389.055 145.917 391.424 149.421Q393.794 152.925 395.988 156.541Q398.183 160.156 400.197 163.876Q402.212 167.595 404.041 171.408Q405.871 175.222 407.511 179.121Q409.152 183.019 410.599 186.994Q412.046 190.968 413.296 195.009Q414.546 199.05 415.597 203.147Q416.647 207.244 417.495 211.388Q418.343 215.532 418.987 219.712Q419.631 223.893 420.069 228.1Q420.507 232.307 420.738 236.53Q420.969 240.753 420.993 244.983Q421.016 249.213 420.832 253.438Q420.648 257.664 420.257 261.876Q419.866 266.087 419.268 270.274Q418.671 274.462 417.869 278.615Q417.067 282.768 416.062 286.876Q415.057 290.985 413.852 295.039Q412.647 299.094 411.244 303.084Q409.841 307.074 408.244 310.991Q406.648 314.908 404.861 318.741Q403.074 322.575 401.101 326.316Q399.128 330.058 396.973 333.698Q394.819 337.338 392.489 340.868Q390.159 344.398 387.658 347.809Q385.158 351.22 382.493 354.505Q379.828 357.789 377.005 360.939Q374.182 364.089 371.208 367.097Q368.234 370.104 365.116 372.962Q361.997 375.82 358.743 378.522Q355.488 381.223 352.105 383.762Q348.722 386.3 345.219 388.67Q341.715 391.04 338.099 393.234Q334.484 395.429 330.764 397.444Q327.045 399.459 323.232 401.289Q319.419 403.118 315.52 404.759Q311.622 406.4 307.647 407.847Q303.673 409.294 299.632 410.545Q295.592 411.795 291.494 412.846Q287.397 413.897 283.254 414.745Q279.11 415.594 274.93 416.238Q270.749 416.882 266.542 417.32Q262.335 417.759 258.112 417.99Q253.888 418.221 249.658 418.245Q245.428 418.269 241.202 418.085Q236.976 417.901 232.764 417.51Q228.552 417.12 224.364 416.522Q220.176 415.925 216.023 415.123Q211.87 414.321 207.761 413.317Q203.652 412.312 199.597 411.107Q195.542 409.902 191.551 408.499Q187.561 407.096 183.643 405.499Q179.726 403.902 175.892 402.115Q172.058 400.328 168.316 398.355Q164.575 396.382 160.934 394.228Q157.294 392.073 153.764 389.743Q150.233 387.413 146.822 384.912Q143.41 382.411 140.125 379.746Q136.84 377.081 133.69 374.257Q130.54 371.434 127.532 368.46Q124.524 365.486 121.666 362.367Q118.808 359.249 116.106 355.994Q113.404 352.739 110.865 349.356Q108.327 345.972 105.957 342.468Q103.587 338.964 101.392 335.348Q99.1973 331.732 97.1825 328.012Q95.1677 324.293 93.3378 320.479Q91.5079 316.665 89.8673 312.766Q88.2268 308.867 86.7795 304.892Q85.3323 300.918 84.0818 296.877Q82.8314 292.836 81.7807 288.738Q80.73 284.64 79.8817 280.496Q79.0334 276.352 78.3894 272.171Q77.7455 267.991 77.3075 263.783Q76.8694 259.576 76.6384 255.352Q76.4073 251.128 76.3839 246.898Q76.3603 242.668 76.5444 238.442Q76.7285 234.216 77.1198 230.004Q77.511 225.792 78.1085 221.604Q78.7059 217.417 79.5081 213.263Q80.3103 209.11 81.3154 205.001Q82.3205 200.892 83.5259 196.838Q84.7314 192.783 86.1344 188.792Q87.5374 184.802 89.1345 180.885Q90.7316 176.968 92.519 173.134Q94.3064 169.3 96.2797 165.558Q98.2531 161.817 100.408 158.176Q102.562 154.536 104.893 151.006Q107.224 147.476 109.725 144.064Q112.226 140.653 114.891 137.368Q117.556 134.083 120.38 130.933Q123.203 127.784 126.178 124.776Q129.152 121.768 132.271 118.91Q135.39 116.052 138.645 113.351Q141.9 110.649 145.283 108.111Q148.667 105.572 152.171 103.203Q155.675 100.833 159.292 98.6385Q162.908 96.4439 166.627 94.4293Q170.347 92.4147 174.161 90.5851Q177.975 88.7555 181.874 87.1152Q185.773 85.4749 189.748 84.028Q193.723 82.581 197.764 81.3308Q201.805 80.0806 205.903 79.0303Q210 77.9799 214.145 77.1319Q218.289 76.2838 222.47 75.6402Q226.65 74.9965 230.858 74.5588Q235.065 74.121 239.289 73.8903Z"/>
	<path fill="#FBFAFA" transform="scale(1.01786 1.01786)" d="M241.728 91.8689Q245.507 91.6972 249.291 91.7112Q253.074 91.7253 256.852 91.9251Q260.63 92.1248 264.393 92.5099Q268.157 92.8949 271.897 93.4643Q275.637 94.0337 279.345 94.786Q283.053 95.5384 286.719 96.4718Q290.385 97.4053 294.001 98.5177Q297.617 99.63 301.174 100.919Q304.731 102.207 308.221 103.669Q311.71 105.13 315.124 106.762Q318.537 108.393 321.867 110.19Q325.196 111.987 328.433 113.945Q331.67 115.903 334.807 118.018Q337.944 120.133 340.974 122.399Q344.003 124.665 346.917 127.077Q349.832 129.489 352.624 132.042Q355.417 134.594 358.081 137.281Q360.744 139.967 363.273 142.781Q365.802 145.595 368.189 148.53Q370.577 151.465 372.817 154.513Q375.058 157.562 377.146 160.717Q379.234 163.871 381.165 167.125Q383.095 170.378 384.864 173.723Q386.633 177.067 388.235 180.494Q389.837 183.922 391.269 187.423Q392.702 190.925 393.96 194.493Q395.218 198.061 396.3 201.686Q397.382 205.311 398.284 208.985Q399.187 212.659 399.908 216.373Q400.628 220.087 401.166 223.832Q401.704 227.577 402.057 231.344Q402.41 235.11 402.578 238.89Q402.746 242.67 402.728 246.453Q402.71 250.236 402.506 254.014Q402.302 257.792 401.913 261.555Q401.524 265.318 400.951 269.058Q400.378 272.797 399.622 276.504Q398.866 280.211 397.928 283.876Q396.991 287.542 395.875 291.156Q394.759 294.771 393.466 298.327Q392.174 301.883 390.709 305.371Q389.244 308.859 387.609 312.271Q385.974 315.682 384.174 319.01Q382.373 322.337 380.412 325.572Q378.45 328.807 376.332 331.942Q374.214 335.077 371.945 338.104Q369.675 341.131 367.26 344.043Q364.845 346.955 362.289 349.745Q359.734 352.535 357.045 355.196Q354.356 357.857 351.539 360.382Q348.722 362.908 345.785 365.293Q342.848 367.677 339.797 369.914Q336.746 372.152 333.589 374.237Q330.432 376.321 327.177 378.249Q323.921 380.176 320.575 381.941Q317.229 383.706 313.8 385.305Q310.371 386.904 306.868 388.332Q303.364 389.761 299.795 391.015Q296.226 392.27 292.6 393.348Q288.973 394.426 285.298 395.324Q281.623 396.223 277.908 396.94Q274.194 397.657 270.448 398.191Q266.703 398.725 262.936 399.074Q259.169 399.423 255.389 399.587Q251.614 399.751 247.836 399.729Q244.058 399.707 240.285 399.5Q236.513 399.294 232.755 398.902Q228.997 398.51 225.263 397.935Q221.529 397.359 217.827 396.602Q214.126 395.844 210.466 394.905Q206.806 393.967 203.197 392.85Q199.588 391.733 196.037 390.441Q192.487 389.148 189.004 387.684Q185.522 386.219 182.115 384.585Q178.708 382.951 175.386 381.152Q172.063 379.353 168.833 377.393Q165.603 375.433 162.473 373.317Q159.343 371.202 156.32 368.935Q153.297 366.668 150.389 364.256Q147.481 361.843 144.695 359.291Q141.909 356.74 139.251 354.054Q136.594 351.369 134.071 348.556Q131.548 345.743 129.166 342.811Q126.785 339.878 124.549 336.831Q122.314 333.785 120.231 330.633Q118.148 327.481 116.222 324.231Q114.296 320.98 112.532 317.639Q110.767 314.298 109.169 310.875Q107.571 307.451 106.142 303.954Q104.713 300.456 103.458 296.892Q102.203 293.329 101.124 289.708Q100.044 286.087 99.1442 282.418Q98.244 278.748 97.5247 275.039Q96.8055 271.33 96.269 267.59Q95.7325 263.85 95.38 260.088Q95.0275 256.327 94.8599 252.552Q94.6923 248.777 94.71 244.999Q94.7278 241.221 94.9307 237.448Q95.1337 233.676 95.5214 229.917Q95.9091 226.159 96.4806 222.424Q97.0521 218.689 97.8061 214.987Q98.5601 211.285 99.4947 207.624Q100.429 203.963 101.542 200.353Q102.655 196.742 103.944 193.19Q105.233 189.639 106.694 186.154Q108.155 182.67 109.786 179.262Q111.416 175.854 113.212 172.529Q115.007 169.205 116.964 165.973Q118.92 162.74 121.033 159.608Q123.145 156.475 125.409 153.45Q127.672 150.425 130.082 147.515Q132.491 144.604 135.04 141.815Q137.589 139.027 140.272 136.366Q142.954 133.706 145.764 131.18Q148.574 128.654 151.505 126.269Q154.435 123.884 157.479 121.646Q160.523 119.408 163.673 117.321Q166.823 115.235 170.071 113.306Q173.32 111.376 176.659 109.608Q179.998 107.841 183.42 106.239Q186.842 104.637 190.338 103.204Q193.834 101.772 197.397 100.513Q200.959 99.2541 204.579 98.1712Q208.198 97.0883 211.867 96.1842Q215.535 95.2802 219.244 94.5571Q222.952 93.834 226.691 93.2936Q230.431 92.7532 234.192 92.3968Q237.954 92.0404 241.728 91.8689Z"/>
	<path fill="#093A5F" transform="scale(1.01786 1.01786)" d="M238.129 101.752Q241.667 101.497 245.214 101.416Q248.76 101.335 252.306 101.428Q255.853 101.521 259.39 101.788Q262.927 102.055 266.447 102.496Q269.967 102.936 273.461 103.549Q276.955 104.162 280.415 104.946Q283.875 105.73 287.292 106.682Q290.709 107.635 294.075 108.754Q297.441 109.873 300.749 111.157Q304.056 112.44 307.296 113.884Q310.536 115.328 313.701 116.929Q316.867 118.531 319.95 120.286Q323.033 122.04 326.026 123.945Q329.019 125.849 331.915 127.898Q334.81 129.946 337.602 132.135Q340.394 134.324 343.075 136.647Q345.756 138.97 348.32 141.421Q350.884 143.873 353.324 146.448Q355.764 149.023 358.075 151.714Q360.386 154.406 362.561 157.208Q364.737 160.009 366.773 162.915Q368.809 165.82 370.699 168.821Q372.59 171.823 374.331 174.914Q376.072 178.005 377.659 181.177Q379.246 184.35 380.675 187.597Q382.104 190.843 383.372 194.156Q384.641 197.469 385.745 200.84Q386.849 204.212 387.786 207.633Q388.723 211.055 389.491 214.518Q390.259 217.981 390.856 221.478Q391.453 224.975 391.877 228.497Q392.302 232.019 392.553 235.557Q392.804 239.096 392.881 242.642Q392.958 246.189 392.861 249.735Q392.764 253.281 392.493 256.818Q392.221 260.355 391.777 263.875Q391.332 267.394 390.716 270.887Q390.099 274.381 389.311 277.84Q388.523 281.299 387.567 284.715Q386.61 288.131 385.487 291.496Q384.364 294.861 383.077 298.166Q381.79 301.472 380.342 304.711Q378.895 307.949 377.29 311.113Q375.685 314.276 373.926 317.357Q372.168 320.438 370.26 323.429Q368.353 326.42 366.3 329.313Q364.248 332.207 362.057 334.996Q359.865 337.786 357.539 340.464Q355.213 343.142 352.758 345.703Q350.303 348.264 347.725 350.702Q345.148 353.139 342.454 355.447Q339.76 357.754 336.955 359.927Q334.151 362.1 331.244 364.132Q328.336 366.164 325.332 368.052Q322.328 369.939 319.235 371.676Q316.143 373.413 312.968 374.997Q309.794 376.58 306.545 378.006Q303.297 379.432 299.983 380.696Q296.668 381.96 293.296 383.06Q289.923 384.161 286.501 385.094Q283.078 386.027 279.614 386.791Q276.15 387.555 272.652 388.148Q269.155 388.741 265.632 389.161Q262.11 389.582 258.571 389.829Q255.037 390.076 251.496 390.149Q247.954 390.222 244.414 390.121Q240.873 390.021 237.341 389.747Q233.809 389.473 230.295 389.026Q226.782 388.579 223.294 387.96Q219.806 387.341 216.353 386.552Q212.899 385.763 209.489 384.806Q206.078 383.849 202.719 382.725Q199.36 381.602 196.059 380.315Q192.759 379.028 189.526 377.581Q186.293 376.134 183.134 374.531Q179.976 372.927 176.9 371.17Q173.824 369.413 170.838 367.508Q167.852 365.602 164.963 363.553Q162.074 361.503 159.289 359.314Q156.504 357.125 153.829 354.803Q151.155 352.48 148.597 350.029Q146.04 347.578 143.606 345.004Q141.172 342.431 138.867 339.741Q136.562 337.052 134.392 334.252Q132.221 331.452 130.191 328.55Q128.16 325.647 126.275 322.649Q124.389 319.65 122.653 316.563Q120.916 313.475 119.333 310.306Q117.75 307.137 116.325 303.895Q114.899 300.652 113.634 297.343Q112.369 294.034 111.268 290.668Q110.167 287.301 109.232 283.884Q108.298 280.468 107.531 277.009Q106.765 273.551 106.17 270.059Q105.574 266.567 105.15 263.05Q104.727 259.533 104.476 256Q104.225 252.467 104.148 248.925Q104.071 245.384 104.167 241.843Q104.264 238.302 104.534 234.77Q104.804 231.238 105.247 227.724Q105.69 224.209 106.305 220.721Q106.919 217.232 107.704 213.778Q108.489 210.324 109.443 206.912Q110.396 203.501 111.516 200.14Q112.635 196.779 113.918 193.477Q115.201 190.176 116.645 186.941Q118.088 183.706 119.688 180.546Q121.289 177.386 123.042 174.308Q124.795 171.23 126.697 168.241Q128.599 165.253 130.645 162.362Q132.692 159.47 134.877 156.683Q137.063 153.895 139.383 151.218Q141.702 148.541 144.15 145.981Q146.598 143.421 149.169 140.984Q151.74 138.547 154.427 136.238Q157.114 133.93 159.911 131.757Q162.708 129.583 165.608 127.55Q168.509 125.516 171.505 123.627Q174.502 121.738 177.587 119.998Q180.673 118.258 183.84 116.671Q187.007 115.085 190.248 113.656Q193.489 112.226 196.796 110.957Q200.104 109.689 203.469 108.584Q206.835 107.479 210.25 106.54Q213.666 105.601 217.123 104.831Q220.581 104.061 224.072 103.462Q227.563 102.862 231.08 102.434Q234.596 102.007 238.129 101.752Z"/>
	<path fill="#FBFAFA" transform="scale(1.01786 1.01786)" d="M255.781 259.548L256.464 259.447C257.358 259.781 282.258 286.796 284.541 289.384C286.313 291.393 288.027 293.527 289.525 295.745C290.891 297.766 291.996 299.954 292.173 302.431C292.624 308.721 287.963 318.442 285.775 324.51C284.806 327.197 284.013 329.95 282.984 332.615C281.849 335.555 280.203 338.711 279.704 341.82C279.638 342.232 279.438 343.191 279.698 343.548C281.06 345.422 287.906 346.589 290.74 350.538C291.333 351.364 291.652 352.354 291.409 353.369C291.137 354.501 290.326 355.218 289.364 355.8C287.969 356.644 286.339 357.134 284.738 357.414C279.469 358.338 263.267 358.746 258.226 357.38C256.703 356.967 255.471 355.909 254.708 354.542C254.027 353.321 253.921 352.334 254.105 350.97C254.669 346.789 256.554 342.447 257.874 338.445L264.858 317.571C266.254 313.457 267.79 309.379 269 305.206C264.261 301.449 258.526 298.388 253.345 295.24C249.13 292.679 244.816 289.634 240.298 287.668C237.746 291.466 236.287 296.121 234.086 300.171Q231.157 305.839 228.337 311.562C226.648 315.005 225.013 319.12 222.626 322.127C218.871 326.859 190.518 338.675 183.436 341.612C179.853 343.098 186.069 350.827 184.039 355.638C183.489 356.943 182.44 357.664 181.143 358.13C180.1 358.505 179.391 358.389 178.407 357.908C173.571 355.545 164.099 344.093 162.314 339.078C161.516 336.838 161.334 334.415 162.362 332.21C163.075 330.68 164.443 329.477 165.814 328.532C169.231 326.174 173.35 324.428 177.021 322.486Q186.205 317.533 195.318 312.45C197.543 311.199 201.139 309.66 202.767 307.686C205.207 304.725 210.016 293.293 211.901 289.224C214.62 283.353 217.506 277.563 220.24 271.7C225.341 269.469 230.515 267.975 235.744 266.122C239.949 264.632 244.169 263.224 248.401 261.815C250.833 261.006 253.262 260.047 255.781 259.548Z"/>
	<path fill="#FBFAFA" transform="scale(1.01786 1.01786)" d="M270.217 167.819C271.568 167.789 272.807 167.794 274.091 168.297C277.933 169.8 280.095 173.752 281.549 177.371C284.722 185.266 287.467 201.752 283.827 209.827C279.601 219.202 264.212 222.972 255.39 226.268C253.973 226.798 251.882 227.37 250.868 228.543C249.013 230.69 257.322 247.58 255.721 250.653C255.085 251.874 253.64 252.772 252.458 253.38C247.748 255.799 242.149 257.406 237.133 259.085C232.723 260.561 228.361 262.162 223.935 263.595Q222.55 264.077 221.176 264.591C215.158 256.741 209.914 249.051 206.348 239.763C211.282 237.876 216.919 233.822 220.193 229.652C225.062 223.451 226.189 218.692 225.249 210.999C238.808 206.584 252.497 202.837 265.917 197.966C265.683 191.49 261.185 176.218 264.433 171.238C265.798 169.147 267.851 168.277 270.217 167.819Z"/>
	<path fill="#FBFAFA" transform="scale(1.01786 1.01786)" d="M348.928 186.286C356.537 186.501 366.711 194.278 372.198 199.506C373.748 200.984 375.282 202.899 375.271 205.153C375.265 206.277 374.818 207.179 373.969 207.914C370.096 211.267 363.679 209.799 359.069 209.456C356.701 212.65 354.819 216.292 352.702 219.668C349.559 224.678 346.241 229.57 343.049 234.547C340.313 238.814 337.661 244.156 333.597 247.274C332.57 248.062 331.582 248.526 330.309 248.765C325.908 249.591 317.086 248.507 312.461 247.905C304.035 246.734 295.38 245.696 286.87 245.531C291.238 241.261 294.786 236.408 298.48 231.57C301.284 227.897 304.196 224.26 306.602 220.309C312.085 221.549 317.675 222.935 323.274 223.498C325.427 220.89 327.027 217.634 328.802 214.746Q334.008 206.344 339.502 198.128C341.519 195.087 343.392 191.836 345.746 189.046C346.697 187.918 347.619 187.009 348.928 186.286Z"/>
	<path fill="#FBFAFA" transform="scale(1.01786 1.01786)" d="M231.874 151.238Q232.402 151.244 232.928 151.276Q233.455 151.308 233.98 151.366Q234.504 151.423 235.025 151.507Q235.546 151.59 236.063 151.699Q236.579 151.807 237.089 151.941Q237.6 152.075 238.103 152.233Q238.607 152.392 239.102 152.575Q239.596 152.757 240.082 152.964Q240.567 153.171 241.042 153.402Q241.517 153.632 241.98 153.885Q242.443 154.139 242.893 154.414Q243.343 154.69 243.779 154.987Q244.214 155.285 244.635 155.603Q245.056 155.921 245.461 156.26Q245.866 156.598 246.254 156.956Q246.642 157.314 247.011 157.69Q247.381 158.066 247.732 158.461Q248.083 158.854 248.415 159.265Q248.746 159.676 249.057 160.102Q249.368 160.529 249.657 160.97Q249.947 161.411 250.215 161.866Q250.482 162.32 250.728 162.788Q250.973 163.255 251.195 163.733Q251.417 164.212 251.615 164.701Q251.814 165.19 251.988 165.688Q252.162 166.186 252.312 166.692Q252.462 167.198 252.586 167.711Q252.711 168.224 252.811 168.742Q252.91 169.26 252.984 169.783Q253.059 170.305 253.107 170.83Q253.156 171.356 253.178 171.883Q253.201 172.41 253.198 172.938Q253.195 173.466 253.166 173.993Q253.137 174.519 253.083 175.044Q253.028 175.569 252.948 176.091Q252.868 176.612 252.762 177.129Q252.657 177.646 252.526 178.158Q252.395 178.669 252.24 179.173Q252.084 179.677 251.904 180.173Q251.724 180.669 251.52 181.156Q251.316 181.643 251.089 182.119Q250.861 182.595 250.611 183.059Q250.36 183.523 250.087 183.975Q249.814 184.427 249.519 184.864Q249.225 185.302 248.909 185.725Q248.593 186.148 248.257 186.554Q247.921 186.961 247.565 187.351Q247.21 187.741 246.836 188.113Q246.462 188.485 246.07 188.839Q245.678 189.192 245.269 189.526Q244.86 189.859 244.436 190.173Q244.011 190.486 243.572 190.778Q243.133 191.071 242.679 191.341Q242.226 191.612 241.76 191.86Q241.295 192.107 240.817 192.332Q240.34 192.557 239.852 192.759Q239.364 192.96 238.867 193.137Q238.37 193.314 237.865 193.467Q237.36 193.62 236.848 193.747Q236.336 193.875 235.819 193.978Q235.301 194.081 234.779 194.158Q234.257 194.235 233.732 194.287Q233.207 194.338 232.68 194.364Q232.153 194.39 231.625 194.39Q231.093 194.39 230.562 194.364Q230.031 194.338 229.502 194.286Q228.973 194.233 228.447 194.155Q227.921 194.077 227.4 193.973Q226.878 193.869 226.363 193.739Q225.847 193.61 225.339 193.455Q224.83 193.3 224.33 193.12Q223.829 192.94 223.338 192.736Q222.847 192.532 222.367 192.304Q221.887 192.076 221.418 191.825Q220.95 191.573 220.494 191.299Q220.039 191.025 219.597 190.728Q219.156 190.432 218.73 190.114Q218.303 189.797 217.893 189.458Q217.483 189.12 217.09 188.762Q216.697 188.404 216.322 188.027Q215.947 187.65 215.591 187.255Q215.235 186.86 214.899 186.448Q214.563 186.036 214.248 185.608Q213.933 185.179 213.639 184.736Q213.345 184.293 213.074 183.836Q212.802 183.379 212.553 182.909Q212.305 182.439 212.079 181.958Q211.854 181.476 211.653 180.984Q211.451 180.492 211.274 179.991Q211.097 179.489 210.946 178.98Q210.794 178.47 210.667 177.954Q210.54 177.437 210.439 176.915Q210.338 176.393 210.263 175.867Q210.188 175.341 210.138 174.811Q210.089 174.282 210.066 173.751Q210.043 173.22 210.046 172.688Q210.049 172.156 210.078 171.626Q210.108 171.095 210.163 170.566Q210.218 170.037 210.3 169.512Q210.381 168.986 210.488 168.466Q210.595 167.945 210.728 167.43Q210.861 166.915 211.018 166.408Q211.176 165.9 211.359 165.401Q211.542 164.901 211.749 164.412Q211.956 163.922 212.187 163.443Q212.417 162.964 212.672 162.497Q212.926 162.03 213.203 161.576Q213.48 161.122 213.779 160.683Q214.077 160.243 214.398 159.819Q214.718 159.394 215.058 158.986Q215.399 158.578 215.76 158.187Q216.12 157.796 216.499 157.424Q216.878 157.051 217.275 156.697Q217.673 156.344 218.087 156.01Q218.501 155.677 218.931 155.364Q219.361 155.051 219.805 154.76Q220.25 154.469 220.709 154.2Q221.167 153.931 221.639 153.685Q222.11 153.439 222.593 153.217Q223.076 152.994 223.569 152.796Q224.062 152.597 224.565 152.423Q225.067 152.25 225.577 152.101Q226.088 151.952 226.605 151.828Q227.122 151.704 227.645 151.606Q228.167 151.508 228.694 151.436Q229.221 151.364 229.75 151.318Q230.28 151.272 230.811 151.252Q231.342 151.232 231.874 151.238Z"/>
	<path fill="#FBFAFA" transform="scale(1.01786 1.01786)" d="M196.157 191.563C200.963 190.923 206.604 192.199 210.582 194.982C214.718 197.876 218.042 202.698 218.89 207.712C219.915 213.766 217.554 221.072 213.995 225.959C210.624 230.589 206.512 232.764 200.945 233.642C195.693 234.187 189.96 233.171 185.545 230.17C181.276 227.267 178.918 222.829 177.987 217.816C176.891 211.919 178.451 204.556 181.906 199.643C185.43 194.633 190.313 192.608 196.157 191.563Z"/>
	<path fill="#FBFAFA" transform="scale(1.01786 1.01786)" d="M271.088 264.341C273.793 264.584 292.452 270.824 295.346 272.33C298.054 273.739 301.888 279.495 304.161 281.978C307.823 285.98 311.666 289.874 315.535 293.674C317.694 295.795 320.017 297.833 322.025 300.095C322.967 301.156 323.96 302.396 324.341 303.782C325.988 309.785 318.87 321.219 316.001 326.633C315.256 328.344 314.586 330.314 313.341 331.723C312.483 332.693 311.362 333.378 310.037 333.385C308.862 333.391 307.819 332.861 307.03 332.007C303.26 327.932 304.465 320.428 304.681 315.445C302.601 313.053 300.151 311.216 297.624 309.334C298.447 304.873 298.466 299.663 296.675 295.409C293.753 288.467 271.004 267.333 271.088 264.341Z"/>
	<path fill="#FBFAFA" transform="scale(1.01786 1.01786)" d="M290.348 199.825C290.914 200.123 291.398 200.488 291.887 200.9C296.146 204.489 300.384 210.913 300.917 216.507C300.14 218.525 298.87 220.371 297.715 222.191C291.661 231.729 283.763 239.943 276.084 248.193L273.377 246.218C268.578 242.009 265.412 236.672 261.067 232.109C268.257 227.492 277.519 225.913 283.654 219.82C289.336 214.176 290.277 207.57 290.348 199.825Z"/>
</svg>
