<?xml version="1.0" encoding="utf-8" ?>
<svg xmlns="http://www.w3.org/2000/svg" xmlns:xlink="http://www.w3.org/1999/xlink" width="509" height="509">
	<path fill="#F8F7F5" transform="scale(1.01786 1.01786)" d="M239.328 60.5558Q243.832 60.3268 248.342 60.3193Q252.852 60.3117 257.357 60.5256Q261.862 60.7394 266.35 61.1742Q270.839 61.609 275.301 62.2637Q279.764 62.9183 284.188 63.7913Q288.613 64.6642 292.989 65.7534Q297.366 66.8425 301.683 68.1452Q306.001 69.4479 310.249 70.961Q314.498 72.4741 318.667 74.194Q322.836 75.9139 326.916 77.8364Q330.995 79.7589 334.976 81.8794Q338.956 83.9998 342.827 86.3132Q346.699 88.6265 350.452 91.1272Q354.205 93.6278 357.831 96.3097Q361.457 98.9915 364.946 101.848Q368.436 104.705 371.781 107.729Q375.127 110.754 378.32 113.939Q381.512 117.124 384.545 120.462Q387.577 123.801 390.442 127.283Q393.307 130.766 395.998 134.386Q398.688 138.005 401.198 141.752Q403.708 145.5 406.03 149.365Q408.353 153.231 410.483 157.206Q412.613 161.182 414.545 165.257Q416.477 169.332 418.207 173.497Q419.937 177.662 421.46 181.906Q422.983 186.151 424.296 190.466Q425.609 194.78 426.709 199.154Q427.809 203.528 428.692 207.95Q429.576 212.373 430.241 216.833Q430.906 221.294 431.352 225.782Q431.797 230.27 432.022 234.774Q432.247 239.278 432.25 243.788Q432.253 248.298 432.035 252.803Q431.817 257.307 431.378 261.796Q430.939 266.284 430.28 270.746Q429.621 275.207 428.744 279.631Q427.866 284.055 426.773 288.43Q425.68 292.805 424.373 297.122Q423.066 301.438 421.549 305.685Q420.032 309.932 418.308 314.1Q416.584 318.267 414.658 322.345Q412.731 326.423 410.607 330.401Q408.483 334.379 406.166 338.248Q403.849 342.117 401.344 345.868Q398.84 349.619 396.155 353.242Q393.469 356.865 390.609 360.352Q387.75 363.839 384.722 367.182Q381.694 370.524 378.506 373.714Q375.318 376.904 371.977 379.933Q368.636 382.962 365.15 385.824Q361.664 388.686 358.042 391.373Q354.42 394.06 350.671 396.566Q346.921 399.072 343.053 401.391Q339.185 403.71 335.208 405.836Q331.231 407.962 327.154 409.89Q323.077 411.819 318.91 413.545Q314.744 415.271 310.498 416.79Q306.251 418.309 301.935 419.618Q297.62 420.927 293.245 422.022Q288.87 423.118 284.447 423.997Q280.023 424.876 275.562 425.537Q271.101 426.198 266.613 426.639Q262.125 427.081 257.62 427.301Q253.121 427.521 248.617 427.52Q244.112 427.519 239.613 427.298Q235.114 427.076 230.632 426.634Q226.149 426.192 221.693 425.531Q217.238 424.869 212.82 423.99Q208.402 423.111 204.033 422.017Q199.664 420.922 195.353 419.614Q191.043 418.307 186.802 416.79Q182.56 415.272 178.399 413.549Q174.237 411.825 170.165 409.9Q166.093 407.974 162.12 405.851Q158.147 403.728 154.283 401.413Q150.42 399.098 146.674 396.596Q142.928 394.094 139.31 391.412Q135.691 388.729 132.209 385.872Q128.726 383.016 125.388 379.992Q122.049 376.968 118.863 373.783Q115.677 370.599 112.651 367.263Q109.625 363.926 106.766 360.445Q103.907 356.964 101.223 353.347Q98.5381 349.73 96.0341 345.986Q93.53 342.242 91.2126 338.379Q88.8951 334.517 86.7699 330.545Q84.6447 326.574 82.7167 322.503Q80.7888 318.432 79.0628 314.271Q77.3368 310.111 75.817 305.871Q74.2971 301.63 72.987 297.321Q71.6769 293.011 70.5797 288.642Q69.4825 284.274 68.6008 279.856Q67.7192 275.439 67.0552 270.984Q66.3913 266.529 65.9465 262.046Q65.5019 257.564 65.2775 253.065Q65.0531 248.566 65.0496 244.062Q65.0461 239.557 65.2635 235.058Q65.4809 230.559 65.9186 226.076Q66.3564 221.593 67.0134 217.137Q67.6705 212.681 68.5453 208.262Q69.4201 203.843 70.5105 199.473Q71.6009 195.103 72.9044 190.791Q74.2078 186.479 75.7211 182.237Q77.2344 177.994 78.9539 173.831Q80.6734 169.668 82.595 165.594Q84.5166 161.52 86.6357 157.545Q88.7547 153.57 91.0662 149.704Q93.3776 145.838 95.8758 142.09Q98.3741 138.342 101.053 134.721Q103.732 131.1 106.586 127.614Q109.439 124.129 112.46 120.788Q115.481 117.447 118.662 114.257Q121.843 111.068 125.176 108.039Q128.51 105.01 131.988 102.148Q135.466 99.2856 139.081 96.5975Q142.695 93.9094 146.437 91.4017Q150.179 88.8941 154.039 86.5729Q157.899 84.2518 161.869 82.1227Q165.838 79.9937 169.907 78.0618Q173.976 76.13 178.135 74.4Q182.294 72.67 186.533 71.1461Q190.772 69.6221 195.08 68.3079Q199.388 66.9936 203.756 65.8922Q208.124 64.7908 212.54 63.9049Q216.956 63.019 221.411 62.3508Q225.866 61.6825 230.347 61.2335Q234.829 60.7845 239.328 60.5558Z"/>
	<path fill="#D22620" transform="scale(1.01786 1.01786)" d="M240.052 75.1478Q244.202 74.9318 248.358 74.9197Q252.513 74.9075 256.664 75.0992Q260.815 75.2909 264.952 75.686Q269.089 76.081 273.201 76.6785Q277.314 77.276 281.392 78.0744Q285.47 78.8729 289.504 79.8704Q293.538 80.868 297.519 82.0621Q301.499 83.2563 305.416 84.6443Q309.333 86.0322 313.177 87.6107Q317.021 89.1891 320.783 90.9541Q324.545 92.7192 328.216 94.6666Q331.887 96.6141 335.458 98.7393Q339.03 100.864 342.492 103.162Q345.955 105.46 349.3 107.925Q352.646 110.39 355.867 113.016Q359.088 115.641 362.176 118.422Q365.264 121.203 368.212 124.132Q371.16 127.061 373.961 130.131Q376.761 133.201 379.408 136.404Q382.055 139.608 384.542 142.937Q387.028 146.267 389.348 149.715Q391.669 153.162 393.817 156.719Q395.965 160.276 397.937 163.935Q399.908 167.593 401.697 171.344Q403.487 175.094 405.09 178.928Q406.694 182.762 408.107 186.67Q409.52 190.577 410.74 194.55Q411.96 198.522 412.984 202.55Q414.008 206.577 414.833 210.65Q415.658 214.723 416.282 218.831Q416.906 222.94 417.328 227.074Q417.75 231.208 417.969 235.358Q418.188 239.508 418.203 243.663Q418.217 247.819 418.029 251.97Q417.84 256.122 417.447 260.259Q417.055 264.396 416.46 268.509Q415.865 272.621 415.07 276.7Q414.274 280.779 413.279 284.814Q412.284 288.848 411.093 292.83Q409.901 296.811 408.516 300.729Q407.13 304.646 405.554 308.492Q403.978 312.337 402.216 316.1Q400.453 319.863 398.508 323.536Q396.563 327.208 394.44 330.781Q392.318 334.353 390.022 337.817Q387.727 341.281 385.264 344.629Q382.801 347.976 380.177 351.198Q377.554 354.421 374.775 357.511Q371.996 360.601 369.069 363.551Q366.142 366.501 363.074 369.303Q360.006 372.106 356.804 374.755Q353.602 377.404 350.274 379.893Q346.946 382.382 343.5 384.704Q340.054 387.027 336.498 389.177Q332.943 391.328 329.286 393.302Q325.629 395.275 321.879 397.067Q318.13 398.859 314.297 400.465Q310.464 402.071 306.557 403.487Q302.65 404.903 298.679 406.126Q294.707 407.348 290.68 408.375Q286.653 409.401 282.581 410.229Q278.509 411.057 274.4 411.683Q270.292 412.31 266.159 412.735Q262.025 413.16 257.875 413.381Q253.722 413.603 249.563 413.62Q245.404 413.638 241.249 413.451Q237.094 413.264 232.953 412.874Q228.813 412.483 224.696 411.89Q220.579 411.297 216.497 410.502Q212.415 409.708 208.376 408.713Q204.337 407.719 200.353 406.528Q196.368 405.337 192.446 403.952Q188.524 402.567 184.676 400.991Q180.827 399.414 177.06 397.651Q173.293 395.888 169.617 393.942Q165.941 391.996 162.366 389.872Q158.79 387.748 155.323 385.451Q151.855 383.154 148.505 380.69Q145.155 378.226 141.929 375.6Q138.704 372.974 135.612 370.193Q132.519 367.412 129.567 364.482Q126.614 361.553 123.81 358.482Q121.005 355.411 118.354 352.206Q115.703 349.001 113.213 345.67Q110.723 342.339 108.399 338.889Q106.075 335.44 103.924 331.881Q101.772 328.321 99.7976 324.661Q97.8233 321 96.0311 317.247Q94.2389 313.494 92.6331 309.657Q91.0273 305.821 89.6117 301.91Q88.1961 297.999 86.9742 294.024Q85.7524 290.048 84.7271 286.017Q83.7019 281.987 82.8757 277.91Q82.0495 273.834 81.4245 269.722Q80.7994 265.61 80.3769 261.473Q79.9545 257.335 79.7356 253.182Q79.5167 249.029 79.502 244.87Q79.4873 240.711 79.6767 236.556Q79.8662 232.401 80.2594 228.261Q80.6525 224.12 81.2485 220.004Q81.8444 215.888 82.6417 211.806Q83.439 207.724 84.4357 203.686Q85.4324 199.648 86.6261 195.664Q87.8199 191.68 89.2077 187.759Q90.5956 183.838 92.1742 179.991Q93.7528 176.143 95.5184 172.377Q97.2841 168.611 99.2324 164.937Q101.181 161.262 103.307 157.688Q105.433 154.113 107.733 150.648Q110.032 147.182 112.499 143.833Q114.965 140.485 117.593 137.261Q120.221 134.037 123.004 130.947Q125.788 127.856 128.719 124.906Q131.65 121.955 134.723 119.152Q137.796 116.35 141.003 113.701Q144.209 111.052 147.542 108.564Q150.875 106.076 154.326 103.755Q157.777 101.433 161.337 99.2839Q164.898 97.1346 168.56 95.1627Q172.222 93.1908 175.976 91.4011Q179.731 89.6113 183.568 88.008Q187.406 86.4047 191.318 84.9918Q195.229 83.5788 199.206 82.3595Q203.182 81.1402 207.213 80.1176Q211.245 79.0951 215.322 78.2716Q219.398 77.4481 223.511 76.8258Q227.623 76.2034 231.761 75.7837Q235.899 75.3639 240.052 75.1478Z"/>
	<path fill="#F8F7F5" transform="scale(1.01786 1.01786)" d="M244.483 92.3792Q248.213 92.2725 251.944 92.349Q255.675 92.4256 259.397 92.685Q263.12 92.9445 266.825 93.3864Q270.53 93.8282 274.209 94.4514Q277.888 95.0745 281.533 95.8775Q285.177 96.6804 288.777 97.6612Q292.377 98.642 295.925 99.7983Q299.473 100.955 302.96 102.284Q306.447 103.613 309.864 105.111Q313.282 106.61 316.622 108.274Q319.961 109.938 323.216 111.765Q326.47 113.591 329.63 115.575Q332.791 117.559 335.85 119.695Q338.91 121.831 341.86 124.116Q344.811 126.4 347.647 128.826Q350.482 131.252 353.195 133.814Q355.907 136.376 358.491 139.069Q361.075 141.761 363.523 144.577Q365.972 147.393 368.279 150.325Q370.587 153.258 372.747 156.3Q374.908 159.343 376.917 162.487Q378.926 165.632 380.778 168.872Q382.63 172.111 384.321 175.438Q386.012 178.764 387.537 182.17Q389.063 185.575 390.42 189.051Q391.776 192.527 392.961 196.066Q394.145 199.605 395.154 203.197Q396.164 206.789 396.996 210.427Q397.828 214.065 398.48 217.739Q399.132 221.413 399.604 225.115Q400.075 228.816 400.364 232.537Q400.653 236.257 400.759 239.987Q400.865 243.717 400.788 247.448Q400.711 251.179 400.451 254.901Q400.191 258.624 399.749 262.329Q399.306 266.034 398.683 269.713Q398.059 273.392 397.255 277.036Q396.452 280.68 395.471 284.28Q394.489 287.881 393.333 291.428Q392.176 294.976 390.846 298.463Q389.517 301.949 388.018 305.367Q386.519 308.784 384.854 312.123Q383.189 315.463 381.362 318.717Q379.536 321.971 377.551 325.131Q375.567 328.291 373.43 331.35Q371.293 334.409 369.009 337.36Q366.724 340.31 364.298 343.145Q361.871 345.98 359.309 348.693Q356.746 351.405 354.053 353.988Q351.361 356.572 348.544 359.02Q345.728 361.468 342.795 363.775Q339.862 366.082 336.82 368.242Q333.777 370.403 330.632 372.411Q327.487 374.419 324.247 376.271Q321.007 378.123 317.681 379.813Q314.354 381.503 310.948 383.029Q307.543 384.554 304.066 385.91Q300.59 387.266 297.051 388.45Q293.512 389.634 289.92 390.643Q286.327 391.652 282.689 392.483Q279.052 393.314 275.377 393.966Q271.703 394.618 268.002 395.089Q264.3 395.559 260.579 395.848Q256.859 396.136 253.129 396.242Q249.4 396.348 245.67 396.27Q241.939 396.193 238.218 395.932Q234.496 395.672 230.791 395.229Q227.087 394.786 223.409 394.162Q219.73 393.538 216.087 392.735Q212.444 391.931 208.844 390.95Q205.245 389.968 201.698 388.811Q198.151 387.654 194.665 386.325Q191.179 384.995 187.762 383.496Q184.346 381.997 181.007 380.333Q177.668 378.668 174.415 376.841Q171.162 375.015 168.002 373.031Q164.842 371.047 161.784 368.91Q158.726 366.774 155.776 364.49Q152.826 362.205 149.991 359.779Q147.157 357.353 144.445 354.791Q141.733 352.229 139.15 349.537Q136.567 346.844 134.119 344.029Q131.672 341.213 129.365 338.281Q127.058 335.348 124.898 332.306Q122.738 329.264 120.73 326.12Q118.722 322.976 116.871 319.737Q115.019 316.497 113.329 313.171Q111.639 309.845 110.114 306.441Q108.588 303.036 107.232 299.56Q105.876 296.084 104.692 292.546Q103.508 289.008 102.499 285.416Q101.49 281.825 100.658 278.188Q99.8268 274.551 99.1747 270.877Q98.5226 267.204 98.0515 263.503Q97.5804 259.802 97.2914 256.082Q97.0024 252.362 96.8963 248.633Q96.7902 244.904 96.8672 241.174Q96.9442 237.443 97.2041 233.722Q97.464 230 97.9062 226.295Q98.3484 222.591 98.9718 218.912Q99.5952 215.234 100.398 211.59Q101.202 207.947 102.182 204.347Q103.163 200.748 104.32 197.201Q105.476 193.654 106.805 190.167Q108.134 186.681 109.633 183.265Q111.131 179.848 112.795 176.509Q114.46 173.17 116.286 169.916Q118.112 166.663 120.095 163.503Q122.079 160.343 124.215 157.284Q126.351 154.225 128.635 151.275Q130.919 148.325 133.344 145.49Q135.77 142.655 138.332 139.943Q140.894 137.231 143.585 134.647Q146.277 132.064 149.093 129.616Q151.908 127.168 154.84 124.861Q157.772 122.554 160.814 120.393Q163.855 118.233 166.999 116.224Q170.143 114.216 173.382 112.364Q176.621 110.512 179.947 108.821Q183.273 107.13 186.677 105.605Q190.082 104.079 193.557 102.722Q197.033 101.366 200.571 100.181Q204.109 98.9967 207.7 97.9872Q211.292 96.9776 214.929 96.1455Q218.566 95.3134 222.239 94.6608Q225.913 94.0081 229.613 93.5365Q233.314 93.0648 237.034 92.7753Q240.754 92.4859 244.483 92.3792Z"/>
	<path fill="#0E3B5F" transform="scale(1.01786 1.01786)" d="M241.379 102.606C253.858 101.804 265.349 102.915 277.551 105.249Q279.266 105.574 280.973 105.942Q282.68 106.31 284.377 106.72Q286.074 107.13 287.76 107.583Q289.447 108.035 291.121 108.529Q292.796 109.023 294.458 109.558Q296.12 110.094 297.768 110.67Q299.416 111.247 301.049 111.864Q302.682 112.482 304.299 113.14Q305.917 113.797 307.517 114.495Q309.117 115.193 310.7 115.93Q312.283 116.667 313.847 117.444Q315.41 118.22 316.954 119.035Q318.498 119.85 320.022 120.703Q321.545 121.557 323.047 122.447Q324.548 123.338 326.027 124.266Q327.507 125.194 328.962 126.158Q330.418 127.122 331.849 128.122Q333.28 129.122 334.686 130.158Q336.091 131.193 337.471 132.263Q338.851 133.333 340.204 134.437Q341.556 135.541 342.881 136.678Q344.206 137.815 345.502 138.985Q346.798 140.155 348.065 141.356Q349.331 142.558 350.568 143.791Q351.804 145.024 353.01 146.287Q354.215 147.55 355.389 148.842Q356.562 150.135 357.703 151.456Q358.844 152.778 359.952 154.127Q361.06 155.477 362.134 156.853Q363.209 158.23 364.248 159.632Q365.288 161.035 366.292 162.463Q367.296 163.891 368.265 165.344C390.283 197.826 395.885 235.893 388.503 274.08C387.685 278.311 386.38 282.41 385.11 286.522Q384.204 289.403 383.176 292.243Q382.149 295.084 381.001 297.878Q379.854 300.672 378.589 303.414Q377.324 306.157 375.944 308.844Q374.564 311.53 373.071 314.156Q371.577 316.781 369.974 319.341Q368.371 321.901 366.66 324.39Q364.95 326.879 363.135 329.294Q361.32 331.708 359.405 334.043Q357.489 336.379 355.476 338.63Q353.463 340.882 351.356 343.046Q349.249 345.21 347.052 347.283Q344.855 349.356 342.572 351.333Q340.289 353.311 337.924 355.19Q335.559 357.068 333.116 358.845Q330.674 360.622 328.158 362.293Q326.701 363.288 325.22 364.247Q323.739 365.206 322.235 366.128Q320.731 367.049 319.204 367.933Q317.677 368.817 316.128 369.663Q314.58 370.508 313.011 371.315Q311.442 372.122 309.854 372.889Q308.265 373.657 306.658 374.384Q305.051 375.112 303.426 375.8Q301.801 376.487 300.159 377.134Q298.518 377.781 296.861 378.386Q295.204 378.992 293.532 379.556Q291.861 380.121 290.176 380.643Q288.491 381.165 286.793 381.646Q285.095 382.126 283.386 382.564Q281.677 383.002 279.958 383.397Q278.238 383.792 276.51 384.145Q274.781 384.497 273.044 384.806Q271.307 385.115 269.563 385.381Q267.819 385.647 266.069 385.869Q264.318 386.092 262.563 386.27Q260.808 386.449 259.049 386.584Q257.29 386.719 255.528 386.81Q253.766 386.901 252.002 386.948Q250.239 386.995 248.475 386.999Q246.71 387.002 244.946 386.961Q243.183 386.92 241.42 386.836Q239.658 386.751 237.899 386.623Q236.139 386.494 234.383 386.322Q232.627 386.15 230.876 385.934Q229.125 385.718 227.38 385.459Q225.635 385.199 223.897 384.897Q222.159 384.594 220.429 384.248C185.349 377.312 150.007 353.672 130.085 323.934C133.007 324.689 136.063 325.107 139.034 325.648C146.936 327.086 154.886 328.219 162.786 329.642L188.153 334.143C195.868 335.59 203.861 337.352 211.672 338.128C217.738 338.73 224.167 338.375 230.275 338.436Q248.178 338.7 266.083 338.756L306.888 339.044C314.164 339.082 321.505 339.337 328.772 338.98C331.581 338.843 334.36 338.45 337.061 337.65C342.044 336.175 347.66 332.06 350.066 327.4C350.767 326.042 351.097 324.481 350.573 323.006C350.244 322.078 349.583 321.381 348.688 320.977C348.112 320.717 347.021 320.438 346.399 320.541C344.6 320.838 340.972 325.408 339.2 326.753C337.761 327.846 336.155 328.657 334.45 329.246C332.11 330.055 329.884 330.295 327.423 330.421C324.325 330.58 321.181 330.378 318.078 330.334Q310.789 330.264 303.5 330.278L282.621 330.442C279.367 330.444 275.632 330.776 272.458 330.105C269.117 329.398 261.711 324.829 258.099 323.069C262.231 308.807 267.398 294.776 271.931 280.628C273.137 276.864 275.417 272.46 275.477 268.456C275.512 266.16 274.588 263.804 273.35 261.895C271.28 258.702 268.289 256.065 265.577 253.427C262.401 250.339 259.252 247.213 256.009 244.197C253.58 241.938 251.057 239.806 248.747 237.423L264.725 216.368C267.75 212.336 270.619 208.018 274.011 204.297Q277.801 211.769 281.723 219.172C282.96 221.531 284.122 224.277 285.678 226.434C286.332 227.341 287.112 228.153 288.044 228.777C289.498 229.75 291.264 230.252 293.003 230.339C296.624 230.519 300.495 229.421 304.081 228.864C308.306 228.207 312.61 227.738 316.794 226.863C314.054 235.456 311.065 243.946 308.127 252.465C307.279 254.923 306.636 257.452 305.804 259.917L293.004 297.793C290.988 303.921 288.563 310.042 286.741 316.219Q286.654 316.503 286.612 316.797Q286.57 317.091 286.574 317.388Q286.578 317.685 286.627 317.977Q286.676 318.27 286.77 318.552C287.152 319.691 288.125 320.639 289.226 321.093C290.123 321.462 291.156 321.506 292.041 321.079C293.372 320.436 293.987 318.809 294.53 317.526C296.055 313.918 297.13 310.101 298.329 306.378C299.754 301.953 301.277 297.538 302.759 293.131L317.84 248.326C320.459 240.562 322.87 232.668 325.709 224.986C327.702 224.504 329.795 224.26 331.812 223.852C334.367 223.116 336.223 221.975 337.68 219.676C339.257 217.188 339.921 213.955 339.252 211.068C338.412 207.439 336.157 205.077 333.102 203.175C334.059 200.875 336.018 197.301 335.287 194.814C335.055 194.025 334.556 193.402 333.82 193.028C332.744 192.481 331.126 192.344 329.999 192.801C327.118 193.968 326.126 200.741 324.925 203.433L324.795 203.72C321.987 204.539 318.984 204.933 316.098 205.408C310.349 206.354 304.575 207.126 298.824 208.059C296.646 203.591 294.247 199.224 291.927 194.828C290.4 191.934 288.995 188.911 287.313 186.109C286.558 184.852 285.654 183.812 284.572 182.83C281.479 180.023 277.856 177.595 274.551 175.02C270.037 171.5 265.552 167.621 260.791 164.463C259.651 163.708 258.256 162.813 256.91 162.54C250.668 161.276 239.329 163.049 232.765 163.614C226.472 164.156 219.939 164.386 213.743 165.639C212.037 165.984 210.08 166.51 208.628 167.494C204.787 170.098 199.479 176.813 196.159 180.402C191.727 185.19 185.517 191.033 181.893 196.348C181.087 197.529 180.62 198.759 180.352 200.161C179.84 202.837 180.156 205.624 181.655 207.927C177.702 212.709 173.393 217.287 169.309 221.966L136.655 259.2L125.826 271.545C124.272 273.316 122.477 275.041 121.095 276.944C120.596 277.631 120.158 278.432 120.134 279.301C120.106 280.319 120.685 281.159 121.413 281.819C122.282 282.606 123.406 283.313 124.625 283.2C125.559 283.114 126.35 282.549 127.011 281.919C129.322 279.718 131.357 277.016 133.458 274.599L146.245 259.924Q166.785 236.663 187.022 213.139C189.506 212.626 192.134 212.195 194.377 210.944C197.868 208.996 209.501 196.007 213.171 192.195C214.751 190.553 216.65 188.098 218.767 187.219C222.288 185.759 232.616 185.686 236.962 185.218C234.954 188.234 232.672 191.129 230.573 194.092L219.68 209.632C216.857 213.581 213.347 217.763 211.24 222.116C209.938 224.805 208.955 227.988 209.199 231.006C209.383 233.268 210.164 235.892 211.481 237.742C214.01 241.295 217.926 244.22 221.161 247.147C231.124 256.162 241.489 264.696 251.762 273.354C250.787 275.899 250.053 278.547 249.156 281.122L242.067 301.692C240.098 307.522 237.504 313.503 236.242 319.52C235.406 323.503 236.842 326.621 238.954 329.86C233.246 329.724 227.523 329.782 221.813 329.771C218.18 329.763 214.526 329.86 210.912 329.435C201.446 328.321 192.143 325.369 182.644 324.441C181.706 321.845 180.837 319.249 179.291 316.938C181.944 315.079 184.319 312.732 186.716 310.556L198.041 300.263C202.069 296.615 212.542 288.149 214.993 284.4C217.048 281.258 218.313 277.177 219.668 273.68C221.433 269.122 223.251 264.597 224.902 259.994C218.555 254.425 212.323 248.704 205.851 243.281C205.169 245.838 204.034 248.327 203.192 250.842L199.228 262.691C198.164 265.943 197.332 270.238 195.409 273.063C193.762 275.483 191.124 277.569 188.996 279.576L174.144 293.518C171.259 296.186 168.012 298.744 165.48 301.742C164.482 302.923 163.629 304.249 163.198 305.745C161.994 309.929 167.784 318.542 169.762 322.219C163.837 320.928 157.801 320.101 151.816 319.138Q138.168 316.808 124.464 314.828C113.623 294.098 107.415 276.912 106.121 253.44C103.897 213.089 116.032 178.505 143.024 148.406C167.759 120.825 204.657 104.585 241.379 102.606Z"/>
	<path fill="#F8F7F5" transform="scale(1.01786 1.01786)" d="M287.658 132.953Q288.162 132.892 288.669 132.856Q289.175 132.82 289.683 132.809Q290.191 132.798 290.698 132.811Q291.206 132.825 291.712 132.863Q292.219 132.901 292.722 132.964Q293.226 133.027 293.726 133.115Q294.227 133.203 294.722 133.315Q295.217 133.427 295.707 133.563Q296.196 133.699 296.678 133.859Q297.16 134.018 297.633 134.202Q298.107 134.385 298.571 134.591Q299.035 134.797 299.489 135.026Q299.942 135.254 300.384 135.505Q300.826 135.755 301.255 136.027Q301.684 136.299 302.099 136.591Q302.514 136.883 302.914 137.196Q303.315 137.508 303.699 137.84Q304.084 138.171 304.452 138.521Q304.82 138.871 305.17 139.239Q305.521 139.606 305.853 139.99Q306.185 140.375 306.498 140.775Q306.811 141.174 307.103 141.589Q307.396 142.004 307.669 142.433Q307.941 142.861 308.192 143.303Q308.443 143.744 308.672 144.197Q308.901 144.651 309.108 145.114Q309.315 145.578 309.499 146.052Q309.682 146.525 309.843 147.007Q310.003 147.489 310.14 147.978Q310.277 148.467 310.389 148.962Q310.502 149.457 310.59 149.957Q310.678 150.457 310.742 150.961Q310.806 151.465 310.845 151.971Q310.884 152.478 310.898 152.985Q310.912 153.493 310.902 154.001Q310.891 154.508 310.855 155.015Q310.82 155.521 310.76 156.026Q310.7 156.53 310.615 157.031Q310.53 157.531 310.421 158.027Q310.312 158.523 310.179 159.013Q310.045 159.503 309.888 159.986Q309.731 160.469 309.551 160.944Q309.37 161.419 309.167 161.884Q308.964 162.349 308.738 162.804Q308.512 163.259 308.264 163.702Q308.016 164.145 307.746 164.576Q307.477 165.006 307.187 165.423Q306.897 165.84 306.587 166.242Q306.277 166.645 305.948 167.031Q305.618 167.418 305.27 167.788Q304.923 168.158 304.557 168.51Q304.192 168.863 303.809 169.197Q303.427 169.531 303.029 169.846Q302.63 170.162 302.217 170.457Q301.804 170.752 301.377 171.027Q300.95 171.302 300.51 171.555Q300.07 171.809 299.618 172.041Q299.166 172.272 298.704 172.482Q298.241 172.691 297.769 172.877Q297.296 173.064 296.815 173.227Q296.334 173.39 295.846 173.53Q295.358 173.669 294.863 173.785Q294.369 173.9 293.869 173.991Q293.369 174.082 292.866 174.149Q292.359 174.216 291.849 174.258Q291.339 174.3 290.828 174.317Q290.317 174.334 289.805 174.326Q289.294 174.317 288.783 174.284Q288.273 174.25 287.765 174.192Q287.256 174.133 286.752 174.049Q286.247 173.966 285.747 173.857Q285.247 173.749 284.753 173.616Q284.259 173.484 283.772 173.327Q283.285 173.17 282.807 172.989Q282.328 172.808 281.859 172.604Q281.39 172.4 280.932 172.173Q280.473 171.946 280.026 171.697Q279.58 171.447 279.146 171.176Q278.712 170.905 278.292 170.613Q277.872 170.321 277.467 170.009Q277.062 169.697 276.672 169.365Q276.283 169.033 275.911 168.682Q275.538 168.332 275.183 167.963Q274.829 167.594 274.493 167.209Q274.156 166.823 273.84 166.421Q273.523 166.02 273.226 165.603Q272.93 165.186 272.654 164.755Q272.378 164.324 272.124 163.88Q271.87 163.436 271.638 162.98Q271.406 162.525 271.197 162.058Q270.988 161.591 270.802 161.114Q270.616 160.638 270.454 160.153Q270.291 159.668 270.153 159.175Q270.015 158.682 269.901 158.184Q269.787 157.685 269.698 157.181Q269.609 156.678 269.545 156.17Q269.481 155.662 269.442 155.152Q269.403 154.642 269.389 154.131Q269.375 153.62 269.386 153.108Q269.397 152.597 269.434 152.087Q269.47 151.576 269.532 151.068Q269.593 150.561 269.68 150.056Q269.766 149.552 269.878 149.053Q269.989 148.554 270.124 148.06Q270.26 147.567 270.42 147.081Q270.58 146.595 270.763 146.118Q270.947 145.64 271.153 145.172Q271.36 144.704 271.59 144.247Q271.819 143.79 272.071 143.345Q272.323 142.9 272.597 142.467Q272.87 142.035 273.164 141.617Q273.459 141.198 273.774 140.795Q274.088 140.392 274.422 140.004Q274.756 139.617 275.109 139.246Q275.462 138.876 275.833 138.523Q276.203 138.171 276.591 137.837Q276.978 137.503 277.382 137.189Q277.785 136.874 278.204 136.58Q278.623 136.286 279.055 136.013Q279.487 135.739 279.933 135.488Q280.378 135.236 280.836 135.007Q281.293 134.778 281.761 134.571Q282.229 134.365 282.706 134.181Q283.184 133.998 283.67 133.839Q284.156 133.679 284.65 133.544Q285.143 133.408 285.642 133.297Q286.142 133.187 286.646 133.1Q287.15 133.014 287.658 132.953Z"/>
</svg>
