<?xml version="1.0" encoding="utf-8" ?>
<svg xmlns="http://www.w3.org/2000/svg" xmlns:xlink="http://www.w3.org/1999/xlink" width="509" height="509">
	<path fill="#FAF9F8" transform="scale(1.01786 1.01786)" d="M238.319 60.9576Q242.833 60.7067 247.354 60.6776Q251.875 60.6485 256.391 60.8414Q260.908 61.0342 265.41 61.4485Q269.912 61.8628 274.388 62.4975Q278.864 63.1323 283.304 63.986Q287.744 64.8396 292.136 65.9101Q296.528 66.9807 300.863 68.2655Q305.197 69.5503 309.464 71.0463Q313.73 72.5423 317.918 74.2459Q322.105 75.9495 326.204 77.8566Q330.303 79.7637 334.304 81.8696Q338.304 83.9755 342.197 86.2753Q346.089 88.5751 349.864 91.0631Q353.638 93.5511 357.287 96.2214Q360.935 98.8916 364.447 101.738Q367.96 104.584 371.329 107.599Q374.697 110.614 377.914 113.791Q381.131 116.968 384.188 120.298Q387.244 123.629 390.134 127.106Q393.024 130.583 395.739 134.197Q398.455 137.812 400.99 141.555Q403.525 145.299 405.873 149.162Q408.221 153.025 410.377 156.999Q412.533 160.973 414.491 165.048Q416.449 169.123 418.205 173.289Q419.96 177.455 421.509 181.702Q423.059 185.949 424.397 190.268Q425.736 194.586 426.861 198.964Q427.987 203.343 428.896 207.772Q429.805 212.2 430.495 216.668Q431.186 221.136 431.656 225.633Q432.127 230.129 432.376 234.643Q432.625 239.157 432.653 243.678Q432.68 248.199 432.485 252.716Q432.291 257.232 431.875 261.734Q431.459 266.236 430.822 270.712Q430.186 275.188 429.33 279.627Q428.475 284.066 427.403 288.458Q426.331 292.85 425.044 297.184Q423.758 301.518 422.26 305.784Q420.762 310.05 419.057 314.237Q417.352 318.424 415.443 322.522Q413.534 326.62 411.427 330.62Q409.319 334.62 407.018 338.511Q404.717 342.403 402.227 346.176Q399.738 349.95 397.066 353.597Q394.395 357.244 391.547 360.756Q388.7 364.267 385.683 367.635Q382.667 371.003 379.489 374.218Q376.311 377.433 372.979 380.489Q369.647 383.545 366.169 386.433Q362.691 389.321 359.075 392.036Q355.46 394.75 351.715 397.283Q347.971 399.817 344.107 402.163Q340.242 404.51 336.268 406.664Q332.293 408.818 328.217 410.775Q324.142 412.731 319.975 414.486Q315.808 416.24 311.56 417.787Q307.312 419.335 302.994 420.672Q298.675 422.009 294.296 423.132Q289.917 424.256 285.488 425.163Q281.059 426.071 276.591 426.759Q272.122 427.448 267.626 427.917Q263.129 428.386 258.615 428.633Q254.103 428.88 249.584 428.906Q245.066 428.932 240.551 428.736Q236.037 428.54 231.537 428.122Q227.038 427.705 222.565 427.068Q218.091 426.43 213.654 425.574Q209.217 424.718 204.828 423.645Q200.438 422.573 196.107 421.286Q191.775 419.999 187.512 418.501Q183.248 417.003 179.064 415.298Q174.879 413.593 170.783 411.685Q166.687 409.777 162.69 407.67Q158.692 405.563 154.803 403.262Q150.914 400.962 147.142 398.473Q143.37 395.985 139.725 393.314Q136.08 390.644 132.57 387.798Q129.06 384.951 125.694 381.937Q122.329 378.922 119.115 375.745Q115.901 372.569 112.846 369.239Q109.792 365.908 106.905 362.432Q104.018 358.956 101.305 355.343Q98.5913 351.729 96.0586 347.987Q93.5259 344.245 91.1799 340.383Q88.8338 336.521 86.68 332.549Q84.5262 328.576 82.5699 324.503Q80.6136 320.43 78.8594 316.265Q77.1052 312.101 75.5575 307.856Q74.0097 303.61 72.6721 299.294Q71.3344 294.978 70.2101 290.601Q69.0858 286.225 68.1776 281.798Q67.2693 277.372 66.5793 272.906Q65.8893 268.44 65.4192 263.946Q64.9491 259.452 64.7 254.94Q64.4509 250.428 64.4235 245.91Q64.3961 241.391 64.5903 236.876Q64.7846 232.362 65.2001 227.862Q65.6156 223.363 66.2513 218.889Q66.8871 214.415 67.7415 209.978Q68.5959 205.541 69.667 201.151Q70.738 196.761 72.0232 192.428Q73.3083 188.096 74.8044 183.832Q76.3005 179.569 78.004 175.383Q79.7074 171.198 81.6142 167.101Q83.5209 163.004 85.6263 159.006Q87.7317 155.008 90.0307 151.118Q92.3297 147.227 94.8168 143.455Q97.3039 139.682 99.973 136.036Q102.642 132.39 105.487 128.879Q108.332 125.368 111.345 122.001Q114.359 118.634 117.534 115.419Q120.709 112.203 124.038 109.148Q127.367 106.092 130.842 103.204Q134.317 100.315 137.93 97.6006Q141.542 94.886 145.283 92.3519Q149.025 89.8178 152.886 87.4702Q156.747 85.1227 160.718 82.9673Q164.69 80.812 168.763 78.8541Q172.835 76.8962 176.999 75.1405Q181.162 73.3847 185.407 71.8353Q189.652 70.2859 193.968 68.9466Q198.283 67.6073 202.66 66.4813Q207.036 65.3554 211.462 64.4454Q215.888 63.5355 220.354 62.8438Q224.819 62.1521 229.313 61.6802Q233.807 61.2084 238.319 60.9576Z"/>
	<path fill="#D62821" transform="scale(1.01786 1.01786)" d="M247.2 75.0244Q251.372 74.9801 255.542 75.1406Q259.712 75.301 263.868 75.6658Q268.025 76.0307 272.159 76.599Q276.293 77.1673 280.394 77.9378Q284.495 78.7083 288.553 79.679Q292.611 80.6497 296.617 81.8184Q300.622 82.987 304.566 84.3508Q308.509 85.7146 312.381 87.2702Q316.253 88.8259 320.044 90.5696Q323.835 92.3133 327.536 94.2409Q331.237 96.1685 334.838 98.2753Q338.44 100.382 341.934 102.663Q345.428 104.944 348.806 107.394Q352.184 109.844 355.438 112.456Q358.691 115.068 361.813 117.837Q364.935 120.606 367.917 123.525Q370.898 126.444 373.734 129.505Q376.569 132.567 379.25 135.764Q381.932 138.961 384.453 142.286Q386.975 145.61 389.33 149.055Q391.686 152.499 393.869 156.055Q396.053 159.611 398.059 163.269Q400.065 166.928 401.89 170.681Q403.714 174.433 405.353 178.271Q406.991 182.109 408.439 186.022Q409.887 189.935 411.141 193.915Q412.395 197.895 413.453 201.931Q414.51 205.968 415.368 210.051Q416.226 214.135 416.883 218.256Q417.54 222.376 417.994 226.524Q418.447 230.672 418.697 234.837Q418.947 239.003 418.992 243.175Q419.037 247.347 418.877 251.517Q418.718 255.687 418.354 259.844Q417.99 264 417.422 268.134Q416.854 272.268 416.085 276.369Q415.315 280.47 414.345 284.529Q413.375 288.587 412.207 292.593Q411.039 296.599 409.676 300.543Q408.313 304.487 406.758 308.359Q405.203 312.231 403.46 316.022Q401.717 319.813 399.79 323.515Q397.863 327.216 395.757 330.818Q393.651 334.42 391.37 337.915Q389.09 341.409 386.641 344.787Q384.192 348.166 381.58 351.42Q378.968 354.674 376.2 357.796Q373.431 360.918 370.513 363.901Q367.595 366.883 364.534 369.719Q361.473 372.555 358.276 375.237Q355.08 377.919 351.756 380.441Q348.431 382.963 344.987 385.319Q341.543 387.675 337.988 389.859Q334.433 392.044 330.774 394.051Q327.116 396.058 323.364 397.883Q319.611 399.708 315.774 401.347Q311.936 402.986 308.023 404.435Q304.11 405.883 300.131 407.138Q296.151 408.393 292.115 409.451Q288.078 410.509 283.995 411.368Q279.912 412.227 275.791 412.885Q271.671 413.542 267.523 413.997Q263.375 414.451 259.21 414.702Q255.044 414.952 250.872 414.998Q246.699 415.044 242.528 414.885Q238.357 414.726 234.2 414.362Q230.042 413.999 225.907 413.432Q221.772 412.865 217.67 412.095Q213.568 411.326 209.508 410.356Q205.449 409.386 201.442 408.219Q197.435 407.051 193.49 405.688Q189.545 404.325 185.672 402.77Q181.799 401.215 178.007 399.472Q174.214 397.729 170.512 395.802Q166.81 393.875 163.207 391.768Q159.604 389.662 156.109 387.381Q152.613 385.1 149.234 382.651Q145.855 380.201 142.6 377.589Q139.345 374.976 136.222 372.207Q133.099 369.438 130.116 366.519Q127.133 363.6 124.296 360.539Q121.46 357.477 118.777 354.28Q116.095 351.082 113.572 347.757Q111.05 344.432 108.693 340.987Q106.337 337.543 104.152 333.986Q101.968 330.43 99.9607 326.771Q97.9534 323.111 96.128 319.358Q94.3027 315.605 92.6638 311.766Q91.0249 307.928 89.5763 304.014Q88.1277 300.099 86.8729 296.119Q85.6182 292.138 84.5603 288.101Q83.5024 284.064 82.6439 279.979Q81.7853 275.895 81.1283 271.773Q80.4713 267.651 80.0173 263.503Q79.5633 259.354 79.3134 255.188Q79.0636 251.021 79.0185 246.848Q78.9734 242.675 79.1332 238.504Q79.293 234.333 79.6572 230.176Q80.0215 226.018 80.5893 221.883Q81.1572 217.748 81.9272 213.646Q82.6973 209.544 83.6677 205.485Q84.6382 201.426 85.8067 197.419Q86.9752 193.412 88.3388 189.467Q89.7025 185.523 91.2582 181.65Q92.8138 177.777 94.5576 173.985Q96.3014 170.193 98.2292 166.491Q100.157 162.79 102.264 159.187Q104.371 155.584 106.653 152.089Q108.934 148.594 111.384 145.215Q113.834 141.837 116.447 138.582Q119.06 135.328 121.83 132.205Q124.599 129.083 127.519 126.1Q130.438 123.118 133.501 120.282Q136.563 117.446 139.761 114.764Q142.958 112.082 146.284 109.56Q149.61 107.038 153.055 104.682Q156.5 102.326 160.057 100.142Q163.614 97.9587 167.273 95.952Q170.933 93.9454 174.687 92.1207Q178.44 90.2961 182.279 88.6579Q186.118 87.0196 190.032 85.5718Q193.947 84.1239 197.928 82.8698Q201.908 81.6158 205.946 80.5586Q209.983 79.5014 214.068 78.6437Q218.153 77.7859 222.274 77.1296Q226.396 76.4733 230.545 76.0201Q234.694 75.5669 238.86 75.3178Q243.027 75.0687 247.2 75.0244Z"/>
	<path fill="#FAF9F8" transform="scale(1.01786 1.01786)" d="M245.997 92.759Q249.74 92.6871 253.483 92.7988Q257.225 92.9105 260.957 93.2057Q264.69 93.5008 268.403 93.9786Q272.117 94.4564 275.802 95.1157Q279.488 95.7751 283.136 96.6143Q286.785 97.4536 290.388 98.4708Q293.992 99.488 297.541 100.681Q301.089 101.873 304.576 103.239Q308.062 104.604 311.477 106.139Q314.892 107.673 318.228 109.373Q321.563 111.074 324.812 112.935Q328.06 114.797 331.213 116.816Q334.366 118.835 337.417 121.006Q340.467 123.177 343.407 125.495Q346.347 127.813 349.17 130.272Q351.993 132.732 354.692 135.327Q357.391 137.922 359.959 140.646Q362.528 143.37 364.96 146.217Q367.391 149.063 369.681 152.026Q371.97 154.989 374.111 158.06Q376.252 161.131 378.24 164.304Q380.228 167.477 382.058 170.743Q383.888 174.009 385.556 177.361Q387.223 180.714 388.725 184.143Q390.226 187.573 391.557 191.073Q392.888 194.572 394.046 198.132Q395.204 201.693 396.186 205.306Q397.168 208.919 397.972 212.576Q398.776 216.232 399.399 219.924Q400.022 223.616 400.464 227.334Q400.905 231.052 401.164 234.787Q401.423 238.522 401.498 242.265Q401.573 246.008 401.465 249.751Q401.356 253.493 401.064 257.226Q400.773 260.958 400.298 264.672Q399.823 268.386 399.167 272.072Q398.511 275.758 397.675 279.408Q396.839 283.057 395.825 286.661Q394.811 290.265 393.621 293.815Q392.432 297.365 391.069 300.853Q389.707 304.34 388.175 307.756Q386.644 311.173 384.947 314.51Q383.249 317.847 381.39 321.097Q379.531 324.347 377.515 327.502Q375.499 330.657 373.331 333.709Q371.162 336.761 368.847 339.703Q366.531 342.645 364.075 345.47Q361.618 348.296 359.025 350.997Q356.433 353.698 353.711 356.269Q350.989 358.84 348.144 361.274Q345.299 363.708 342.339 366Q339.378 368.292 336.309 370.435Q333.239 372.579 330.068 374.57Q326.898 376.561 323.633 378.394Q320.368 380.227 317.018 381.897Q313.667 383.568 310.238 385.072Q306.81 386.576 303.312 387.91Q299.813 389.245 296.254 390.406Q292.695 391.567 289.082 392.552Q285.47 393.537 281.814 394.344Q278.158 395.151 274.467 395.777Q270.776 396.404 267.058 396.849Q263.341 397.294 259.606 397.556Q255.871 397.818 252.128 397.896Q248.381 397.975 244.634 397.869Q240.887 397.764 237.15 397.474Q233.413 397.185 229.695 396.712Q225.977 396.24 222.286 395.585Q218.596 394.931 214.942 394.096Q211.287 393.261 207.679 392.248Q204.07 391.235 200.516 390.046Q196.961 388.857 193.469 387.494Q189.977 386.132 186.557 384.6Q183.136 383.068 179.794 381.37Q176.453 379.672 173.199 377.812Q169.945 375.952 166.786 373.934Q163.627 371.916 160.571 369.746Q157.515 367.576 154.57 365.258Q151.624 362.941 148.796 360.481Q145.967 358.022 143.263 355.426Q140.559 352.831 137.985 350.106Q135.412 347.381 132.975 344.533Q130.539 341.684 128.245 338.72Q125.951 335.756 123.805 332.683Q121.66 329.609 119.668 326.434Q117.675 323.259 115.842 319.99Q114.008 316.721 112.337 313.366Q110.666 310.011 109.161 306.578Q107.657 303.145 106.323 299.643Q104.989 296.14 103.828 292.576Q102.668 289.012 101.684 285.395Q100.7 281.779 99.8941 278.118Q99.0888 274.457 98.4641 270.762Q97.8395 267.066 97.397 263.344Q96.9545 259.622 96.6953 255.883Q96.4361 252.143 96.3608 248.396Q96.2855 244.649 96.3943 240.902Q96.5031 237.155 96.7957 233.419Q97.0883 229.682 97.5639 225.964Q98.0396 222.246 98.6973 218.556Q99.3549 214.866 100.193 211.213Q101.031 207.559 102.047 203.952Q103.064 200.344 104.256 196.79Q105.448 193.237 106.813 189.746Q108.179 186.255 109.714 182.836Q111.249 179.417 112.95 176.077Q114.651 172.737 116.514 169.484Q118.377 166.232 120.397 163.075Q122.418 159.918 124.59 156.864Q126.763 153.81 129.084 150.866Q131.404 147.922 133.866 145.096Q136.328 142.27 138.926 139.568Q141.523 136.866 144.251 134.295Q146.978 131.724 149.828 129.289Q152.678 126.855 155.645 124.564Q158.611 122.273 161.686 120.13Q164.761 117.987 167.938 115.998Q171.115 114.008 174.385 112.177Q177.656 110.346 181.012 108.678Q184.369 107.01 187.803 105.508Q191.238 104.007 194.742 102.676Q198.245 101.345 201.81 100.188Q205.375 99.0304 208.993 98.0494Q212.611 97.0685 216.272 96.2663Q219.933 95.4642 223.63 94.8428Q227.326 94.2213 231.048 93.7821Q234.771 93.3429 238.51 93.087Q242.25 92.831 245.997 92.759Z"/>
	<path fill="#113B5F" transform="scale(1.01786 1.01786)" d="M236.213 102.96Q239.711 102.651 243.221 102.514Q246.73 102.377 250.242 102.413Q253.753 102.448 257.259 102.656Q260.765 102.864 264.256 103.244Q267.747 103.624 271.216 104.175Q274.684 104.726 278.122 105.446Q281.559 106.166 284.957 107.055Q288.354 107.943 291.704 108.997Q295.054 110.051 298.349 111.268Q301.643 112.485 304.873 113.863Q308.104 115.24 311.263 116.775Q314.422 118.309 317.502 119.997Q320.581 121.685 323.575 123.522Q326.568 125.358 329.467 127.34Q332.367 129.322 335.166 131.443Q337.964 133.565 340.655 135.821Q343.346 138.078 345.924 140.464Q348.501 142.849 350.958 145.359Q353.414 147.868 355.745 150.495Q358.076 153.122 360.275 155.861Q362.474 158.599 364.535 161.442Q366.597 164.285 368.517 167.226Q370.437 170.167 372.21 173.198Q373.983 176.23 375.605 179.345Q377.227 182.459 378.694 185.65Q380.161 188.841 381.47 192.1Q382.779 195.359 383.926 198.678Q385.073 201.997 386.056 205.369Q387.039 208.741 387.855 212.156Q388.671 215.572 389.318 219.024Q389.966 222.476 390.443 225.955Q390.92 229.434 391.226 232.933Q391.532 236.432 391.665 239.941Q391.799 243.45 391.76 246.962Q391.722 250.474 391.51 253.979Q391.299 257.485 390.916 260.976Q390.533 264.467 389.979 267.935Q389.425 271.403 388.702 274.839Q387.978 278.276 387.087 281.673Q386.195 285.07 385.138 288.419Q384.081 291.768 382.861 295.061Q381.641 298.354 380.26 301.583Q378.88 304.813 377.342 307.97Q375.805 311.128 374.115 314.206Q372.424 317.284 370.584 320.276Q368.745 323.268 366.76 326.165Q364.776 329.063 362.652 331.859Q360.528 334.656 358.269 337.345Q356.01 340.034 353.622 342.609Q351.234 345.184 348.722 347.639Q346.21 350.093 343.581 352.422Q340.952 354.75 338.212 356.946Q335.471 359.143 332.626 361.202Q329.781 363.261 326.839 365.178Q323.896 367.095 320.863 368.865Q317.83 370.636 314.714 372.255Q311.597 373.874 308.405 375.338Q305.213 376.803 301.953 378.108Q298.693 379.414 295.372 380.558Q292.052 381.703 288.68 382.682Q285.307 383.662 281.891 384.475Q278.474 385.288 275.022 385.932Q271.569 386.576 268.09 387.05Q264.61 387.524 261.111 387.827Q257.616 388.129 254.111 388.26Q250.605 388.39 247.098 388.349Q243.59 388.307 240.089 388.094Q236.588 387.88 233.101 387.495Q229.614 387.11 226.151 386.555Q222.687 385.999 219.255 385.274Q215.823 384.55 212.43 383.658Q209.038 382.766 205.693 381.708Q202.348 380.651 199.06 379.431Q195.771 378.21 192.546 376.83Q189.321 375.45 186.167 373.914Q183.014 372.378 179.94 370.688Q176.865 368.999 173.878 367.161Q170.89 365.323 167.996 363.341Q165.102 361.358 162.309 359.237Q159.515 357.115 156.829 354.859Q154.143 352.602 151.571 350.217Q148.999 347.832 146.547 345.323Q144.095 342.815 141.769 340.189Q139.443 337.563 137.249 334.827Q135.054 332.09 132.997 329.249Q130.939 326.408 129.023 323.47Q127.107 320.531 125.338 317.502Q123.569 314.473 121.95 311.361Q120.331 308.249 118.867 305.062Q117.403 301.874 116.097 298.618Q114.79 295.363 113.646 292.047Q112.501 288.731 111.52 285.364Q110.539 281.996 109.724 278.584Q108.91 275.172 108.263 271.724Q107.617 268.276 107.141 264.801Q106.664 261.326 106.359 257.831Q106.054 254.336 105.92 250.831Q105.786 247.326 105.825 243.818Q105.863 240.311 106.073 236.809Q106.283 233.308 106.665 229.821Q107.047 226.334 107.599 222.87Q108.152 219.405 108.873 215.973Q109.595 212.54 110.484 209.147Q111.373 205.753 112.427 202.408Q113.481 199.062 114.699 195.772Q115.916 192.482 117.293 189.256Q118.67 186.03 120.203 182.875Q121.737 179.72 123.423 176.644Q125.11 173.568 126.945 170.579Q128.78 167.589 130.76 164.694Q132.739 161.798 134.859 159.002Q136.978 156.207 139.232 153.519Q141.486 150.831 143.868 148.257Q146.251 145.683 148.758 143.228Q151.264 140.774 153.888 138.446Q156.511 136.117 159.246 133.92Q161.98 131.723 164.819 129.663Q167.659 127.603 170.595 125.684Q173.532 123.766 176.559 121.994Q179.586 120.222 182.697 118.6Q185.807 116.978 188.994 115.511Q192.18 114.044 195.434 112.735Q198.689 111.426 202.004 110.278Q205.318 109.13 208.685 108.146Q212.052 107.162 215.463 106.344Q218.875 105.527 222.322 104.877Q225.769 104.228 229.244 103.748Q232.719 103.269 236.213 102.96Z"/>
	<path fill="#FAF9F8" transform="scale(1.01786 1.01786)" d="M244.884 126.36C249.667 126.248 254.409 126.216 259.181 126.609C258.296 127.659 257.534 128.735 256.776 129.877C256.678 131.922 256.364 134.212 257.058 136.171C257.482 136.563 257.653 136.704 258.243 136.816C260.916 137.325 264.519 136.834 266.726 135.291C266.66 138.59 267.248 148.065 266.552 150.543C265.659 150.9 260.786 149.23 258.785 149.53C258.08 149.635 257.404 149.989 257.037 150.622C256.236 152.002 256.529 154.408 256.806 155.942C257.254 158.424 259.485 157.65 261.09 158.802C261.792 160.109 260.91 162.147 260.513 163.481C262.151 163.992 264.269 163.776 265.993 163.855C271.465 164.107 278.783 164.799 283.406 167.985C284.353 168.637 285.111 169.526 285.298 170.69C285.474 171.786 285.069 172.941 284.667 173.945C282.177 180.16 278.52 186.279 275.439 192.23C273.371 196.224 271.303 201.291 268.689 204.885C269.953 206.085 271.651 207.562 271.713 209.434C271.789 211.724 268.3 214.298 266.804 215.821L269.445 218.19C270.258 218.084 271.086 217.92 271.906 217.884C274.202 217.781 280.14 221.555 281.883 223.186C282.868 224.107 283.691 225.344 283.706 226.736C283.719 227.992 283.037 229.02 282.154 229.855C278.369 233.436 273.616 233.89 268.694 233.688C265.657 244.854 265.807 256.414 266.637 267.883C267.503 279.84 270.466 291.261 275.028 302.33C275.812 304.235 276.531 306.866 277.935 308.376C279.43 309.983 281.464 308.941 283.004 310.275C284.052 312.977 282.002 317.942 281.368 320.696C284.353 323.798 287.457 326.803 290.535 329.812C292.805 332.031 295.301 334.2 297.079 336.85C298.221 338.553 299.034 340.464 299.283 342.506L299.646 345.428C298.477 348.444 296.75 350.138 294.035 351.785C295.534 352.63 297.091 353.592 298.365 354.755C299.473 355.765 300.616 357.09 300.624 358.679C300.629 359.568 300.253 360.349 299.63 360.972C298.294 362.307 296.079 362.933 294.262 363.188C290.117 363.769 285.396 363.353 281.198 363.352L254.375 363.339L223.231 363.352C217.633 363.352 211.841 363.647 206.264 363.234C203.934 363.061 201.741 362.419 200.199 360.534C199.571 359.767 199.129 358.804 199.303 357.794C199.684 355.571 204.179 352.896 205.869 351.706C204.986 351.15 204.127 350.52 203.367 349.805C201.716 348.255 200.605 346.414 200.59 344.1C200.547 337.498 206.304 332.895 210.578 328.702L218.643 320.758C218.041 318.284 215.663 312.613 216.772 310.355C217.2 309.485 220.666 309.258 221.719 308.857C221.806 308.824 221.893 308.788 221.98 308.754C222.183 308.472 222.372 308.198 222.546 307.897C223.912 305.527 224.777 302.66 225.758 300.106C231.285 285.706 233.472 270.239 233.534 254.874C233.549 251.099 233.585 247.32 233.123 243.566C232.709 240.204 231.884 236.967 231.026 233.699C228.594 233.797 226.28 233.933 223.898 233.301C221.383 232.633 217.741 230.969 216.463 228.614Q216.295 228.303 216.192 227.965Q216.089 227.627 216.055 227.275Q216.021 226.923 216.056 226.571Q216.092 226.22 216.196 225.882C217.064 223.057 223.134 219.61 225.868 218.228C227.234 217.538 228.786 217.93 230.171 218.318L232.915 215.807C231.741 214.568 230.396 213.466 229.303 212.153C228.582 211.286 227.994 210.211 228.175 209.046C228.439 207.346 230.078 205.997 231.408 205.089C228.912 201.055 226.916 196.571 224.756 192.343C221.699 186.362 215.983 176.432 214.422 170.342C214.677 169.997 214.938 169.67 215.229 169.355C220.435 163.702 232.567 163.877 239.776 163.592L239.94 163.329C239.356 162.575 238.648 161.632 238.466 160.678C237.954 158.001 242.092 158.621 243.115 156.904C243.812 155.734 244.219 151.743 243.535 150.467C243.277 149.984 243.023 149.908 242.503 149.819C239.517 149.304 236.064 149.642 233.52 151.293C233.458 147.856 232.983 138.843 233.638 135.968L234.072 135.761C234.312 135.931 234.554 136.095 234.817 136.228C236.649 137.157 241.313 137.042 243.281 136.469C244.214 135.247 243.742 131.504 243.712 129.928C243.013 128.741 242.059 127.684 241.196 126.612L244.884 126.36Z"/>
</svg>
